<svg xmlns="http://www.w3.org/2000/svg" xmlns:xlink="http://www.w3.org/1999/xlink" xmlns:inkscape="http://www.inkscape.org/namespaces/inkscape" version="1.1" width="153.12" height="168" viewBox="0 0 153.12 168">
<defs>
<clipPath id="clip_1">
<path transform="matrix(.24,0,0,.24,0,0)" d="M25 25H606.25V675H25Z" clip-rule="evenodd"/>
</clipPath>
<clipPath id="clip_2">
<path transform="matrix(.24,0,0,.24,0,0)" d="M196.89942 87.5H434.3994V162.5H196.89942Z" clip-rule="evenodd"/>
</clipPath>
<path id="font_3_39" d="M.6801758 .34936524C.6801758 .27835084 .66625979 .21637471 .63842776 .16343689 .6105957 .11050924 .5712077 .07003784 .5202637 .042022706 .46931968 .014007568 .41097007 0 .34521485 0H.06689453V.68847659H.31591798C.43180339 .68847659 .5214844 .6592407 .58496096 .60076907 .6484375 .54229739 .6801758 .4584961 .6801758 .34936524M.53515627 .34936524C.53515627 .42333985 .5159505 .47979737 .47753907 .5187378 .4391276 .5576782 .38427735 .57714846 .31298829 .57714846H.2109375V.111328128H.3330078C.39485679 .111328128 .4440104 .13267009 .48046876 .175354 .51692709 .2180481 .53515627 .27605186 .53515627 .34936524Z"/>
<path id="font_3_68" d="M.19189453-.009765625C.14078777-.009765625 .10091146 .0041503908 .072265628 .031982423 .043619794 .059814454 .029296875 .098958339 .029296875 .14941406 .029296875 .20410156 .04711914 .24576824 .08276367 .27441407 .1184082 .3030599 .17008464 .31770835 .23779297 .31835938L.3515625 .3203125V.34716798C.3515625 .3816732 .34554038 .40730796 .3334961 .42407228 .3214518 .44083659 .3017578 .44921876 .27441407 .44921876 .24902344 .44921876 .23038738 .44344078 .21850586 .43188478 .20662435 .42032878 .19921875 .40120445 .19628906 .37451173L.053222658 .38134767C.06201172 .43277995 .0855306 .47176109 .1237793 .49829103 .162028 .524821 .2141927 .53808596 .28027345 .53808596 .34700523 .53808596 .3984375 .52164718 .4345703 .48876954 .47070313 .45589195 .48876954 .4091797 .48876954 .3486328V.15625C.48876954 .12662761 .4921061 .10620117 .4987793 .0949707 .50545248 .083740238 .51660159 .078125 .53222659 .078125 .54264327 .078125 .5527344 .07910156 .5625 .08105469V.0068359377C.554362 .0048828127 .5470378 .003092448 .54052737 .0014648438 .5340169-.00016276042 .52750656-.0014648438 .5209961-.0024414063 .51448568-.0034179688 .50756838-.004231771 .50024417-.0048828127 .49291993-.005533854 .484375-.005859375 .47460938-.005859375 .44010417-.005859375 .41463218 .0026041668 .39819337 .01953125 .38175456 .036458333 .37190757 .061360677 .36865235 .09423828H.36572267C.3273112 .024902344 .2693685-.009765625 .19189453-.009765625M.3515625 .2446289 .28125 .24365235C.24934896 .24235027 .22672527 .2388509 .2133789 .2331543 .20003255 .22745769 .18986003 .21875 .18286133 .20703125 .17586263 .1953125 .17236328 .1796875 .17236328 .16015625 .17236328 .13509114 .17814128 .11645508 .18969727 .10424805 .20125325 .092041019 .21663411 .0859375 .23583985 .0859375 .25732423 .0859375 .27693687 .091796878 .29467774 .103515628 .3124186 .115234378 .32633464 .13142903 .33642579 .15209961 .34651695 .17277019 .3515625 .19466146 .3515625 .21777344V.2446289Z"/>
<path id="font_3_87" d="M.20507813-.0087890629C.16471355-.0087890629 .1336263 .0021972657 .111816409 .024169922 .09000651 .046142579 .07910156 .079427089 .07910156 .12402344V.43554688H.012207031V.5283203H.0859375L.12890625 .65234377H.21484375V.5283203H.3149414V.43554688H.21484375V.16113281C.21484375 .13541667 .21972656 .11645508 .22949219 .10424805 .23925781 .092041019 .25439454 .0859375 .27490235 .0859375 .28564454 .0859375 .300944 .08821615 .32080079 .09277344V.0078125C.28694663-.0032552083 .24837239-.0087890629 .20507813-.0087890629Z"/>
<path id="font_3_55" d="M.3774414 .57714846V0H.23339844V.57714846H.011230469V.68847659H.60009768V.57714846H.3774414Z"/>
<path id="font_3_88" d="M.19921875 .5283203V.2319336C.19921875 .13916016 .23046875 .09277344 .29296876 .09277344 .32617188 .09277344 .35294596 .10701498 .37329103 .13549805 .39363609 .16398113 .4038086 .20052083 .4038086 .24511719V.5283203H.5410156V.11816406C.5410156 .07324219 .5423177 .033854169 .5449219 0H.4140625C.41015626 .046875 .40820313 .08186849 .40820313 .10498047H.40576173C.38753257 .064941409 .3643392 .035807294 .33618165 .017578125 .30802409-.0006510417 .2745768-.009765625 .23583985-.009765625 .17985027-.009765625 .13688152 .007405599 .106933597 .041748048 .07698568 .07609049 .06201172 .12646485 .06201172 .1928711V.5283203H.19921875Z"/>
<path id="font_3_83" d="M.5698242 .2668457C.5698242 .17854817 .55216476 .11037191 .5168457 .062316896 .4815267 .014261882 .43164063-.009765625 .3671875-.009765625 .33007813-.009765625 .29777018-.0017089844 .27026368 .014404297 .24275716 .030517579 .22167969 .053710939 .20703125 .083984378H.20410156C.20605469 .0741984 .20703125 .044525148 .20703125-.0050354006V-.20800781H.06982422V.406662C.06982422 .4564972 .06852213 .49704997 .06591797 .5283203H.19921875C.20084636 .52249148 .20222982 .5110016 .20336914 .4938507 .20450847 .47669984 .20507813 .45970664 .20507813 .4428711H.20703125C.23795574 .5076497 .29427085 .54003909 .37597657 .54003909 .4375 .54003909 .4851888 .5163371 .51904299 .4689331 .55289718 .42152915 .5698242 .35416667 .5698242 .2668457M.4267578 .2668457C.4267578 .38549806 .39046226 .44482423 .3178711 .44482423 .28141276 .44482423 .25349937 .42885337 .23413086 .39691163 .21476238 .36496989 .20507813 .3203125 .20507813 .26293946 .20507813 .20589192 .21476238 .1618042 .23413086 .13067627 .25349937 .09954834 .28108726 .083984378 .31689454 .083984378 .39013673 .083984378 .4267578 .14493816 .4267578 .2668457Z"/>
<path id="font_3_79" d="M.06982422 0V.7246094H.20703125V0H.06982422Z"/>
<path id="font_3_72" d="M.2861328-.009765625C.20670574-.009765625 .14567058 .013753255 .103027347 .060791017 .060384115 .10782877 .0390625 .1764323 .0390625 .26660157 .0390625 .35384117 .060709638 .42089845 .104003909 .46777345 .14729817 .51464846 .20865886 .53808596 .28808595 .53808596 .36393229 .53808596 .421875 .51298019 .46191407 .46276856 .5019531 .41255699 .52197268 .33902995 .52197268 .2421875V.23828125H.18310547C.18310547 .1866862 .19262696 .14774578 .21166992 .12145996 .23071289 .095174159 .2578125 .08203125 .29296876 .08203125 .34147135 .08203125 .3720703 .1031901 .38476563 .14550781L.51416018 .13424683C.47672526 .038238527 .40071617-.009765625 .2861328-.009765625M.2861328 .45166017C.25390626 .45166017 .22908528 .44047038 .21166992 .41809083 .19425456 .39572145 .1850586 .36443077 .18408203 .32421876H.38916017C.386556 .36669923 .3763021 .39855958 .35839845 .4197998 .34049479 .44104005 .31640626 .45166017 .2861328 .45166017Z"/>
<clipPath id="clip_4">
<path transform="matrix(.24,0,0,.24,0,0)" d="M87.5 237.5H293.75V312.5H87.5Z" clip-rule="evenodd"/>
</clipPath>
<path id="font_5_14" d="M.32763673 .296875V.087890628H.25585938V.296875H.048828126V.36816407H.25585938V.57714846H.32763673V.36816407H.53466799V.296875H.32763673Z"/>
<path id="font_5_79" d="M.06738281 0V.7246094H.15527344V0H.06738281Z"/>
<path id="font_5_72" d="M.13476563 .24609375C.13476563 .18539429 .14729817 .13855998 .17236328 .10559082 .19742839 .072631839 .23404949 .056152345 .28222657 .056152345 .3203125 .056152345 .35083009 .06384786 .3737793 .07923889 .39672853 .09462992 .41227214 .114115398 .42041017 .13769531L.4975586 .11564636C.46598307 .032038373 .39420573-.009765625 .28222657-.009765625 .20410156-.009765625 .14461263 .013509114 .103759769 .060058595 .0629069 .10660807 .04248047 .17578125 .04248047 .26757813 .04248047 .35481773 .0629069 .42171226 .103759769 .46826173 .14461263 .5148112 .20296224 .53808596 .2788086 .53808596 .43408204 .53808596 .51171877 .44465638 .51171877 .25779725V.24609375H.13476563M.42089845 .31347657C.41601563 .36896769 .40185548 .40944926 .37841798 .43492127 .35498048 .46040345 .32128907 .47314454 .27734376 .47314454 .23470052 .47314454 .20092774 .4589437 .17602539 .430542 .15112305 .40215049 .13769531 .36312867 .13574219 .31347657H.42089845Z"/>
<path id="font_5_73" d="M.17626953 .46435548V0H.088378909V.46435548H.014160156V.5283203H.088378909V.5878906C.088378909 .6360677 .098958339 .67073568 .12011719 .69189456 .14127605 .7130534 .17366536 .7236328 .21728516 .7236328 .24169922 .7236328 .26236979 .7216797 .27929688 .71777346V.6508789C.26464845 .6534831 .2516276 .65478518 .24023438 .65478518 .21777344 .65478518 .20149739 .64908859 .19140625 .6376953 .18131511 .62630209 .17626953 .60563156 .17626953 .5756836V.5283203H.27929688V.46435548H.17626953Z"/>
<path id="font_5_87" d="M.2705078 .00390625C.24153646-.00390625 .21191406-.0078125 .18164063-.0078125 .111328128-.0078125 .076171878 .0320638 .076171878 .111816409V.46435548H.015136719V.5283203H.079589847L.10546875 .6464844H.1640625V.5283203H.26171876V.46435548H.1640625V.13085938C.1640625 .10546875 .16821289 .087646488 .17651367 .07739258 .18481446 .06713867 .19921875 .06201172 .21972656 .06201172 .23144531 .06201172 .24837239 .06429037 .2705078 .068847659V.00390625Z"/>
<path id="font_5_29" d="M.091308597 .4267578V.5283203H.18652344V.4267578H.091308597M.091308597 0V.1015625H.18652344V0H.091308597Z"/>
<path id="font_5_3" d=""/>
<path id="font_5_88" d="M.15332031 .5283203V.19335938C.15332031 .15852864 .15673828 .13151042 .16357422 .11230469 .17041016 .09309896 .18131511 .07926432 .19628906 .07080078 .21126302 .06233724 .23323567 .05810547 .26220704 .05810547 .30452476 .05810547 .33789063 .07259115 .3623047 .1015625 .38671876 .13053386 .39892579 .17073567 .39892579 .22216797V.5283203H.4868164V.11279297C.4868164 .05126953 .48779298 .013671875 .4897461 0H.40673829C.40641276 .0016276041 .40608726 .0060221354 .40576173 .013183594 .4054362 .020345053 .4050293 .028564454 .40454103 .037841798 .40405274 .04711914 .40348307 .06461588 .40283204 .09033203H.4013672C.3811849 .0538737 .35782878 .028076172 .33129884 .012939453 .3047689-.0021972657 .2718099-.009765625 .23242188-.009765625 .17447917-.009765625 .13208008 .004638672 .10522461 .033447267 .07836914 .06225586 .064941409 .10986328 .064941409 .17626953V.5283203H.15332031Z"/>
<path id="font_5_22" d="M.51220706 .19021607C.51220706 .12664795 .49202476 .077423099 .45166017 .042541505 .41129557 .0076700847 .35367839-.009765625 .2788086-.009765625 .20914714-.009765625 .15356446 .0059407555 .11206055 .037353517 .07055664 .06876627 .045898439 .115234378 .038085939 .17675781L.12890625 .1850586C.140625 .10367838 .19059246 .06298828 .2788086 .06298828 .32307945 .06298828 .35782878 .073913577 .38305665 .09576416 .40828453 .117614749 .42089845 .15007019 .42089845 .1931305 .42089845 .2306366 .40649415 .25990806 .37768556 .28094483 .34887696 .3019816 .30729167 .3125 .2529297 .3125H.203125V.38867188H.25097657C.29915367 .38867188 .33650718 .39914958 .3630371 .42010499 .38956706 .4410604 .40283204 .4700521 .40283204 .5070801 .40283204 .5437927 .39200846 .5727844 .37036134 .5940552 .3487142 .6153361 .316569 .62597659 .27392579 .62597659 .2351888 .62597659 .20385742 .61604818 .17993164 .5961914 .15600586 .57633468 .14208985 .54833987 .1381836 .51220706L.049804689 .51904299C.056315107 .5753581 .07967123 .6193034 .11987305 .6508789 .16007488 .6824544 .2117513 .6982422 .27490235 .6982422 .34391276 .6982422 .39754234 .68223068 .43579103 .6502075 .4740397 .6181946 .49316407 .57358297 .49316407 .5163727 .49316407 .4724884 .48087565 .43681336 .45629884 .40934754 .43172203 .3818817 .3959961 .3632711 .3491211 .35351563V.3515625C.40055339 .34601847 .44059245 .32874046 .46923829 .2997284 .49788413 .27071635 .51220706 .23421224 .51220706 .19021607Z"/>
<path id="font_5_21" d="M.05029297 0V.06201172C.06689453 .100097659 .0871582 .13370769 .111083988 .1628418 .13500977 .1919759 .16015625 .2183431 .18652344 .24194336 .21289063 .2655436 .23901367 .2874349 .26489259 .3076172 .29077149 .32779948 .3141276 .34798179 .33496095 .36816407 .35579429 .38834635 .37263999 .40950523 .38549806 .43164063 .3983561 .45377604 .40478517 .47884117 .40478517 .50683596 .40478517 .5445964 .39371745 .57389327 .37158204 .59472659 .34944663 .6155599 .3186849 .62597659 .27929688 .62597659 .24186199 .62597659 .21101888 .615804 .18676758 .595459 .16251628 .57511398 .14827474 .5465495 .14404297 .5097656L.05419922 .5180664C.060709638 .5730794 .08406576 .616862 .12426758 .64941409 .1644694 .6819661 .21614583 .6982422 .27929688 .6982422 .3486328 .6982422 .40193687 .68188479 .43920899 .6491699 .4764811 .6164551 .4951172 .569987 .4951172 .5097656 .4951172 .4830729 .48901368 .45654298 .47680665 .43017579 .4645996 .4038086 .4464518 .3774414 .42236329 .35107423 .39827476 .32470704 .35221354 .28385417 .2841797 .22851563 .2467448 .19791667 .21695964 .17032878 .19482422 .14575196 .1726888 .12117513 .15673828 .09749349 .14697266 .07470703H.5058594V0H.05029297Z"/>
<clipPath id="clip_6">
<path transform="matrix(.24,0,0,.24,0,0)" d="M87.5 312.5H325V387.5H87.5Z" clip-rule="evenodd"/>
</clipPath>
<path id="font_5_85" d="M.06933594 0V.40527345C.06933594 .4423828 .068359378 .48339845 .06640625 .5283203H.14941406C.15201824 .46842448 .15332031 .43245445 .15332031 .42041017H.15527344C.16927083 .46565757 .18538411 .49658204 .20361328 .5131836 .22184246 .52978518 .2475586 .53808596 .28076173 .53808596 .29248048 .53808596 .30436198 .5364583 .31640626 .5332031V.45263673C.3046875 .45589195 .2890625 .45751954 .26953126 .45751954 .23307292 .45751954 .20524089 .44181315 .18603516 .4104004 .16682942 .37898765 .15722656 .33398438 .15722656 .27539063V0H.06933594Z"/>
<path id="font_5_76" d="M.06689453 .640625V.7246094H.15478516V.640625H.06689453M.06689453 0V.5283203H.15478516V0H.06689453Z"/>
<path id="font_5_74" d="M.26757813-.20800781C.20996094-.20800781 .1640625-.19669597 .12988281-.17407227 .095703128-.15144857 .07373047-.11930338 .063964847-.07763672L.15234375-.064941409C.15820313-.08935547 .17114258-.1081543 .19116211-.12133789 .21118164-.13452149 .23746746-.14111328 .27001954-.14111328 .35758464-.14111328 .4013672-.08972168 .4013672 .013061523V.098236087H.40039063C.38378907 .0643514 .3610026 .038853963 .33203126 .021743775 .3030599 .0046437585 .26920573-.00390625 .23046875-.00390625 .16569011-.00390625 .11808268 .01759847 .087646488 .06060791 .057210287 .10361735 .041992189 .17122396 .041992189 .26342774 .041992189 .3569336 .05834961 .42592369 .09106445 .47039796 .1237793 .51487228 .17350261 .5371094 .24023438 .5371094 .27766929 .5371094 .31013999 .52855429 .33764649 .5114441 .36515299 .4943441 .38639323 .46999107 .4013672 .438385H.40234376C.40234376 .44810996 .40299479 .46496073 .40429688 .48893739 .40559898 .5129242 .40690104 .5260518 .40820313 .5283203H.49169923C.4897461 .510732 .48876954 .47424827 .48876954 .41886903V.014801025C.48876954-.1337382 .41503907-.20800781 .26757813-.20800781M.4013672 .2644043C.4013672 .30742393 .3955078 .34449259 .38378907 .37561036 .3720703 .40673829 .35555015 .43053184 .33422853 .44699098 .3129069 .4634501 .28873698 .4716797 .26171876 .4716797 .21679688 .4716797 .18408203 .4553833 .16357422 .42279054 .1430664 .39019776 .1328125 .33740235 .1328125 .2644043 .1328125 .19204712 .14241536 .14006043 .1616211 .108444217 .18082683 .07683817 .21370442 .061035158 .2602539 .061035158 .2879232 .061035158 .3125 .06918335 .33398438 .08547974 .35546876 .10177612 .3720703 .12515767 .38378907 .15562439 .3955078 .18610128 .4013672 .22236125 .4013672 .2644043Z"/>
<path id="font_5_75" d="M.15478516 .43798829C.17366536 .4724935 .19637044 .49780274 .22290039 .513916 .24943035 .5300293 .28304038 .53808596 .32373048 .53808596 .38102214 .53808596 .42325846 .5238444 .45043946 .49536134 .47762046 .46687828 .49121095 .41910807 .49121095 .35205079V0H.40283204V.33496095C.40283204 .3720703 .39941407 .3996582 .39257813 .4177246 .3857422 .43579103 .37451173 .449056 .35888673 .45751954 .34326173 .46598307 .3216146 .47021485 .2939453 .47021485 .25260417 .47021485 .21948242 .45589195 .19458008 .4272461 .16967774 .39860026 .15722656 .36002604 .15722656 .31152345V0H.06933594V.7246094H.15722656V.5361328C.15722656 .51627609 .1566569 .49576823 .15551758 .47460938 .15437825 .45345054 .15364583 .4412435 .15332031 .43798829H.15478516Z"/>
<clipPath id="clip_7">
<path transform="matrix(.24,0,0,.24,0,0)" d="M87.5 387.5H425V462.5H87.5Z" clip-rule="evenodd"/>
</clipPath>
<path id="font_5_68" d="M.20214844-.009765625C.14908855-.009765625 .10921224 .004231771 .08251953 .032226564 .055826826 .060221357 .04248047 .09863281 .04248047 .14746094 .04248047 .20214844 .060465497 .24414063 .09643555 .2734375 .1324056 .30273438 .19042969 .31835938 .2705078 .3203125L.38916017 .32226563V.35107423C.38916017 .39404298 .38004557 .4248047 .3618164 .44335938 .34358726 .46191407 .3149414 .4711914 .2758789 .4711914 .23649089 .4711914 .20784505 .46455384 .1899414 .4512787 .17203777 .4380137 .16129558 .41681925 .15771485 .3876953L.06591797 .39596559C.08089193 .4907125 .15152996 .53808596 .27783204 .53808596 .34423829 .53808596 .39420573 .52286788 .42773438 .49243165 .46126304 .46199546 .47802735 .41796876 .47802735 .36035157V.1328125C.47802735 .106770839 .4814453 .0871582 .48828126 .07397461 .4951172 .060791017 .508138 .05419922 .52734377 .05419922 .5358073 .05419922 .54541018 .055338544 .55615237 .057617189V.0029296876C.5340169-.0022786458 .51139327-.0048828127 .48828126-.0048828127 .45572917-.0048828127 .43204753 .0036621094 .41723634 .020751954 .40242515 .037841798 .39404298 .06461588 .39208985 .10107422H.38916017C.36669923 .060709638 .34057618 .032145185 .31079103 .015380859 .28100587-.0013834635 .24479167-.009765625 .20214844-.009765625M.22216797 .056152345C.25439454 .056152345 .28304038 .06347656 .30810548 .078125 .33317057 .09277344 .35294596 .11287435 .36743165 .13842774 .38191734 .16398113 .38916017 .19026692 .38916017 .21728516V.2607422L.29296876 .25878907C.2516276 .25813804 .22029622 .25390626 .19897461 .24609375 .177653 .23828125 .16129558 .22623699 .14990235 .20996094 .13850911 .19368489 .1328125 .17236328 .1328125 .1459961 .1328125 .11735026 .14054363 .095214847 .15600586 .079589847 .1714681 .063964847 .19352214 .056152345 .22216797 .056152345Z"/>
<path id="font_5_89" d="M.2993164 0H.1953125L.0034179688 .5283203H.09716797L.2133789 .18457031C.21761067 .17154949 .22884114 .13297527 .24707031 .068847659L.26416017 .12597656 .28320313 .18359375 .4033203 .5283203H.49658204L.2993164 0Z"/>
<path id="font_5_69" d="M.51416018 .26660157C.51416018 .08235677 .4493815-.009765625 .31982423-.009765625 .27978517-.009765625 .24650066-.0025227864 .2199707 .011962891 .19344075 .026448569 .171875 .049804689 .15527344 .08203125H.15429688C.15429688 .0719401 .15364583 .056559247 .15234375 .035888673 .15104167 .015218099 .15006511 .0032552083 .14941406 0H.064453128C.06640625 .017578125 .06738281 .0538737 .06738281 .10888672V.7246094H.15527344V.5180664C.15527344 .49690757 .15462239 .47200523 .15332031 .44335938H.15527344C.17154949 .47721354 .19311524 .50146487 .2199707 .5161133 .24682617 .5307617 .2801107 .53808596 .31982423 .53808596 .386556 .53808596 .43562828 .515625 .46704103 .47070313 .49845378 .42578126 .51416018 .3577474 .51416018 .26660157M.421875 .26367188C.421875 .3375651 .41210938 .39046226 .39257813 .42236329 .37304688 .4542643 .3413086 .47021485 .29736329 .47021485 .24788411 .47021485 .21183269 .45328776 .18920899 .4194336 .16658528 .38557945 .15527344 .3318685 .15527344 .25830079 .15527344 .18896485 .16634114 .13777669 .18847656 .10473633 .21061199 .07169596 .24658203 .05517578 .29638673 .05517578 .34065757 .05517578 .37263999 .0715332 .39233399 .10424805 .41202799 .13696289 .421875 .19010417 .421875 .26367188Z"/>
<path id="font_5_82" d="M.51416018 .26464845C.51416018 .17220052 .4938151 .10335287 .453125 .05810547 .4124349 .012858073 .35335288-.009765625 .2758789-.009765625 .19873047-.009765625 .14046224 .013753255 .10107422 .060791017 .0616862 .10782877 .041992189 .17578125 .041992189 .26464845 .041992189 .4469401 .12093099 .53808596 .2788086 .53808596 .35953776 .53808596 .4189453 .51586917 .45703126 .47143556 .4951172 .42700196 .51416018 .3580729 .51416018 .26464845M.421875 .26464845C.421875 .3375651 .41105143 .3905436 .3894043 .42358399 .36775718 .45662437 .33138023 .47314454 .28027345 .47314454 .22884114 .47314454 .19165039 .45629884 .16870117 .42260743 .14575196 .38891603 .13427735 .33626304 .13427735 .26464845 .13427735 .19498699 .14558919 .1426595 .16821289 .107666019 .1908366 .07267252 .22639974 .05517578 .27490235 .05517578 .32763673 .05517578 .36531578 .07210287 .38793946 .10595703 .41056315 .1398112 .421875 .19270833 .421875 .26464845Z"/>
<path id="font_5_81" d="M.40283204 0V.33496095C.40283204 .36979167 .39941407 .3968099 .39257813 .41601563 .3857422 .43522135 .37483726 .449056 .35986329 .45751954 .3448893 .46598307 .32291667 .47021485 .2939453 .47021485 .2516276 .47021485 .21826172 .45572917 .19384766 .4267578 .1694336 .39778648 .15722656 .35758464 .15722656 .30615235V0H.06933594V.41552735C.06933594 .47705079 .068359378 .51464846 .06640625 .5283203H.14941406C.14973958 .5266927 .15006511 .52229818 .15039063 .5151367 .15071614 .5079753 .15112305 .49975587 .15161133 .49047853 .15209961 .48120118 .15266927 .46370445 .15332031 .43798829H.15478516C.17496746 .47444663 .19832357 .50024417 .22485352 .51538088 .25138346 .5305176 .28434245 .53808596 .32373048 .53808596 .3816732 .53808596 .42407228 .52368167 .45092774 .49487306 .4777832 .46606446 .49121095 .41845704 .49121095 .35205079V0H.40283204Z"/>
<clipPath id="clip_8">
<path transform="matrix(.24,0,0,.24,0,0)" d="M87.5 462.5H406.25V537.5H87.5Z" clip-rule="evenodd"/>
</clipPath>
<path id="font_5_70" d="M.13427735 .26660157C.13427735 .19628906 .14534505 .14420574 .16748047 .11035156 .18961589 .0764974 .22298177 .059570314 .26757813 .059570314 .29882813 .059570314 .32495118 .06803385 .34594728 .08496094 .36694337 .10188802 .3798828 .12792969 .38476563 .16308594L.4736328 .15722656C.46679688 .10644531 .44514976 .06591797 .4086914 .03564453 .37223307 .0053710939 .32600913-.009765625 .27001954-.009765625 .1961263-.009765625 .13972982 .013590495 .10083008 .060302736 .06193034 .10701498 .04248047 .1751302 .04248047 .26464845 .04248047 .35351563 .06201172 .42130534 .10107422 .46801759 .14013672 .5147298 .1961263 .53808596 .26904298 .53808596 .32307945 .53808596 .36791993 .5241292 .40356446 .49621583 .43920899 .4683024 .46158854 .42984519 .47070313 .38084413L.3803711 .37402345C.3758138 .40316773 .3642578 .4263204 .34570313 .44348146 .32714845 .46065269 .30078126 .46923829 .26660157 .46923829 .22005208 .46923829 .18636067 .45377604 .16552735 .42285157 .14469402 .3919271 .13427735 .33984376 .13427735 .26660157Z"/>
<path id="font_5_78" d="M.3984375 0 .21972656 .24121094 .15527344 .18798828V0H.06738281V.7246094H.15527344V.27197267L.38720704 .5283203H.49023438L.2758789 .30126954 .50146487 0H.3984375Z"/>
<path id="font_5_59" d="M.54296877 0 .33642579 .30099488 .12548828 0H.022460938L.2841797 .35768128 .04248047 .68847659H.14550781L.33691407 .41825868 .5229492 .68847659H.62597659L.390625 .36109925 .6459961 0H.54296877Z"/>
<path id="font_5_54" d="M.62109377 .1899414C.62109377 .12646485 .59627279 .077311199 .54663088 .04248047 .49698893 .0076497399 .42708335-.009765625 .33691407-.009765625 .16927083-.009765625 .07210287 .048502607 .045410158 .16503906L.13574219 .18310547C.14615886 .14176433 .16829427 .11140951 .20214844 .092041019 .23600261 .07267252 .2820638 .06298828 .34033204 .06298828 .40055339 .06298828 .44702149 .07332357 .47973634 .09399414 .5124512 .11466471 .5288086 .14501953 .5288086 .1850586 .5288086 .20751953 .52368167 .2257487 .51342776 .2397461 .5031738 .2537435 .48876954 .26529948 .47021485 .27441407 .45166017 .28352867 .42952476 .29117839 .4038086 .29736329 .37809245 .3035482 .34960938 .31022135 .31835938 .3173828 .2639974 .3294271 .22273763 .34147135 .19458008 .35351563 .16642253 .3655599 .14420574 .37898765 .12792969 .39379884 .11165365 .40861003 .09920248 .425944 .09057617 .44580079 .08194987 .46565757 .07763672 .488444 .07763672 .51416018 .07763672 .5730794 .10017904 .61848959 .14526367 .6503906 .19034831 .6822917 .2548828 .6982422 .3388672 .6982422 .4169922 .6982422 .47672526 .6862793 .5180664 .6623535 .55940756 .63842776 .5883789 .59765627 .60498049 .54003909L.5131836 .5239258C.50309249 .5603841 .48388673 .5868327 .4555664 .6032715 .4272461 .61971029 .38802085 .6279297 .33789063 .6279297 .2828776 .6279297 .24088542 .6188151 .21191406 .60058596 .1829427 .58235678 .16845703 .5551758 .16845703 .51904299 .16845703 .49788413 .17407227 .48038737 .18530274 .46655274 .1965332 .4527181 .21272786 .44099937 .23388672 .43139649 .25504557 .4217936 .29720054 .4099935 .36035157 .3959961 .3815104 .39111329 .4025879 .38614909 .42358399 .38110353 .44458009 .37605796 .464681 .3700358 .48388673 .3630371 .50309249 .35603843 .52107748 .347819 .5378418 .3383789 .55460616 .3289388 .56917318 .3173828 .58154299 .30371095 .5939128 .29003907 .603597 .27392579 .6105957 .2553711 .6175944 .2368164 .62109377 .21500652 .62109377 .1899414Z"/>
<path id="font_5_47" d="M.08203125 0V.68847659H.17529297V.076171878H.5229492V0H.08203125Z"/>
<clipPath id="clip_9">
<path transform="matrix(.24,0,0,.24,0,0)" d="M25 25H606.25V675H25Z" clip-rule="evenodd"/>
</clipPath>
</defs>
<g clip-path="url(#clip_1)">
<path transform="matrix(.75,0,0,.75,75.81445,84)" d="M-85.08594-96H85.08594V96H-85.08594" fill="#eeeeee"/>
<path transform="matrix(.75,0,0,.75,75.81445,84)" stroke-width="1" stroke-linecap="butt" stroke-miterlimit="4" stroke-linejoin="miter" fill="none" stroke="#999999" d="M-85.08594-96H85.08594V96H-85.08594"/>
<path transform="matrix(.75,0,0,.75,75.81445,84)" d="M-85.08594-96C-19.712979-96 45.65998-96 85.08594-96M-85.08594-96C-24.49341-96 36.099119-96 85.08594-96M85.08594-96C85.08594-48.518774 85.08594-1.037543 85.08594 96M85.08594-96C85.08594-46.938596 85.08594 2.122807 85.08594 96M85.08594 96C18.04799 96-48.989957 96-85.08594 96M85.08594 96C39.71216 96-5.6616199 96-85.08594 96M-85.08594 96C-85.08594 28.38371-85.08594-39.23258-85.08594-96M-85.08594 96C-85.08594 22.29932-85.08594-51.40136-85.08594-96" fill="#eeeeee"/>
<path transform="matrix(.75,0,0,.75,75.81445,84)" stroke-width="1" stroke-linecap="butt" stroke-miterlimit="4" stroke-linejoin="miter" fill="none" stroke="#999999" d="M-85.08594-96C-19.712979-96 45.65998-96 85.08594-96M-85.08594-96C-24.49341-96 36.099119-96 85.08594-96M85.08594-96C85.08594-48.518774 85.08594-1.037543 85.08594 96M85.08594-96C85.08594-46.938596 85.08594 2.122807 85.08594 96M85.08594 96C18.04799 96-48.989957 96-85.08594 96M85.08594 96C39.71216 96-5.6616199 96-85.08594 96M-85.08594 96C-85.08594 28.38371-85.08594-39.23258-85.08594-96M-85.08594 96C-85.08594 22.29932-85.08594-51.40136-85.08594-96"/>
</g>
<g clip-path="url(#clip_2)">
<use data-text="D" xlink:href="#font_3_39" transform="matrix(12,0,0,-12,47.25586,33.75)" fill="#111111"/>
<use data-text="a" xlink:href="#font_3_68" transform="matrix(12,0,0,-12,55.91986,33.75)" fill="#111111"/>
<use data-text="t" xlink:href="#font_3_87" transform="matrix(12,0,0,-12,62.59186,33.75)" fill="#111111"/>
<use data-text="a" xlink:href="#font_3_68" transform="matrix(12,0,0,-12,66.58786,33.75)" fill="#111111"/>
<use data-text="T" xlink:href="#font_3_55" transform="matrix(12,0,0,-12,73.25986,33.75)" fill="#111111"/>
<use data-text="u" xlink:href="#font_3_88" transform="matrix(12,0,0,-12,79.70508,33.75)" fill="#111111"/>
<use data-text="p" xlink:href="#font_3_83" transform="matrix(12,0,0,-12,87.03708,33.75)" fill="#111111"/>
<use data-text="l" xlink:href="#font_3_79" transform="matrix(12,0,0,-12,94.36908,33.75)" fill="#111111"/>
<use data-text="e" xlink:href="#font_3_72" transform="matrix(12,0,0,-12,97.70508,33.75)" fill="#111111"/>
</g>
<g clip-path="url(#clip_4)">
<use data-text="+" xlink:href="#font_5_14" transform="matrix(12,0,0,-12,21,69.75)" fill="#111111"/>
<use data-text="l" xlink:href="#font_5_79" transform="matrix(12,0,0,-12,28.008,69.75)" fill="#111111"/>
<use data-text="e" xlink:href="#font_5_72" transform="matrix(12,0,0,-12,30.672,69.75)" fill="#111111"/>
<use data-text="f" xlink:href="#font_5_73" transform="matrix(12,0,0,-12,37.344,69.75)" fill="#111111"/>
<use data-text="t" xlink:href="#font_5_87" transform="matrix(12,0,0,-12,40.68,69.75)" fill="#111111"/>
<use data-text=":" xlink:href="#font_5_29" transform="matrix(12,0,0,-12,44.016,69.75)" fill="#111111"/>
<use data-text=" " xlink:href="#font_5_3" transform="matrix(12,0,0,-12,47.352,69.75)" fill="#111111"/>
<use data-text="u" xlink:href="#font_5_88" transform="matrix(12,0,0,-12,50.688005,69.75)" fill="#111111"/>
<use data-text="3" xlink:href="#font_5_22" transform="matrix(12,0,0,-12,57.36,69.75)" fill="#111111"/>
<use data-text="2" xlink:href="#font_5_21" transform="matrix(12,0,0,-12,64.032,69.75)" fill="#111111"/>
</g>
<g clip-path="url(#clip_6)">
<use data-text="+" xlink:href="#font_5_14" transform="matrix(12,0,0,-12,21,87.75)" fill="#111111"/>
<use data-text="r" xlink:href="#font_5_85" transform="matrix(12,0,0,-12,28.008,87.75)" fill="#111111"/>
<use data-text="i" xlink:href="#font_5_76" transform="matrix(12,0,0,-12,32.004,87.75)" fill="#111111"/>
<use data-text="g" xlink:href="#font_5_74" transform="matrix(12,0,0,-12,34.668,87.75)" fill="#111111"/>
<use data-text="h" xlink:href="#font_5_75" transform="matrix(12,0,0,-12,41.340005,87.75)" fill="#111111"/>
<use data-text="t" xlink:href="#font_5_87" transform="matrix(12,0,0,-12,48.012,87.75)" fill="#111111"/>
<use data-text=":" xlink:href="#font_5_29" transform="matrix(12,0,0,-12,51.348005,87.75)" fill="#111111"/>
<use data-text=" " xlink:href="#font_5_3" transform="matrix(12,0,0,-12,54.684007,87.75)" fill="#111111"/>
<use data-text="u" xlink:href="#font_5_88" transform="matrix(12,0,0,-12,58.020006,87.75)" fill="#111111"/>
<use data-text="3" xlink:href="#font_5_22" transform="matrix(12,0,0,-12,64.692,87.75)" fill="#111111"/>
<use data-text="2" xlink:href="#font_5_21" transform="matrix(12,0,0,-12,71.364009,87.75)" fill="#111111"/>
</g>
<g clip-path="url(#clip_7)">
<use data-text="+" xlink:href="#font_5_14" transform="matrix(12,0,0,-12,21,105.75)" fill="#111111"/>
<use data-text="a" xlink:href="#font_5_68" transform="matrix(12,0,0,-12,28.008,105.75)" fill="#111111"/>
<use data-text="l" xlink:href="#font_5_79" transform="matrix(12,0,0,-12,34.68,105.75)" fill="#111111"/>
<use data-text="i" xlink:href="#font_5_76" transform="matrix(12,0,0,-12,37.344,105.75)" fill="#111111"/>
<use data-text="v" xlink:href="#font_5_89" transform="matrix(12,0,0,-12,40.008005,105.75)" fill="#111111"/>
<use data-text="e" xlink:href="#font_5_72" transform="matrix(12,0,0,-12,46.008005,105.75)" fill="#111111"/>
<use data-text=":" xlink:href="#font_5_29" transform="matrix(12,0,0,-12,52.68,105.75)" fill="#111111"/>
<use data-text=" " xlink:href="#font_5_3" transform="matrix(12,0,0,-12,56.016004,105.75)" fill="#111111"/>
<use data-text="b" xlink:href="#font_5_69" transform="matrix(12,0,0,-12,59.352006,105.75)" fill="#111111"/>
<use data-text="o" xlink:href="#font_5_82" transform="matrix(12,0,0,-12,66.024,105.75)" fill="#111111"/>
<use data-text="o" xlink:href="#font_5_82" transform="matrix(12,0,0,-12,72.69601,105.75)" fill="#111111"/>
<use data-text="l" xlink:href="#font_5_79" transform="matrix(12,0,0,-12,79.36801,105.75)" fill="#111111"/>
<use data-text="e" xlink:href="#font_5_72" transform="matrix(12,0,0,-12,82.03201,105.75)" fill="#111111"/>
<use data-text="a" xlink:href="#font_5_68" transform="matrix(12,0,0,-12,88.70401,105.75)" fill="#111111"/>
<use data-text="n" xlink:href="#font_5_81" transform="matrix(12,0,0,-12,95.376018,105.75)" fill="#111111"/>
</g>
<g clip-path="url(#clip_8)">
<use data-text="+" xlink:href="#font_5_14" transform="matrix(12,0,0,-12,21,123.75)" fill="#111111"/>
<use data-text="l" xlink:href="#font_5_79" transform="matrix(12,0,0,-12,28.008,123.75)" fill="#111111"/>
<use data-text="o" xlink:href="#font_5_82" transform="matrix(12,0,0,-12,30.672,123.75)" fill="#111111"/>
<use data-text="c" xlink:href="#font_5_70" transform="matrix(12,0,0,-12,37.344,123.75)" fill="#111111"/>
<use data-text="k" xlink:href="#font_5_78" transform="matrix(12,0,0,-12,43.344,123.75)" fill="#111111"/>
<use data-text=":" xlink:href="#font_5_29" transform="matrix(12,0,0,-12,49.344,123.75)" fill="#111111"/>
<use data-text=" " xlink:href="#font_5_3" transform="matrix(12,0,0,-12,52.68,123.75)" fill="#111111"/>
<use data-text="X" xlink:href="#font_5_59" transform="matrix(12,0,0,-12,56.016004,123.75)" fill="#111111"/>
<use data-text="S" xlink:href="#font_5_54" transform="matrix(12,0,0,-12,64.020008,123.75)" fill="#111111"/>
<use data-text="L" xlink:href="#font_5_47" transform="matrix(12,0,0,-12,72.024,123.75)" fill="#111111"/>
<use data-text="o" xlink:href="#font_5_82" transform="matrix(12,0,0,-12,78.69601,123.75)" fill="#111111"/>
<use data-text="c" xlink:href="#font_5_70" transform="matrix(12,0,0,-12,85.36801,123.75)" fill="#111111"/>
<use data-text="k" xlink:href="#font_5_78" transform="matrix(12,0,0,-12,91.36801,123.75)" fill="#111111"/>
</g>
<g clip-path="url(#clip_9)">
<path transform="matrix(.75,0,0,.75,75.81445,84)" stroke-width="1" stroke-linecap="butt" stroke-miterlimit="4" stroke-linejoin="miter" fill="none" stroke="#999999" d="M-85.08594-48C-40.015729-48 5.0544846-48 85.08594-48M-85.08594-48C-35.0494-48 14.987141-48 85.08594-48"/>
<path transform="matrix(.75,0,0,.75,75.81445,84)" stroke-width="1" stroke-linecap="butt" stroke-miterlimit="4" stroke-linejoin="miter" fill="none" stroke="#999999" d="M-85.08594 72C-35.699556 72 13.68683 72 85.08594 72M-85.08594 72C-43.2683 72-1.4506583 72 85.08594 72"/>
</g>
</svg>
