<svg xmlns="http://www.w3.org/2000/svg" xmlns:xlink="http://www.w3.org/1999/xlink" xmlns:inkscape="http://www.inkscape.org/namespaces/inkscape" version="1.1" width="414" height="312" viewBox="0 0 414 312">
<defs>
<clipPath id="clip_1">
<path transform="matrix(.24,0,0,.24,0,0)" d="M25 25H1700V1275H25Z" clip-rule="evenodd"/>
</clipPath>
<clipPath id="clip_2">
<path transform="matrix(.24,0,0,.24,0,0)" d="M750.5371 87.5H972.4121V162.5H750.5371Z" clip-rule="evenodd"/>
</clipPath>
<path id="font_3_39" d="M.6801758 .34936524C.6801758 .27835084 .66625979 .21637471 .63842776 .16343689 .6105957 .11050924 .5712077 .07003784 .5202637 .042022706 .46931968 .014007568 .41097007 0 .34521485 0H.06689453V.68847659H.31591798C.43180339 .68847659 .5214844 .6592407 .58496096 .60076907 .6484375 .54229739 .6801758 .4584961 .6801758 .34936524M.53515627 .34936524C.53515627 .42333985 .5159505 .47979737 .47753907 .5187378 .4391276 .5576782 .38427735 .57714846 .31298829 .57714846H.2109375V.111328128H.3330078C.39485679 .111328128 .4440104 .13267009 .48046876 .175354 .51692709 .2180481 .53515627 .27605186 .53515627 .34936524Z"/>
<path id="font_3_68" d="M.19189453-.009765625C.14078777-.009765625 .10091146 .0041503908 .072265628 .031982423 .043619794 .059814454 .029296875 .098958339 .029296875 .14941406 .029296875 .20410156 .04711914 .24576824 .08276367 .27441407 .1184082 .3030599 .17008464 .31770835 .23779297 .31835938L.3515625 .3203125V.34716798C.3515625 .3816732 .34554038 .40730796 .3334961 .42407228 .3214518 .44083659 .3017578 .44921876 .27441407 .44921876 .24902344 .44921876 .23038738 .44344078 .21850586 .43188478 .20662435 .42032878 .19921875 .40120445 .19628906 .37451173L.053222658 .38134767C.06201172 .43277995 .0855306 .47176109 .1237793 .49829103 .162028 .524821 .2141927 .53808596 .28027345 .53808596 .34700523 .53808596 .3984375 .52164718 .4345703 .48876954 .47070313 .45589195 .48876954 .4091797 .48876954 .3486328V.15625C.48876954 .12662761 .4921061 .10620117 .4987793 .0949707 .50545248 .083740238 .51660159 .078125 .53222659 .078125 .54264327 .078125 .5527344 .07910156 .5625 .08105469V.0068359377C.554362 .0048828127 .5470378 .003092448 .54052737 .0014648438 .5340169-.00016276042 .52750656-.0014648438 .5209961-.0024414063 .51448568-.0034179688 .50756838-.004231771 .50024417-.0048828127 .49291993-.005533854 .484375-.005859375 .47460938-.005859375 .44010417-.005859375 .41463218 .0026041668 .39819337 .01953125 .38175456 .036458333 .37190757 .061360677 .36865235 .09423828H.36572267C.3273112 .024902344 .2693685-.009765625 .19189453-.009765625M.3515625 .2446289 .28125 .24365235C.24934896 .24235027 .22672527 .2388509 .2133789 .2331543 .20003255 .22745769 .18986003 .21875 .18286133 .20703125 .17586263 .1953125 .17236328 .1796875 .17236328 .16015625 .17236328 .13509114 .17814128 .11645508 .18969727 .10424805 .20125325 .092041019 .21663411 .0859375 .23583985 .0859375 .25732423 .0859375 .27693687 .091796878 .29467774 .103515628 .3124186 .115234378 .32633464 .13142903 .33642579 .15209961 .34651695 .17277019 .3515625 .19466146 .3515625 .21777344V.2446289Z"/>
<path id="font_3_87" d="M.20507813-.0087890629C.16471355-.0087890629 .1336263 .0021972657 .111816409 .024169922 .09000651 .046142579 .07910156 .079427089 .07910156 .12402344V.43554688H.012207031V.5283203H.0859375L.12890625 .65234377H.21484375V.5283203H.3149414V.43554688H.21484375V.16113281C.21484375 .13541667 .21972656 .11645508 .22949219 .10424805 .23925781 .092041019 .25439454 .0859375 .27490235 .0859375 .28564454 .0859375 .300944 .08821615 .32080079 .09277344V.0078125C.28694663-.0032552083 .24837239-.0087890629 .20507813-.0087890629Z"/>
<path id="font_3_69" d="M.5698242 .26611329C.5698242 .1788737 .55232748 .111083988 .517334 .06274414 .48234049 .014404297 .43229167-.009765625 .3671875-.009765625 .3297526-.009765625 .29736329-.0016276041 .27001954 .0146484379 .24267578 .030924479 .22167969 .05436198 .20703125 .08496094H.20605469C.20605469 .07356771 .20532227 .057942708 .20385742 .038085939 .20239258 .018229166 .20084636 .005533854 .19921875 0H.06591797C.06852213 .030273438 .06982422 .07047526 .06982422 .12060547V.7246094H.20703125V.52246096L.20507813 .43652345H.20703125C.23795574 .50423178 .29427085 .53808596 .37597657 .53808596 .43847657 .53808596 .48640953 .5144043 .5197754 .46704103 .5531413 .41967774 .5698242 .3527018 .5698242 .26611329M.4267578 .26611329C.4267578 .32600913 .41796876 .37044273 .40039063 .39941407 .3828125 .4283854 .3556315 .4428711 .31884767 .4428711 .28173829 .4428711 .25349937 .42732749 .23413086 .39624024 .21476238 .36515299 .20507813 .3203125 .20507813 .26171876 .20507813 .20572917 .21459961 .16210938 .23364258 .13085938 .25268556 .099609378 .28076173 .083984378 .3178711 .083984378 .39046226 .083984378 .4267578 .14469402 .4267578 .26611329Z"/>
<path id="font_3_86" d="M.5151367 .15444947C.5151367 .10329183 .49422203 .0631307 .45239259 .033966066 .41056315 .004811605 .3527018-.009765625 .2788086-.009765625 .20621746-.009765625 .15063477 .0017445883 .11206055 .024765015 .07348633 .047785444 .047851564 .083618167 .03515625 .13226319L.15576172 .15039063C.16259766 .12515259 .17439778 .107284549 .19116211 .0967865 .20792644 .08629862 .23714192 .08105469 .2788086 .08105469 .31722007 .08105469 .34521485 .08594767 .36279298 .09573364 .3803711 .105519618 .38916017 .1208547 .38916017 .14173889 .38916017 .15867615 .38208009 .17211406 .36791993 .18205261 .35375978 .19199117 .3297526 .2003835 .29589845 .20722962 .21842449 .22253926 .16617839 .23679097 .13916016 .24998474 .11214193 .2631785 .091552738 .2802836 .07739258 .30130006 .06323242 .3223165 .056152345 .34813944 .056152345 .37876893 .056152345 .42926536 .07560221 .4686025 .11450195 .4967804 .15340169 .52496847 .2084961 .5390625 .27978517 .5390625 .3426107 .5390625 .3931478 .52685549 .43139649 .5024414 .46964518 .47802735 .4934896 .44270835 .5029297 .39648438L.38134767 .38378907C.3774414 .40527345 .36783854 .42130534 .35253907 .43188478 .3372396 .4424642 .31298829 .4477539 .27978517 .4477539 .24723308 .4477539 .22281902 .44359336 .20654297 .43527223 .19026692 .42695109 .1821289 .41300456 .1821289 .39343263 .1821289 .37812297 .18839519 .36598716 .20092774 .35702516 .21346028 .34806315 .23453777 .34065248 .26416017 .3347931 .3055013 .32631938 .34220378 .31760154 .37426759 .30863954 .4063314 .29967753 .43204753 .28900657 .45141603 .2766266 .47078453 .2642466 .48624674 .24836223 .49780274 .22897339 .5093587 .20958455 .5151367 .18474324 .5151367 .15444947Z"/>
<path id="font_3_72" d="M.2861328-.009765625C.20670574-.009765625 .14567058 .013753255 .103027347 .060791017 .060384115 .10782877 .0390625 .1764323 .0390625 .26660157 .0390625 .35384117 .060709638 .42089845 .104003909 .46777345 .14729817 .51464846 .20865886 .53808596 .28808595 .53808596 .36393229 .53808596 .421875 .51298019 .46191407 .46276856 .5019531 .41255699 .52197268 .33902995 .52197268 .2421875V.23828125H.18310547C.18310547 .1866862 .19262696 .14774578 .21166992 .12145996 .23071289 .095174159 .2578125 .08203125 .29296876 .08203125 .34147135 .08203125 .3720703 .1031901 .38476563 .14550781L.51416018 .13424683C.47672526 .038238527 .40071617-.009765625 .2861328-.009765625M.2861328 .45166017C.25390626 .45166017 .22908528 .44047038 .21166992 .41809083 .19425456 .39572145 .1850586 .36443077 .18408203 .32421876H.38916017C.386556 .36669923 .3763021 .39855958 .35839845 .4197998 .34049479 .44104005 .31640626 .45166017 .2861328 .45166017Z"/>
<clipPath id="clip_4">
<path transform="matrix(.24,0,0,.24,0,0)" d="M87.5 237.5H809.375V312.5H87.5Z" clip-rule="evenodd"/>
</clipPath>
<path id="font_5_16" d="M.044433595 .2265625V.3046875H.28857423V.2265625H.044433595Z"/>
<path id="font_5_85" d="M.06933594 0V.40527345C.06933594 .4423828 .068359378 .48339845 .06640625 .5283203H.14941406C.15201824 .46842448 .15332031 .43245445 .15332031 .42041017H.15527344C.16927083 .46565757 .18538411 .49658204 .20361328 .5131836 .22184246 .52978518 .2475586 .53808596 .28076173 .53808596 .29248048 .53808596 .30436198 .5364583 .31640626 .5332031V.45263673C.3046875 .45589195 .2890625 .45751954 .26953126 .45751954 .23307292 .45751954 .20524089 .44181315 .18603516 .4104004 .16682942 .37898765 .15722656 .33398438 .15722656 .27539063V0H.06933594Z"/>
<path id="font_5_72" d="M.13476563 .24609375C.13476563 .18539429 .14729817 .13855998 .17236328 .10559082 .19742839 .072631839 .23404949 .056152345 .28222657 .056152345 .3203125 .056152345 .35083009 .06384786 .3737793 .07923889 .39672853 .09462992 .41227214 .114115398 .42041017 .13769531L.4975586 .11564636C.46598307 .032038373 .39420573-.009765625 .28222657-.009765625 .20410156-.009765625 .14461263 .013509114 .103759769 .060058595 .0629069 .10660807 .04248047 .17578125 .04248047 .26757813 .04248047 .35481773 .0629069 .42171226 .103759769 .46826173 .14461263 .5148112 .20296224 .53808596 .2788086 .53808596 .43408204 .53808596 .51171877 .44465638 .51171877 .25779725V.24609375H.13476563M.42089845 .31347657C.41601563 .36896769 .40185548 .40944926 .37841798 .43492127 .35498048 .46040345 .32128907 .47314454 .27734376 .47314454 .23470052 .47314454 .20092774 .4589437 .17602539 .430542 .15112305 .40215049 .13769531 .36312867 .13574219 .31347657H.42089845Z"/>
<path id="font_5_79" d="M.06738281 0V.7246094H.15527344V0H.06738281Z"/>
<path id="font_5_68" d="M.20214844-.009765625C.14908855-.009765625 .10921224 .004231771 .08251953 .032226564 .055826826 .060221357 .04248047 .09863281 .04248047 .14746094 .04248047 .20214844 .060465497 .24414063 .09643555 .2734375 .1324056 .30273438 .19042969 .31835938 .2705078 .3203125L.38916017 .32226563V.35107423C.38916017 .39404298 .38004557 .4248047 .3618164 .44335938 .34358726 .46191407 .3149414 .4711914 .2758789 .4711914 .23649089 .4711914 .20784505 .46455384 .1899414 .4512787 .17203777 .4380137 .16129558 .41681925 .15771485 .3876953L.06591797 .39596559C.08089193 .4907125 .15152996 .53808596 .27783204 .53808596 .34423829 .53808596 .39420573 .52286788 .42773438 .49243165 .46126304 .46199546 .47802735 .41796876 .47802735 .36035157V.1328125C.47802735 .106770839 .4814453 .0871582 .48828126 .07397461 .4951172 .060791017 .508138 .05419922 .52734377 .05419922 .5358073 .05419922 .54541018 .055338544 .55615237 .057617189V.0029296876C.5340169-.0022786458 .51139327-.0048828127 .48828126-.0048828127 .45572917-.0048828127 .43204753 .0036621094 .41723634 .020751954 .40242515 .037841798 .39404298 .06461588 .39208985 .10107422H.38916017C.36669923 .060709638 .34057618 .032145185 .31079103 .015380859 .28100587-.0013834635 .24479167-.009765625 .20214844-.009765625M.22216797 .056152345C.25439454 .056152345 .28304038 .06347656 .30810548 .078125 .33317057 .09277344 .35294596 .11287435 .36743165 .13842774 .38191734 .16398113 .38916017 .19026692 .38916017 .21728516V.2607422L.29296876 .25878907C.2516276 .25813804 .22029622 .25390626 .19897461 .24609375 .177653 .23828125 .16129558 .22623699 .14990235 .20996094 .13850911 .19368489 .1328125 .17236328 .1328125 .1459961 .1328125 .11735026 .14054363 .095214847 .15600586 .079589847 .1714681 .063964847 .19352214 .056152345 .22216797 .056152345Z"/>
<path id="font_5_87" d="M.2705078 .00390625C.24153646-.00390625 .21191406-.0078125 .18164063-.0078125 .111328128-.0078125 .076171878 .0320638 .076171878 .111816409V.46435548H.015136719V.5283203H.079589847L.10546875 .6464844H.1640625V.5283203H.26171876V.46435548H.1640625V.13085938C.1640625 .10546875 .16821289 .087646488 .17651367 .07739258 .18481446 .06713867 .19921875 .06201172 .21972656 .06201172 .23144531 .06201172 .24837239 .06429037 .2705078 .068847659V.00390625Z"/>
<path id="font_5_76" d="M.06689453 .640625V.7246094H.15478516V.640625H.06689453M.06689453 0V.5283203H.15478516V0H.06689453Z"/>
<path id="font_5_82" d="M.51416018 .26464845C.51416018 .17220052 .4938151 .10335287 .453125 .05810547 .4124349 .012858073 .35335288-.009765625 .2758789-.009765625 .19873047-.009765625 .14046224 .013753255 .10107422 .060791017 .0616862 .10782877 .041992189 .17578125 .041992189 .26464845 .041992189 .4469401 .12093099 .53808596 .2788086 .53808596 .35953776 .53808596 .4189453 .51586917 .45703126 .47143556 .4951172 .42700196 .51416018 .3580729 .51416018 .26464845M.421875 .26464845C.421875 .3375651 .41105143 .3905436 .3894043 .42358399 .36775718 .45662437 .33138023 .47314454 .28027345 .47314454 .22884114 .47314454 .19165039 .45629884 .16870117 .42260743 .14575196 .38891603 .13427735 .33626304 .13427735 .26464845 .13427735 .19498699 .14558919 .1426595 .16821289 .107666019 .1908366 .07267252 .22639974 .05517578 .27490235 .05517578 .32763673 .05517578 .36531578 .07210287 .38793946 .10595703 .41056315 .1398112 .421875 .19270833 .421875 .26464845Z"/>
<path id="font_5_81" d="M.40283204 0V.33496095C.40283204 .36979167 .39941407 .3968099 .39257813 .41601563 .3857422 .43522135 .37483726 .449056 .35986329 .45751954 .3448893 .46598307 .32291667 .47021485 .2939453 .47021485 .2516276 .47021485 .21826172 .45572917 .19384766 .4267578 .1694336 .39778648 .15722656 .35758464 .15722656 .30615235V0H.06933594V.41552735C.06933594 .47705079 .068359378 .51464846 .06640625 .5283203H.14941406C.14973958 .5266927 .15006511 .52229818 .15039063 .5151367 .15071614 .5079753 .15112305 .49975587 .15161133 .49047853 .15209961 .48120118 .15266927 .46370445 .15332031 .43798829H.15478516C.17496746 .47444663 .19832357 .50024417 .22485352 .51538088 .25138346 .5305176 .28434245 .53808596 .32373048 .53808596 .3816732 .53808596 .42407228 .52368167 .45092774 .49487306 .4777832 .46606446 .49121095 .41845704 .49121095 .35205079V0H.40283204Z"/>
<path id="font_5_86" d="M.4638672 .14613343C.4638672 .09628805 .44506837 .057840986 .4074707 .030792237 .36987306 .003753662 .31722007-.009765625 .24951172-.009765625 .18375652-.009765625 .13305664 .0010579428 .09741211 .022705079 .061767579 .044352216 .03857422 .078125 .027832032 .12402344L.10546875 .13916016C.11295573 .110839847 .12841797 .09008789 .15185547 .0769043 .17529297 .0637207 .20784505 .057128908 .24951172 .057128908 .29410807 .057128908 .32674156 .063975017 .3474121 .07766724 .36808268 .09136963 .37841798 .11191305 .37841798 .13929749 .37841798 .16015117 .3712565 .1770935 .3569336 .19012451 .3426107 .20315552 .3194987 .21390789 .28759767 .22238159L.22460938 .23899842C.17415364 .25202943 .13826497 .26481629 .11694336 .277359 .09562174 .28990174 .078938808 .30513 .06689453 .32304383 .05485026 .3409678 .048828126 .36296083 .048828126 .38902284 .048828126 .43725077 .06599935 .47398887 .1003418 .49923707 .13468425 .5244853 .18473308 .5371094 .25048829 .5371094 .3087565 .5371094 .35506187 .52685549 .3894043 .50634768 .42374674 .48583985 .44547526 .45296226 .45458985 .40771485L.37548829 .39794923C.37060548 .42138673 .35750328 .43937174 .33618165 .4519043 .31486003 .46443687 .28629557 .47070313 .25048829 .47070313 .21077474 .47070313 .18147786 .4646708 .16259766 .4526062 .14371746 .4405416 .13427735 .4222819 .13427735 .39782716 .13427735 .38284303 .1381836 .37046305 .1459961 .36068727 .1538086 .35091148 .16536458 .3426005 .18066406 .3357544 .19596355 .32891847 .22819011 .31947328 .27734376 .30741883 .32389323 .2956899 .35742188 .28485618 .3779297 .2749176 .3984375 .26497904 .41463218 .25398255 .42651368 .2419281 .43839518 .22987366 .44759117 .21594239 .45410157 .20013428 .46061198 .18433635 .4638672 .16633606 .4638672 .14613343Z"/>
<path id="font_5_29" d="M.091308597 .4267578V.5283203H.18652344V.4267578H.091308597M.091308597 0V.1015625H.18652344V0H.091308597Z"/>
<path id="font_5_3" d=""/>
<path id="font_5_80" d="M.375 0V.33496095C.375 .38606773 .3680013 .42138673 .3540039 .44091798 .3400065 .46044923 .31477867 .47021485 .2783203 .47021485 .24088542 .47021485 .21126302 .45589195 .18945313 .4272461 .16764324 .39860026 .15673828 .3582357 .15673828 .30615235V0H.06933594V.41552735C.06933594 .47705079 .068359378 .51464846 .06640625 .5283203H.14941406C.14973958 .5266927 .15006511 .52229818 .15039063 .5151367 .15071614 .5079753 .15112305 .49975587 .15161133 .49047853 .15209961 .48120118 .15266927 .46370445 .15332031 .43798829H.15478516C.17366536 .4754232 .1953125 .50146487 .21972656 .5161133 .24414063 .5307617 .27392579 .53808596 .30908204 .53808596 .3491211 .53808596 .38077799 .53011068 .40405274 .51416018 .42732749 .49820964 .44352214 .472819 .45263673 .43798829H.45410157C.47233073 .47347007 .49438478 .49902345 .5202637 .51464846 .5461426 .53027346 .57747396 .53808596 .6142578 .53808596 .66764327 .53808596 .7064616 .5236003 .7307129 .4946289 .7549642 .46565757 .76708987 .4181315 .76708987 .35205079V0H.6801758V.33496095C.6801758 .38606773 .67317709 .42138673 .6591797 .44091798 .6451823 .46044923 .6199544 .47021485 .5834961 .47021485 .54508468 .47021485 .5152181 .4559733 .49389649 .42749024 .47257487 .39900718 .46191407 .3585612 .46191407 .30615235V0H.375Z"/>
<path id="font_5_83" d="M.51416018 .2668457C.51416018 .08243815 .4493815-.009765625 .31982423-.009765625 .23844402-.009765625 .18375652 .020858765 .15576172 .082107547H.15332031C.15462239 .07950338 .15527344 .051778158 .15527344-.0010681152V-.20800781H.06738281V.42033387C.06738281 .47473655 .06640625 .510732 .064453128 .5283203H.14941406C.14973958 .5270284 .15022786 .5224101 .1508789 .51446536 .15152996 .50653079 .15226238 .4942983 .15307617 .47776795 .15388997 .46124778 .15429688 .4499105 .15429688 .4437561H.15625C.171875 .4763387 .19254558 .50020346 .21826172 .51535037 .24397786 .5305074 .27783204 .53808596 .31982423 .53808596 .38492839 .53808596 .43359376 .5162557 .4658203 .4725952 .49804688 .42893473 .51416018 .36035157 .51416018 .2668457M.421875 .26489259C.421875 .33855186 .41194663 .39118449 .39208985 .42279054 .37223307 .45440675 .34065757 .47021485 .29736329 .47021485 .26253257 .47021485 .23527019 .46288047 .21557617 .44821168 .19588216 .43355308 .1809082 .4106598 .1706543 .37953187 .16040039 .34840394 .15527344 .3079122 .15527344 .25805665 .15527344 .18863933 .16634114 .13747151 .18847656 .10455322 .21061199 .071634929 .24658203 .05517578 .29638673 .05517578 .3400065 .05517578 .37182618 .07122294 .3918457 .10331726 .41186524 .13542176 .421875 .1892802 .421875 .26489259Z"/>
<path id="font_5_31" d="M.049316408 .27929688V.37939454L.53515627 .5839844V.50878909L.11621094 .32958985 .53515627 .14990235V.07519531L.049316408 .27929688Z"/>
<path id="font_5_74" d="M.26757813-.20800781C.20996094-.20800781 .1640625-.19669597 .12988281-.17407227 .095703128-.15144857 .07373047-.11930338 .063964847-.07763672L.15234375-.064941409C.15820313-.08935547 .17114258-.1081543 .19116211-.12133789 .21118164-.13452149 .23746746-.14111328 .27001954-.14111328 .35758464-.14111328 .4013672-.08972168 .4013672 .013061523V.098236087H.40039063C.38378907 .0643514 .3610026 .038853963 .33203126 .021743775 .3030599 .0046437585 .26920573-.00390625 .23046875-.00390625 .16569011-.00390625 .11808268 .01759847 .087646488 .06060791 .057210287 .10361735 .041992189 .17122396 .041992189 .26342774 .041992189 .3569336 .05834961 .42592369 .09106445 .47039796 .1237793 .51487228 .17350261 .5371094 .24023438 .5371094 .27766929 .5371094 .31013999 .52855429 .33764649 .5114441 .36515299 .4943441 .38639323 .46999107 .4013672 .438385H.40234376C.40234376 .44810996 .40299479 .46496073 .40429688 .48893739 .40559898 .5129242 .40690104 .5260518 .40820313 .5283203H.49169923C.4897461 .510732 .48876954 .47424827 .48876954 .41886903V.014801025C.48876954-.1337382 .41503907-.20800781 .26757813-.20800781M.4013672 .2644043C.4013672 .30742393 .3955078 .34449259 .38378907 .37561036 .3720703 .40673829 .35555015 .43053184 .33422853 .44699098 .3129069 .4634501 .28873698 .4716797 .26171876 .4716797 .21679688 .4716797 .18408203 .4553833 .16357422 .42279054 .1430664 .39019776 .1328125 .33740235 .1328125 .2644043 .1328125 .19204712 .14241536 .14006043 .1616211 .108444217 .18082683 .07683817 .21370442 .061035158 .2602539 .061035158 .2879232 .061035158 .3125 .06918335 .33398438 .08547974 .35546876 .10177612 .3720703 .12515767 .38378907 .15562439 .3955078 .18610128 .4013672 .22236125 .4013672 .2644043Z"/>
<path id="font_5_15" d="M.18798828 .107421878V.025222779C.18798828-.009353638 .18489583-.038223268 .17871094-.06138611 .17252605-.08454895 .16292317-.10673014 .14990235-.12792969H.08984375C.12044271-.08365885 .13574219-.041015626 .13574219 0H.09277344V.107421878H.18798828Z"/>
<path id="font_5_53" d="M.5683594 0 .38964845 .28564454H.17529297V0H.08203125V.68847659H.40576173C.4832357 .68847659 .5430501 .67112228 .5852051 .6364136 .62736007 .6017049 .6484375 .55338546 .6484375 .49145509 .6484375 .44028727 .6335449 .39726258 .60375979 .36238099 .5739746 .32750956 .5328776 .30551148 .48046876 .29638673L.67578127 0H.5683594M.5546875 .49047853C.5546875 .53059896 .541097 .56117758 .513916 .58221438 .48673503 .60325118 .44759117 .61376956 .39648438 .61376956H.17529297V.359375H.40039063C.44954429 .359375 .48754884 .37086997 .5144043 .39385987 .54125979 .41685996 .5546875 .44906617 .5546875 .49047853Z"/>
<path id="font_5_33" d="M.049316408 .07519531V.14990235L.46826173 .32958985 .049316408 .50878909V.5839844L.53515627 .37939454V.27929688L.049316408 .07519531Z"/>
<clipPath id="clip_6">
<path transform="matrix(.24,0,0,.24,0,0)" d="M87.5 312.5H925V387.5H87.5Z" clip-rule="evenodd"/>
</clipPath>
<path id="font_5_70" d="M.13427735 .26660157C.13427735 .19628906 .14534505 .14420574 .16748047 .11035156 .18961589 .0764974 .22298177 .059570314 .26757813 .059570314 .29882813 .059570314 .32495118 .06803385 .34594728 .08496094 .36694337 .10188802 .3798828 .12792969 .38476563 .16308594L.4736328 .15722656C.46679688 .10644531 .44514976 .06591797 .4086914 .03564453 .37223307 .0053710939 .32600913-.009765625 .27001954-.009765625 .1961263-.009765625 .13972982 .013590495 .10083008 .060302736 .06193034 .10701498 .04248047 .1751302 .04248047 .26464845 .04248047 .35351563 .06201172 .42130534 .10107422 .46801759 .14013672 .5147298 .1961263 .53808596 .26904298 .53808596 .32307945 .53808596 .36791993 .5241292 .40356446 .49621583 .43920899 .4683024 .46158854 .42984519 .47070313 .38084413L.3803711 .37402345C.3758138 .40316773 .3642578 .4263204 .34570313 .44348146 .32714845 .46065269 .30078126 .46923829 .26660157 .46923829 .22005208 .46923829 .18636067 .45377604 .16552735 .42285157 .14469402 .3919271 .13427735 .33984376 .13427735 .26660157Z"/>
<path id="font_5_55" d="M.3515625 .6123047V0H.25878907V.6123047H.022460938V.68847659H.5878906V.6123047H.3515625Z"/>
<path id="font_5_44" d="M.092285159 0V.68847659H.18554688V0H.092285159Z"/>
<path id="font_5_39" d="M.6743164 .35131837C.6743164 .28030396 .66048178 .21816509 .6328125 .16490174 .60514327 .11164856 .56591799 .07085165 .5151367 .042510988 .46435548 .014170329 .40576173 0 .33935548 0H.08203125V.68847659H.3095703C.42610679 .68847659 .5160319 .6592407 .5793457 .60076907 .6426595 .54229739 .6743164 .45914714 .6743164 .35131837M.5805664 .35131837C.5805664 .4366862 .55721029 .50177 .51049807 .5465698 .4637858 .5913696 .39615885 .61376956 .3076172 .61376956H.17529297V.07470703H.32861329C.379069 .07470703 .42342124 .08578491 .46166993 .107940677 .4999186 .13009644 .5292969 .1620229 .5498047 .2037201 .5703125 .24542745 .5805664 .29462687 .5805664 .35131837Z"/>
<clipPath id="clip_7">
<path transform="matrix(.24,0,0,.24,0,0)" d="M87.5 387.5H937.5V462.5H87.5Z" clip-rule="evenodd"/>
</clipPath>
<path id="font_5_71" d="M.4008789 .08496094C.38460288 .05110677 .3630371 .026855469 .33618165 .012207031 .30932618-.0024414063 .27604167-.009765625 .23632813-.009765625 .16959636-.009765625 .120524089 .0126953129 .08911133 .057617189 .057698568 .10253906 .041992189 .17057292 .041992189 .26171876 .041992189 .44596354 .106770839 .53808596 .23632813 .53808596 .2763672 .53808596 .30973307 .5307617 .33642579 .5161133 .3631185 .50146487 .38460288 .4781901 .4008789 .44628907H.40185548L.4008789 .5053711V.7246094H.48876954V.10888672C.48876954 .0538737 .4897461 .017578125 .49169923 0H.40771485C.40673829 .0052083337 .40568034 .017252604 .40454103 .036132814 .4034017 .05501302 .40283204 .07128906 .40283204 .08496094H.4008789M.13427735 .26464845C.13427735 .1907552 .14404297 .13785808 .16357422 .10595703 .18310547 .07405599 .21484375 .05810547 .25878907 .05810547 .30859376 .05810547 .34472657 .07535807 .3671875 .10986328 .38964845 .14436849 .4008789 .19791667 .4008789 .2705078 .4008789 .34049479 .38964845 .3917643 .3671875 .4243164 .34472657 .4568685 .30891929 .47314454 .25976563 .47314454 .2154948 .47314454 .18351238 .4567871 .16381836 .42407228 .14412435 .39135743 .13427735 .33821617 .13427735 .26464845Z"/>
<path id="font_5_78" d="M.3984375 0 .21972656 .24121094 .15527344 .18798828V0H.06738281V.7246094H.15527344V.27197267L.38720704 .5283203H.49023438L.2758789 .30126954 .50146487 0H.3984375Z"/>
<path id="font_5_66" d="M-.015136719-.19921875V-.13574219H.5673828V-.19921875H-.015136719Z"/>
<clipPath id="clip_8">
<path transform="matrix(.24,0,0,.24,0,0)" d="M87.5 537.5H1103.125V612.5H87.5Z" clip-rule="evenodd"/>
</clipPath>
<path id="font_5_11" d="M.06201172 .25976563C.06201172 .35384117 .07674154 .4383138 .10620117 .5131836 .13566081 .5880534 .18098958 .6585286 .2421875 .7246094H.32714845C.26627604 .65690109 .22159831 .58496096 .19311524 .50878909 .16463216 .4326172 .15039063 .34928385 .15039063 .25878907 .15039063 .1686198 .1644694 .08561198 .19262696 .009765625 .2207845-.06608073 .265625-.13834636 .32714845-.20703125H.2421875C.18066406-.140625 .1352539-.0699056 .10595703 .005126953 .076660159 .08015951 .06201172 .16438802 .06201172 .2578125V.25976563Z"/>
<path id="font_5_88" d="M.15332031 .5283203V.19335938C.15332031 .15852864 .15673828 .13151042 .16357422 .11230469 .17041016 .09309896 .18131511 .07926432 .19628906 .07080078 .21126302 .06233724 .23323567 .05810547 .26220704 .05810547 .30452476 .05810547 .33789063 .07259115 .3623047 .1015625 .38671876 .13053386 .39892579 .17073567 .39892579 .22216797V.5283203H.4868164V.11279297C.4868164 .05126953 .48779298 .013671875 .4897461 0H.40673829C.40641276 .0016276041 .40608726 .0060221354 .40576173 .013183594 .4054362 .020345053 .4050293 .028564454 .40454103 .037841798 .40405274 .04711914 .40348307 .06461588 .40283204 .09033203H.4013672C.3811849 .0538737 .35782878 .028076172 .33129884 .012939453 .3047689-.0021972657 .2718099-.009765625 .23242188-.009765625 .17447917-.009765625 .13208008 .004638672 .10522461 .033447267 .07836914 .06225586 .064941409 .10986328 .064941409 .17626953V.5283203H.15332031Z"/>
<path id="font_5_54" d="M.62109377 .1899414C.62109377 .12646485 .59627279 .077311199 .54663088 .04248047 .49698893 .0076497399 .42708335-.009765625 .33691407-.009765625 .16927083-.009765625 .07210287 .048502607 .045410158 .16503906L.13574219 .18310547C.14615886 .14176433 .16829427 .11140951 .20214844 .092041019 .23600261 .07267252 .2820638 .06298828 .34033204 .06298828 .40055339 .06298828 .44702149 .07332357 .47973634 .09399414 .5124512 .11466471 .5288086 .14501953 .5288086 .1850586 .5288086 .20751953 .52368167 .2257487 .51342776 .2397461 .5031738 .2537435 .48876954 .26529948 .47021485 .27441407 .45166017 .28352867 .42952476 .29117839 .4038086 .29736329 .37809245 .3035482 .34960938 .31022135 .31835938 .3173828 .2639974 .3294271 .22273763 .34147135 .19458008 .35351563 .16642253 .3655599 .14420574 .37898765 .12792969 .39379884 .11165365 .40861003 .09920248 .425944 .09057617 .44580079 .08194987 .46565757 .07763672 .488444 .07763672 .51416018 .07763672 .5730794 .10017904 .61848959 .14526367 .6503906 .19034831 .6822917 .2548828 .6982422 .3388672 .6982422 .4169922 .6982422 .47672526 .6862793 .5180664 .6623535 .55940756 .63842776 .5883789 .59765627 .60498049 .54003909L.5131836 .5239258C.50309249 .5603841 .48388673 .5868327 .4555664 .6032715 .4272461 .61971029 .38802085 .6279297 .33789063 .6279297 .2828776 .6279297 .24088542 .6188151 .21191406 .60058596 .1829427 .58235678 .16845703 .5551758 .16845703 .51904299 .16845703 .49788413 .17407227 .48038737 .18530274 .46655274 .1965332 .4527181 .21272786 .44099937 .23388672 .43139649 .25504557 .4217936 .29720054 .4099935 .36035157 .3959961 .3815104 .39111329 .4025879 .38614909 .42358399 .38110353 .44458009 .37605796 .464681 .3700358 .48388673 .3630371 .50309249 .35603843 .52107748 .347819 .5378418 .3383789 .55460616 .3289388 .56917318 .3173828 .58154299 .30371095 .5939128 .29003907 .603597 .27392579 .6105957 .2553711 .6175944 .2368164 .62109377 .21500652 .62109377 .1899414Z"/>
<path id="font_5_38" d="M.38671876 .6220703C.31054688 .6220703 .2513021 .5975749 .20898438 .548584 .16666667 .4995931 .14550781 .43245445 .14550781 .34716798 .14550781 .26285807 .16756185 .19506836 .21166992 .14379883 .25577799 .0925293 .3154297 .06689453 .390625 .06689453 .48697917 .06689453 .55940756 .114583339 .60791018 .20996094L.68408206 .171875C.6557617 .11263021 .6159668 .06754557 .56469729 .036621095 .51342776 .0056966149 .4539388-.009765625 .38623048-.009765625 .31689454-.009765625 .25691734 .004638672 .20629883 .033447267 .15568035 .06225586 .11710612 .10343424 .09057617 .15698242 .06404623 .2105306 .05078125 .27392579 .05078125 .34716798 .05078125 .4568685 .08040365 .54280599 .13964844 .60498049 .19889324 .66715499 .28092448 .6982422 .3857422 .6982422 .45898438 .6982422 .5201823 .6839549 .56933596 .65538027 .61848959 .6268056 .6546224 .5844269 .6777344 .528244L.58935549 .49902345C.57340499 .5388997 .5477702 .56937667 .5124512 .5904541 .47713218 .61153158 .43522135 .6220703 .38671876 .6220703Z"/>
<path id="font_5_12" d="M.2709961 .2578125C.2709961 .16373699 .25626628 .07926432 .22680664 .0043945314 .197347-.07047526 .15201824-.14095052 .09082031-.20703125H.005859375C.06705729-.13867188 .111816409-.06665039 .14013672 .009033203 .16845703 .0847168 .18261719 .16796875 .18261719 .25878907 .18261719 .34960938 .16837566 .43294273 .13989258 .50878909 .11140951 .58463546 .06673177 .6565755 .005859375 .7246094H.09082031C.15234375 .6582031 .1977539 .5874837 .22705078 .5124512 .25634767 .4374186 .2709961 .3531901 .2709961 .25976563V.2578125Z"/>
<clipPath id="clip_9">
<path transform="matrix(.24,0,0,.24,0,0)" d="M87.5 612.5H618.75V687.5H87.5Z" clip-rule="evenodd"/>
</clipPath>
<path id="font_5_14" d="M.32763673 .296875V.087890628H.25585938V.296875H.048828126V.36816407H.25585938V.57714846H.32763673V.36816407H.53466799V.296875H.32763673Z"/>
<path id="font_5_69" d="M.51416018 .26660157C.51416018 .08235677 .4493815-.009765625 .31982423-.009765625 .27978517-.009765625 .24650066-.0025227864 .2199707 .011962891 .19344075 .026448569 .171875 .049804689 .15527344 .08203125H.15429688C.15429688 .0719401 .15364583 .056559247 .15234375 .035888673 .15104167 .015218099 .15006511 .0032552083 .14941406 0H.064453128C.06640625 .017578125 .06738281 .0538737 .06738281 .10888672V.7246094H.15527344V.5180664C.15527344 .49690757 .15462239 .47200523 .15332031 .44335938H.15527344C.17154949 .47721354 .19311524 .50146487 .2199707 .5161133 .24682617 .5307617 .2801107 .53808596 .31982423 .53808596 .386556 .53808596 .43562828 .515625 .46704103 .47070313 .49845378 .42578126 .51416018 .3577474 .51416018 .26660157M.421875 .26367188C.421875 .3375651 .41210938 .39046226 .39257813 .42236329 .37304688 .4542643 .3413086 .47021485 .29736329 .47021485 .24788411 .47021485 .21183269 .45328776 .18920899 .4194336 .16658528 .38557945 .15527344 .3318685 .15527344 .25830079 .15527344 .18896485 .16634114 .13777669 .18847656 .10473633 .21061199 .07169596 .24658203 .05517578 .29638673 .05517578 .34065757 .05517578 .37263999 .0715332 .39233399 .10424805 .41202799 .13696289 .421875 .19010417 .421875 .26367188Z"/>
<clipPath id="clip_10">
<path transform="matrix(.24,0,0,.24,0,0)" d="M87.5 687.5H840.625V762.5H87.5Z" clip-rule="evenodd"/>
</clipPath>
<clipPath id="clip_11">
<path transform="matrix(.24,0,0,.24,0,0)" d="M87.5 762.5H884.375V837.5H87.5Z" clip-rule="evenodd"/>
</clipPath>
<clipPath id="clip_12">
<path transform="matrix(.24,0,0,.24,0,0)" d="M87.5 837.5H881.25V912.5H87.5Z" clip-rule="evenodd"/>
</clipPath>
<clipPath id="clip_13">
<path transform="matrix(.24,0,0,.24,0,0)" d="M87.5 912.5H890.625V987.5H87.5Z" clip-rule="evenodd"/>
</clipPath>
<clipPath id="clip_14">
<path transform="matrix(.24,0,0,.24,0,0)" d="M87.5 987.5H1471.875V1062.5H87.5Z" clip-rule="evenodd"/>
</clipPath>
<path id="font_5_49" d="M.5283203 0 .16015625 .5864258 .16259766 .5390167 .16503906 .45741273V0H.08203125V.68847659H.19042969L.5625 .09814453C.55859377 .16199748 .5566406 .20826213 .5566406 .23693848V.68847659H.640625V0H.5283203Z"/>
<path id="font_5_89" d="M.2993164 0H.1953125L.0034179688 .5283203H.09716797L.2133789 .18457031C.21761067 .17154949 .22884114 .13297527 .24707031 .068847659L.26416017 .12597656 .28320313 .18359375 .4033203 .5283203H.49658204L.2993164 0Z"/>
<path id="font_5_73" d="M.17626953 .46435548V0H.088378909V.46435548H.014160156V.5283203H.088378909V.5878906C.088378909 .6360677 .098958339 .67073568 .12011719 .69189456 .14127605 .7130534 .17366536 .7236328 .21728516 .7236328 .24169922 .7236328 .26236979 .7216797 .27929688 .71777346V.6508789C.26464845 .6534831 .2516276 .65478518 .24023438 .65478518 .21777344 .65478518 .20149739 .64908859 .19140625 .6376953 .18131511 .62630209 .17626953 .60563156 .17626953 .5756836V.5283203H.27929688V.46435548H.17626953Z"/>
<clipPath id="clip_15">
<path transform="matrix(.24,0,0,.24,0,0)" d="M87.5 1062.5H1525V1137.5H87.5Z" clip-rule="evenodd"/>
</clipPath>
<clipPath id="clip_16">
<path transform="matrix(.24,0,0,.24,0,0)" d="M87.5 1137.5H1131.25V1212.5H87.5Z" clip-rule="evenodd"/>
</clipPath>
<path id="font_5_84" d="M.23632813-.009765625C.16927083-.009765625 .12011719 .012858073 .08886719 .05810547 .057617189 .10335287 .041992189 .17122396 .041992189 .26171876 .041992189 .44596354 .106770839 .53808596 .23632813 .53808596 .2763672 .53808596 .30940757 .53100588 .33544923 .5168457 .36149089 .50268557 .38330079 .47916667 .4008789 .44628907H.40185548C.40185548 .4560547 .4025065 .4729004 .4038086 .49682618 .4051107 .52075198 .40641276 .5335286 .40771485 .53515627H.4921875C.48990885 .51594039 .48876954 .4678955 .48876954 .39102174V-.20800781H.4008789V.0066986086L.40283204 .08691406H.40185548C.38427735 .052083333 .36263023 .02726237 .33691407 .012451172 .3111979-.0023600262 .27766929-.009765625 .23632813-.009765625M.4008789 .2705078C.4008789 .33919273 .38964845 .39013673 .3671875 .42333985 .34472657 .45654298 .30891929 .47314454 .25976563 .47314454 .21516927 .47314454 .18310547 .45654298 .16357422 .42333985 .14404297 .39013673 .13427735 .3372396 .13427735 .26464845 .13427735 .1907552 .14412435 .13785808 .16381836 .10595703 .18351238 .07405599 .21516927 .05810547 .25878907 .05810547 .30859376 .05810547 .34472657 .07584635 .3671875 .111328128 .38964845 .14680989 .4008789 .1998698 .4008789 .2705078Z"/>
<path id="font_5_92" d="M.09326172-.20800781C.06917318-.20800781 .048990888-.20621746 .032714845-.20263672V-.13671875C.045084638-.13867188 .05875651-.13964844 .07373047-.13964844 .12841797-.13964844 .17171224-.09930929 .20361328-.018630982L.21191406 .0024414063 .0024414063 .5283203H.096191409L.20751953 .23632813C.20914714 .23177083 .21110027 .22631836 .2133789 .2199707 .21565755 .21362305 .22298177 .19238281 .23535156 .15625 .24772136 .12011719 .25439454 .0999349 .2553711 .095703128L.28955079 .19189453 .40527345 .5283203H.49804688L.29492188 0C.27311198-.056447347 .25276695-.098454799 .23388672-.12602234 .21500652-.15360005 .1940918-.17415874 .17114258-.18769837 .14819336-.20123799 .12223307-.20800781 .09326172-.20800781Z"/>
<path id="font_5_57" d="M.38183595 0H.28515626L.0043945314 .68847659H.10253906L.29296876 .20370484 .33398438 .08203125 .375 .20370484 .5644531 .68847659H.66259768L.38183595 0Z"/>
<path id="font_5_52" d="M.72998049 .34716798C.72998049 .25016276 .7055664 .17041016 .6567383 .107910159 .60791018 .045410158 .54003909 .008463542 .453125-.0029296876 .46647135-.044118246 .4839681-.07386271 .50561526-.092163089 .5272624-.11047363 .5546875-.119628909 .5878906-.119628909 .60579428-.119628909 .6245117-.11751302 .64404299-.11328125V-.17871094C.61376956-.18587239 .58479818-.18945313 .5571289-.18945313 .5079753-.18945313 .4675293-.17549642 .43579103-.14758301 .40405274-.11967977 .37809245-.0730896 .35791017-.0078125 .29345704-.0045572917 .23787435 .01180013 .19116211 .041259767 .14444988 .0707194 .108805339 .11173502 .084228519 .16430664 .05965169 .21687825 .04736328 .27783204 .04736328 .34716798 .04736328 .457194 .07747396 .5432129 .13769531 .6052246 .19791667 .6672363 .28173829 .6982422 .38916017 .6982422 .45914714 .6982422 .51985678 .6843262 .57128909 .65649417 .6227214 .6286621 .662028 .5882161 .689209 .53515627 .71638998 .48209635 .72998049 .4194336 .72998049 .34716798M.6347656 .34716798C.6347656 .43277995 .6133626 .5 .57055667 .5488281 .5277507 .59765627 .46728517 .6220703 .38916017 .6220703 .31038413 .6220703 .24951172 .59798178 .20654297 .5498047 .16357422 .5016276 .14208985 .43408204 .14208985 .34716798 .14208985 .26090495 .16381836 .19246419 .20727539 .1418457 .25073243 .09122721 .31103517 .06591797 .3881836 .06591797 .4676107 .06591797 .52856448 .090413417 .5710449 .1394043 .6135254 .18839519 .6347656 .25764976 .6347656 .34716798Z"/>
<path id="font_5_36" d="M.5698242 0 .49121095 .20166016H.17773438L.09863281 0H.001953125L.28271485 .68847659H.38867188L.66503909 0H.5698242M.33447267 .61816409 .33007813 .6044922C.3219401 .57747396 .30989585 .54280599 .2939453 .5004883L.20605469 .27441407H.4633789L.375 .50146487C.3658854 .5239258 .35677085 .5493164 .34765626 .5776367L.33447267 .61816409Z"/>
<clipPath id="clip_17">
<path transform="matrix(.24,0,0,.24,0,0)" d="M25 25H1700V1275H25Z" clip-rule="evenodd"/>
</clipPath>
</defs>
<g clip-path="url(#clip_1)">
<path transform="matrix(.75,0,0,.75,206.8125,156)" d="M-259.75-192H259.75V192H-259.75" fill="#eeeeee"/>
<path transform="matrix(.75,0,0,.75,206.8125,156)" stroke-width="1" stroke-linecap="butt" stroke-miterlimit="4" stroke-linejoin="miter" fill="none" stroke="#999999" d="M-259.75-192H259.75V192H-259.75"/>
<path transform="matrix(.75,0,0,.75,206.8125,156)" d="M-259.75-192C-122.69788-192 14.354231-192 259.75-192M-259.75-192C-73.901-192 111.948-192 259.75-192M259.75-192C259.75-48.711359 259.75 94.577289 259.75 192M259.75-192C259.75-97.393459 259.75-2.7869073 259.75 192M259.75 192C126.91864 192-5.912722 192-259.75 192M259.75 192C153.91893 192 48.087854 192-259.75 192M-259.75 192C-259.75 48.488016-259.75-95.02397-259.75-192M-259.75 192C-259.75 84.56277-259.75-22.874463-259.75-192" fill="#eeeeee"/>
<path transform="matrix(.75,0,0,.75,206.8125,156)" stroke-width="1" stroke-linecap="butt" stroke-miterlimit="4" stroke-linejoin="miter" fill="none" stroke="#999999" d="M-259.75-192C-122.69788-192 14.354231-192 259.75-192M-259.75-192C-73.901-192 111.948-192 259.75-192M259.75-192C259.75-48.711359 259.75 94.577289 259.75 192M259.75-192C259.75-97.393459 259.75-2.7869073 259.75 192M259.75 192C126.91864 192-5.912722 192-259.75 192M259.75 192C153.91893 192 48.087854 192-259.75 192M-259.75 192C-259.75 48.488016-259.75-95.02397-259.75-192M-259.75 192C-259.75 84.56277-259.75-22.874463-259.75-192"/>
</g>
<g clip-path="url(#clip_2)">
<use data-text="D" xlink:href="#font_3_39" transform="matrix(12,0,0,-12,180.1289,33.75)" fill="#111111"/>
<use data-text="a" xlink:href="#font_3_68" transform="matrix(12,0,0,-12,188.79291,33.75)" fill="#111111"/>
<use data-text="t" xlink:href="#font_3_87" transform="matrix(12,0,0,-12,195.4649,33.75)" fill="#111111"/>
<use data-text="a" xlink:href="#font_3_68" transform="matrix(12,0,0,-12,199.4609,33.75)" fill="#111111"/>
<use data-text="b" xlink:href="#font_3_69" transform="matrix(12,0,0,-12,206.1329,33.75)" fill="#111111"/>
<use data-text="a" xlink:href="#font_3_68" transform="matrix(12,0,0,-12,213.4649,33.75)" fill="#111111"/>
<use data-text="s" xlink:href="#font_3_86" transform="matrix(12,0,0,-12,220.1369,33.75)" fill="#111111"/>
<use data-text="e" xlink:href="#font_3_72" transform="matrix(12,0,0,-12,226.8089,33.75)" fill="#111111"/>
</g>
<g clip-path="url(#clip_4)">
<use data-text="-" xlink:href="#font_5_16" transform="matrix(12,0,0,-12,21,69.75)" fill="#111111"/>
<use data-text="r" xlink:href="#font_5_85" transform="matrix(12,0,0,-12,24.996,69.75)" fill="#111111"/>
<use data-text="e" xlink:href="#font_5_72" transform="matrix(12,0,0,-12,28.992,69.75)" fill="#111111"/>
<use data-text="l" xlink:href="#font_5_79" transform="matrix(12,0,0,-12,35.664,69.75)" fill="#111111"/>
<use data-text="a" xlink:href="#font_5_68" transform="matrix(12,0,0,-12,38.328004,69.75)" fill="#111111"/>
<use data-text="t" xlink:href="#font_5_87" transform="matrix(12,0,0,-12,45.000005,69.75)" fill="#111111"/>
<use data-text="i" xlink:href="#font_5_76" transform="matrix(12,0,0,-12,48.336008,69.75)" fill="#111111"/>
<use data-text="o" xlink:href="#font_5_82" transform="matrix(12,0,0,-12,51.000009,69.75)" fill="#111111"/>
<use data-text="n" xlink:href="#font_5_81" transform="matrix(12,0,0,-12,57.672006,69.75)" fill="#111111"/>
<use data-text="s" xlink:href="#font_5_86" transform="matrix(12,0,0,-12,64.34401,69.75)" fill="#111111"/>
<use data-text=":" xlink:href="#font_5_29" transform="matrix(12,0,0,-12,70.34401,69.75)" fill="#111111"/>
<use data-text=" " xlink:href="#font_5_3" transform="matrix(12,0,0,-12,73.68001,69.75)" fill="#111111"/>
<use data-text="m" xlink:href="#font_5_80" transform="matrix(12,0,0,-12,77.01601,69.75)" fill="#111111"/>
<use data-text="a" xlink:href="#font_5_68" transform="matrix(12,0,0,-12,87.01201,69.75)" fill="#111111"/>
<use data-text="p" xlink:href="#font_5_83" transform="matrix(12,0,0,-12,93.684009,69.75)" fill="#111111"/>
<use data-text="&#x003c;" xlink:href="#font_5_31" transform="matrix(12,0,0,-12,100.35601,69.75)" fill="#111111"/>
<use data-text="s" xlink:href="#font_5_86" transform="matrix(12,0,0,-12,107.36401,69.75)" fill="#111111"/>
<use data-text="t" xlink:href="#font_5_87" transform="matrix(12,0,0,-12,113.36401,69.75)" fill="#111111"/>
<use data-text="r" xlink:href="#font_5_85" transform="matrix(12,0,0,-12,116.70001,69.75)" fill="#111111"/>
<use data-text="i" xlink:href="#font_5_76" transform="matrix(12,0,0,-12,120.69601,69.75)" fill="#111111"/>
<use data-text="n" xlink:href="#font_5_81" transform="matrix(12,0,0,-12,123.36001,69.75)" fill="#111111"/>
<use data-text="g" xlink:href="#font_5_74" transform="matrix(12,0,0,-12,130.03202,69.75)" fill="#111111"/>
<use data-text="," xlink:href="#font_5_15" transform="matrix(12,0,0,-12,136.70401,69.75)" fill="#111111"/>
<use data-text=" " xlink:href="#font_5_3" transform="matrix(12,0,0,-12,140.04001,69.75)" fill="#111111"/>
<use data-text="R" xlink:href="#font_5_53" transform="matrix(12,0,0,-12,143.376,69.75)" fill="#111111"/>
<use data-text="e" xlink:href="#font_5_72" transform="matrix(12,0,0,-12,152.04001,69.75)" fill="#111111"/>
<use data-text="l" xlink:href="#font_5_79" transform="matrix(12,0,0,-12,158.712,69.75)" fill="#111111"/>
<use data-text="a" xlink:href="#font_5_68" transform="matrix(12,0,0,-12,161.376,69.75)" fill="#111111"/>
<use data-text="t" xlink:href="#font_5_87" transform="matrix(12,0,0,-12,168.048,69.75)" fill="#111111"/>
<use data-text="i" xlink:href="#font_5_76" transform="matrix(12,0,0,-12,171.384,69.75)" fill="#111111"/>
<use data-text="o" xlink:href="#font_5_82" transform="matrix(12,0,0,-12,174.048,69.75)" fill="#111111"/>
<use data-text="n" xlink:href="#font_5_81" transform="matrix(12,0,0,-12,180.72,69.75)" fill="#111111"/>
<use data-text="&#x003e;" xlink:href="#font_5_33" transform="matrix(12,0,0,-12,187.392,69.75)" fill="#111111"/>
</g>
<g clip-path="url(#clip_6)">
<use data-text="-" xlink:href="#font_5_16" transform="matrix(12,0,0,-12,21,87.75)" fill="#111111"/>
<use data-text="t" xlink:href="#font_5_87" transform="matrix(12,0,0,-12,24.996,87.75)" fill="#111111"/>
<use data-text="r" xlink:href="#font_5_85" transform="matrix(12,0,0,-12,28.332,87.75)" fill="#111111"/>
<use data-text="a" xlink:href="#font_5_68" transform="matrix(12,0,0,-12,32.328004,87.75)" fill="#111111"/>
<use data-text="n" xlink:href="#font_5_81" transform="matrix(12,0,0,-12,39,87.75)" fill="#111111"/>
<use data-text="s" xlink:href="#font_5_86" transform="matrix(12,0,0,-12,45.672006,87.75)" fill="#111111"/>
<use data-text="a" xlink:href="#font_5_68" transform="matrix(12,0,0,-12,51.672006,87.75)" fill="#111111"/>
<use data-text="c" xlink:href="#font_5_70" transform="matrix(12,0,0,-12,58.344,87.75)" fill="#111111"/>
<use data-text="t" xlink:href="#font_5_87" transform="matrix(12,0,0,-12,64.344,87.75)" fill="#111111"/>
<use data-text="i" xlink:href="#font_5_76" transform="matrix(12,0,0,-12,67.68001,87.75)" fill="#111111"/>
<use data-text="o" xlink:href="#font_5_82" transform="matrix(12,0,0,-12,70.34401,87.75)" fill="#111111"/>
<use data-text="n" xlink:href="#font_5_81" transform="matrix(12,0,0,-12,77.01601,87.75)" fill="#111111"/>
<use data-text="s" xlink:href="#font_5_86" transform="matrix(12,0,0,-12,83.68801,87.75)" fill="#111111"/>
<use data-text=":" xlink:href="#font_5_29" transform="matrix(12,0,0,-12,89.68801,87.75)" fill="#111111"/>
<use data-text=" " xlink:href="#font_5_3" transform="matrix(12,0,0,-12,93.02401,87.75)" fill="#111111"/>
<use data-text="m" xlink:href="#font_5_80" transform="matrix(12,0,0,-12,96.36001,87.75)" fill="#111111"/>
<use data-text="a" xlink:href="#font_5_68" transform="matrix(12,0,0,-12,106.35601,87.75)" fill="#111111"/>
<use data-text="p" xlink:href="#font_5_83" transform="matrix(12,0,0,-12,113.028018,87.75)" fill="#111111"/>
<use data-text="&#x003c;" xlink:href="#font_5_31" transform="matrix(12,0,0,-12,119.70001,87.75)" fill="#111111"/>
<use data-text="T" xlink:href="#font_5_55" transform="matrix(12,0,0,-12,126.70801,87.75)" fill="#111111"/>
<use data-text="I" xlink:href="#font_5_44" transform="matrix(12,0,0,-12,134.04001,87.75)" fill="#111111"/>
<use data-text="D" xlink:href="#font_5_39" transform="matrix(12,0,0,-12,137.376,87.75)" fill="#111111"/>
<use data-text="," xlink:href="#font_5_15" transform="matrix(12,0,0,-12,146.04001,87.75)" fill="#111111"/>
<use data-text=" " xlink:href="#font_5_3" transform="matrix(12,0,0,-12,149.376,87.75)" fill="#111111"/>
<use data-text="T" xlink:href="#font_5_55" transform="matrix(12,0,0,-12,152.4961,87.75)" fill="#111111"/>
<use data-text="r" xlink:href="#font_5_85" transform="matrix(12,0,0,-12,159.38086,87.75)" fill="#111111"/>
<use data-text="a" xlink:href="#font_5_68" transform="matrix(12,0,0,-12,163.37686,87.75)" fill="#111111"/>
<use data-text="n" xlink:href="#font_5_81" transform="matrix(12,0,0,-12,170.04886,87.75)" fill="#111111"/>
<use data-text="s" xlink:href="#font_5_86" transform="matrix(12,0,0,-12,176.72086,87.75)" fill="#111111"/>
<use data-text="a" xlink:href="#font_5_68" transform="matrix(12,0,0,-12,182.72086,87.75)" fill="#111111"/>
<use data-text="c" xlink:href="#font_5_70" transform="matrix(12,0,0,-12,189.39286,87.75)" fill="#111111"/>
<use data-text="t" xlink:href="#font_5_87" transform="matrix(12,0,0,-12,195.39286,87.75)" fill="#111111"/>
<use data-text="i" xlink:href="#font_5_76" transform="matrix(12,0,0,-12,198.72885,87.75)" fill="#111111"/>
<use data-text="o" xlink:href="#font_5_82" transform="matrix(12,0,0,-12,201.39286,87.75)" fill="#111111"/>
<use data-text="n" xlink:href="#font_5_81" transform="matrix(12,0,0,-12,208.06485,87.75)" fill="#111111"/>
<use data-text="&#x003e;" xlink:href="#font_5_33" transform="matrix(12,0,0,-12,214.73685,87.75)" fill="#111111"/>
</g>
<g clip-path="url(#clip_7)">
<use data-text="-" xlink:href="#font_5_16" transform="matrix(12,0,0,-12,21,105.75)" fill="#111111"/>
<use data-text="d" xlink:href="#font_5_71" transform="matrix(12,0,0,-12,24.996,105.75)" fill="#111111"/>
<use data-text="e" xlink:href="#font_5_72" transform="matrix(12,0,0,-12,31.668002,105.75)" fill="#111111"/>
<use data-text="a" xlink:href="#font_5_68" transform="matrix(12,0,0,-12,38.340005,105.75)" fill="#111111"/>
<use data-text="d" xlink:href="#font_5_71" transform="matrix(12,0,0,-12,45.012,105.75)" fill="#111111"/>
<use data-text="l" xlink:href="#font_5_79" transform="matrix(12,0,0,-12,51.684003,105.75)" fill="#111111"/>
<use data-text="o" xlink:href="#font_5_82" transform="matrix(12,0,0,-12,54.348005,105.75)" fill="#111111"/>
<use data-text="c" xlink:href="#font_5_70" transform="matrix(12,0,0,-12,61.020006,105.75)" fill="#111111"/>
<use data-text="k" xlink:href="#font_5_78" transform="matrix(12,0,0,-12,67.020008,105.75)" fill="#111111"/>
<use data-text="_" xlink:href="#font_5_66" transform="matrix(12,0,0,-12,73.020008,105.75)" fill="#111111"/>
<use data-text="d" xlink:href="#font_5_71" transform="matrix(12,0,0,-12,79.692,105.75)" fill="#111111"/>
<use data-text="e" xlink:href="#font_5_72" transform="matrix(12,0,0,-12,86.364009,105.75)" fill="#111111"/>
<use data-text="t" xlink:href="#font_5_87" transform="matrix(12,0,0,-12,93.03601,105.75)" fill="#111111"/>
<use data-text="e" xlink:href="#font_5_72" transform="matrix(12,0,0,-12,96.37201,105.75)" fill="#111111"/>
<use data-text="c" xlink:href="#font_5_70" transform="matrix(12,0,0,-12,103.04401,105.75)" fill="#111111"/>
<use data-text="t" xlink:href="#font_5_87" transform="matrix(12,0,0,-12,109.04401,105.75)" fill="#111111"/>
<use data-text="o" xlink:href="#font_5_82" transform="matrix(12,0,0,-12,112.380008,105.75)" fill="#111111"/>
<use data-text="r" xlink:href="#font_5_85" transform="matrix(12,0,0,-12,119.052,105.75)" fill="#111111"/>
<use data-text=":" xlink:href="#font_5_29" transform="matrix(12,0,0,-12,123.048007,105.75)" fill="#111111"/>
<use data-text=" " xlink:href="#font_5_3" transform="matrix(12,0,0,-12,126.384,105.75)" fill="#111111"/>
<use data-text="D" xlink:href="#font_5_39" transform="matrix(12,0,0,-12,129.72,105.75)" fill="#111111"/>
<use data-text="e" xlink:href="#font_5_72" transform="matrix(12,0,0,-12,138.384,105.75)" fill="#111111"/>
<use data-text="a" xlink:href="#font_5_68" transform="matrix(12,0,0,-12,145.056,105.75)" fill="#111111"/>
<use data-text="d" xlink:href="#font_5_71" transform="matrix(12,0,0,-12,151.728,105.75)" fill="#111111"/>
<use data-text="l" xlink:href="#font_5_79" transform="matrix(12,0,0,-12,158.4,105.75)" fill="#111111"/>
<use data-text="o" xlink:href="#font_5_82" transform="matrix(12,0,0,-12,161.064,105.75)" fill="#111111"/>
<use data-text="c" xlink:href="#font_5_70" transform="matrix(12,0,0,-12,167.736,105.75)" fill="#111111"/>
<use data-text="k" xlink:href="#font_5_78" transform="matrix(12,0,0,-12,173.736,105.75)" fill="#111111"/>
<use data-text="D" xlink:href="#font_5_39" transform="matrix(12,0,0,-12,179.736,105.75)" fill="#111111"/>
<use data-text="e" xlink:href="#font_5_72" transform="matrix(12,0,0,-12,188.4,105.75)" fill="#111111"/>
<use data-text="t" xlink:href="#font_5_87" transform="matrix(12,0,0,-12,195.07199,105.75)" fill="#111111"/>
<use data-text="e" xlink:href="#font_5_72" transform="matrix(12,0,0,-12,198.40799,105.75)" fill="#111111"/>
<use data-text="c" xlink:href="#font_5_70" transform="matrix(12,0,0,-12,205.07999,105.75)" fill="#111111"/>
<use data-text="t" xlink:href="#font_5_87" transform="matrix(12,0,0,-12,211.07999,105.75)" fill="#111111"/>
<use data-text="o" xlink:href="#font_5_82" transform="matrix(12,0,0,-12,214.416,105.75)" fill="#111111"/>
<use data-text="r" xlink:href="#font_5_85" transform="matrix(12,0,0,-12,221.088,105.75)" fill="#111111"/>
</g>
<g clip-path="url(#clip_8)">
<use data-text="-" xlink:href="#font_5_16" transform="matrix(12,0,0,-12,21,141.75)" fill="#111111"/>
<use data-text="o" xlink:href="#font_5_82" transform="matrix(12,0,0,-12,24.996,141.75)" fill="#111111"/>
<use data-text="n" xlink:href="#font_5_81" transform="matrix(12,0,0,-12,31.668002,141.75)" fill="#111111"/>
<use data-text="_" xlink:href="#font_5_66" transform="matrix(12,0,0,-12,38.340005,141.75)" fill="#111111"/>
<use data-text="c" xlink:href="#font_5_70" transform="matrix(12,0,0,-12,45.012,141.75)" fill="#111111"/>
<use data-text="o" xlink:href="#font_5_82" transform="matrix(12,0,0,-12,51.012,141.75)" fill="#111111"/>
<use data-text="n" xlink:href="#font_5_81" transform="matrix(12,0,0,-12,57.684003,141.75)" fill="#111111"/>
<use data-text="t" xlink:href="#font_5_87" transform="matrix(12,0,0,-12,64.356,141.75)" fill="#111111"/>
<use data-text="r" xlink:href="#font_5_85" transform="matrix(12,0,0,-12,67.692,141.75)" fill="#111111"/>
<use data-text="o" xlink:href="#font_5_82" transform="matrix(12,0,0,-12,71.688,141.75)" fill="#111111"/>
<use data-text="l" xlink:href="#font_5_79" transform="matrix(12,0,0,-12,78.36001,141.75)" fill="#111111"/>
<use data-text="(" xlink:href="#font_5_11" transform="matrix(12,0,0,-12,81.02401,141.75)" fill="#111111"/>
<use data-text="t" xlink:href="#font_5_87" transform="matrix(12,0,0,-12,85.02001,141.75)" fill="#111111"/>
<use data-text="i" xlink:href="#font_5_76" transform="matrix(12,0,0,-12,88.35601,141.75)" fill="#111111"/>
<use data-text="d" xlink:href="#font_5_71" transform="matrix(12,0,0,-12,91.02001,141.75)" fill="#111111"/>
<use data-text=":" xlink:href="#font_5_29" transform="matrix(12,0,0,-12,97.69202,141.75)" fill="#111111"/>
<use data-text=" " xlink:href="#font_5_3" transform="matrix(12,0,0,-12,101.028018,141.75)" fill="#111111"/>
<use data-text="T" xlink:href="#font_5_55" transform="matrix(12,0,0,-12,104.15625,141.75)" fill="#111111"/>
<use data-text="I" xlink:href="#font_5_44" transform="matrix(12,0,0,-12,111.48825,141.75)" fill="#111111"/>
<use data-text="D" xlink:href="#font_5_39" transform="matrix(12,0,0,-12,114.82425,141.75)" fill="#111111"/>
<use data-text="," xlink:href="#font_5_15" transform="matrix(12,0,0,-12,123.48825,141.75)" fill="#111111"/>
<use data-text=" " xlink:href="#font_5_3" transform="matrix(12,0,0,-12,126.82425,141.75)" fill="#111111"/>
<use data-text="s" xlink:href="#font_5_86" transform="matrix(12,0,0,-12,130.16025,141.75)" fill="#111111"/>
<use data-text="t" xlink:href="#font_5_87" transform="matrix(12,0,0,-12,136.16025,141.75)" fill="#111111"/>
<use data-text="a" xlink:href="#font_5_68" transform="matrix(12,0,0,-12,139.49625,141.75)" fill="#111111"/>
<use data-text="t" xlink:href="#font_5_87" transform="matrix(12,0,0,-12,146.16825,141.75)" fill="#111111"/>
<use data-text="u" xlink:href="#font_5_88" transform="matrix(12,0,0,-12,149.50424,141.75)" fill="#111111"/>
<use data-text="s" xlink:href="#font_5_86" transform="matrix(12,0,0,-12,156.17624,141.75)" fill="#111111"/>
<use data-text=":" xlink:href="#font_5_29" transform="matrix(12,0,0,-12,162.17624,141.75)" fill="#111111"/>
<use data-text=" " xlink:href="#font_5_3" transform="matrix(12,0,0,-12,165.51224,141.75)" fill="#111111"/>
<use data-text="S" xlink:href="#font_5_54" transform="matrix(12,0,0,-12,168.84824,141.75)" fill="#111111"/>
<use data-text="t" xlink:href="#font_5_87" transform="matrix(12,0,0,-12,176.85224,141.75)" fill="#111111"/>
<use data-text="a" xlink:href="#font_5_68" transform="matrix(12,0,0,-12,180.18824,141.75)" fill="#111111"/>
<use data-text="t" xlink:href="#font_5_87" transform="matrix(12,0,0,-12,186.86023,141.75)" fill="#111111"/>
<use data-text="u" xlink:href="#font_5_88" transform="matrix(12,0,0,-12,190.19623,141.75)" fill="#111111"/>
<use data-text="s" xlink:href="#font_5_86" transform="matrix(12,0,0,-12,196.86823,141.75)" fill="#111111"/>
<use data-text="C" xlink:href="#font_5_38" transform="matrix(12,0,0,-12,202.86823,141.75)" fill="#111111"/>
<use data-text="o" xlink:href="#font_5_82" transform="matrix(12,0,0,-12,211.53223,141.75)" fill="#111111"/>
<use data-text="d" xlink:href="#font_5_71" transform="matrix(12,0,0,-12,218.20423,141.75)" fill="#111111"/>
<use data-text="e" xlink:href="#font_5_72" transform="matrix(12,0,0,-12,224.87622,141.75)" fill="#111111"/>
<use data-text=")" xlink:href="#font_5_12" transform="matrix(12,0,0,-12,231.54822,141.75)" fill="#111111"/>
<use data-text=" " xlink:href="#font_5_3" transform="matrix(12,0,0,-12,235.54422,141.75)" fill="#111111"/>
<use data-text=":" xlink:href="#font_5_29" transform="matrix(12,0,0,-12,238.88022,141.75)" fill="#111111"/>
<use data-text=" " xlink:href="#font_5_3" transform="matrix(12,0,0,-12,242.21622,141.75)" fill="#111111"/>
<use data-text="u" xlink:href="#font_5_88" transform="matrix(12,0,0,-12,245.55222,141.75)" fill="#111111"/>
<use data-text="n" xlink:href="#font_5_81" transform="matrix(12,0,0,-12,252.22422,141.75)" fill="#111111"/>
<use data-text="i" xlink:href="#font_5_76" transform="matrix(12,0,0,-12,258.8962,141.75)" fill="#111111"/>
<use data-text="t" xlink:href="#font_5_87" transform="matrix(12,0,0,-12,261.5602,141.75)" fill="#111111"/>
</g>
<g clip-path="url(#clip_9)">
<use data-text="+" xlink:href="#font_5_14" transform="matrix(12,0,0,-12,21,159.75)" fill="#111111"/>
<use data-text="D" xlink:href="#font_5_39" transform="matrix(12,0,0,-12,28.008,159.75)" fill="#111111"/>
<use data-text="a" xlink:href="#font_5_68" transform="matrix(12,0,0,-12,36.672,159.75)" fill="#111111"/>
<use data-text="t" xlink:href="#font_5_87" transform="matrix(12,0,0,-12,43.344,159.75)" fill="#111111"/>
<use data-text="a" xlink:href="#font_5_68" transform="matrix(12,0,0,-12,46.680006,159.75)" fill="#111111"/>
<use data-text="b" xlink:href="#font_5_69" transform="matrix(12,0,0,-12,53.352006,159.75)" fill="#111111"/>
<use data-text="a" xlink:href="#font_5_68" transform="matrix(12,0,0,-12,60.024003,159.75)" fill="#111111"/>
<use data-text="s" xlink:href="#font_5_86" transform="matrix(12,0,0,-12,66.696,159.75)" fill="#111111"/>
<use data-text="e" xlink:href="#font_5_72" transform="matrix(12,0,0,-12,72.69601,159.75)" fill="#111111"/>
<use data-text="(" xlink:href="#font_5_11" transform="matrix(12,0,0,-12,79.36801,159.75)" fill="#111111"/>
<use data-text=")" xlink:href="#font_5_12" transform="matrix(12,0,0,-12,83.36401,159.75)" fill="#111111"/>
<use data-text=" " xlink:href="#font_5_3" transform="matrix(12,0,0,-12,87.360019,159.75)" fill="#111111"/>
<use data-text=":" xlink:href="#font_5_29" transform="matrix(12,0,0,-12,90.696018,159.75)" fill="#111111"/>
<use data-text=" " xlink:href="#font_5_3" transform="matrix(12,0,0,-12,94.03201,159.75)" fill="#111111"/>
<use data-text="D" xlink:href="#font_5_39" transform="matrix(12,0,0,-12,97.36801,159.75)" fill="#111111"/>
<use data-text="a" xlink:href="#font_5_68" transform="matrix(12,0,0,-12,106.03201,159.75)" fill="#111111"/>
<use data-text="t" xlink:href="#font_5_87" transform="matrix(12,0,0,-12,112.70401,159.75)" fill="#111111"/>
<use data-text="a" xlink:href="#font_5_68" transform="matrix(12,0,0,-12,116.04001,159.75)" fill="#111111"/>
<use data-text="b" xlink:href="#font_5_69" transform="matrix(12,0,0,-12,122.712009,159.75)" fill="#111111"/>
<use data-text="a" xlink:href="#font_5_68" transform="matrix(12,0,0,-12,129.384,159.75)" fill="#111111"/>
<use data-text="s" xlink:href="#font_5_86" transform="matrix(12,0,0,-12,136.056,159.75)" fill="#111111"/>
<use data-text="e" xlink:href="#font_5_72" transform="matrix(12,0,0,-12,142.056,159.75)" fill="#111111"/>
</g>
<g clip-path="url(#clip_10)">
<use data-text="+" xlink:href="#font_5_14" transform="matrix(12,0,0,-12,21,177.75)" fill="#111111"/>
<use data-text="b" xlink:href="#font_5_69" transform="matrix(12,0,0,-12,28.008,177.75)" fill="#111111"/>
<use data-text="e" xlink:href="#font_5_72" transform="matrix(12,0,0,-12,34.68,177.75)" fill="#111111"/>
<use data-text="g" xlink:href="#font_5_74" transform="matrix(12,0,0,-12,41.352,177.75)" fill="#111111"/>
<use data-text="i" xlink:href="#font_5_76" transform="matrix(12,0,0,-12,48.024003,177.75)" fill="#111111"/>
<use data-text="n" xlink:href="#font_5_81" transform="matrix(12,0,0,-12,50.688005,177.75)" fill="#111111"/>
<use data-text="_" xlink:href="#font_5_66" transform="matrix(12,0,0,-12,57.36,177.75)" fill="#111111"/>
<use data-text="t" xlink:href="#font_5_87" transform="matrix(12,0,0,-12,64.032,177.75)" fill="#111111"/>
<use data-text="r" xlink:href="#font_5_85" transform="matrix(12,0,0,-12,67.368007,177.75)" fill="#111111"/>
<use data-text="a" xlink:href="#font_5_68" transform="matrix(12,0,0,-12,71.364009,177.75)" fill="#111111"/>
<use data-text="n" xlink:href="#font_5_81" transform="matrix(12,0,0,-12,78.03601,177.75)" fill="#111111"/>
<use data-text="s" xlink:href="#font_5_86" transform="matrix(12,0,0,-12,84.70801,177.75)" fill="#111111"/>
<use data-text="a" xlink:href="#font_5_68" transform="matrix(12,0,0,-12,90.70801,177.75)" fill="#111111"/>
<use data-text="c" xlink:href="#font_5_70" transform="matrix(12,0,0,-12,97.38001,177.75)" fill="#111111"/>
<use data-text="t" xlink:href="#font_5_87" transform="matrix(12,0,0,-12,103.38001,177.75)" fill="#111111"/>
<use data-text="i" xlink:href="#font_5_76" transform="matrix(12,0,0,-12,106.71601,177.75)" fill="#111111"/>
<use data-text="o" xlink:href="#font_5_82" transform="matrix(12,0,0,-12,109.38001,177.75)" fill="#111111"/>
<use data-text="n" xlink:href="#font_5_81" transform="matrix(12,0,0,-12,116.05202,177.75)" fill="#111111"/>
<use data-text="(" xlink:href="#font_5_11" transform="matrix(12,0,0,-12,122.724018,177.75)" fill="#111111"/>
<use data-text="t" xlink:href="#font_5_87" transform="matrix(12,0,0,-12,126.72002,177.75)" fill="#111111"/>
<use data-text="i" xlink:href="#font_5_76" transform="matrix(12,0,0,-12,130.05602,177.75)" fill="#111111"/>
<use data-text="d" xlink:href="#font_5_71" transform="matrix(12,0,0,-12,132.72002,177.75)" fill="#111111"/>
<use data-text=":" xlink:href="#font_5_29" transform="matrix(12,0,0,-12,139.39202,177.75)" fill="#111111"/>
<use data-text=" " xlink:href="#font_5_3" transform="matrix(12,0,0,-12,142.72801,177.75)" fill="#111111"/>
<use data-text="T" xlink:href="#font_5_55" transform="matrix(12,0,0,-12,145.86328,177.75)" fill="#111111"/>
<use data-text="I" xlink:href="#font_5_44" transform="matrix(12,0,0,-12,153.19528,177.75)" fill="#111111"/>
<use data-text="D" xlink:href="#font_5_39" transform="matrix(12,0,0,-12,156.53128,177.75)" fill="#111111"/>
<use data-text=")" xlink:href="#font_5_12" transform="matrix(12,0,0,-12,165.19528,177.75)" fill="#111111"/>
<use data-text=" " xlink:href="#font_5_3" transform="matrix(12,0,0,-12,169.19129,177.75)" fill="#111111"/>
<use data-text=":" xlink:href="#font_5_29" transform="matrix(12,0,0,-12,172.52729,177.75)" fill="#111111"/>
<use data-text=" " xlink:href="#font_5_3" transform="matrix(12,0,0,-12,175.86328,177.75)" fill="#111111"/>
<use data-text="b" xlink:href="#font_5_69" transform="matrix(12,0,0,-12,179.19928,177.75)" fill="#111111"/>
<use data-text="o" xlink:href="#font_5_82" transform="matrix(12,0,0,-12,185.87128,177.75)" fill="#111111"/>
<use data-text="o" xlink:href="#font_5_82" transform="matrix(12,0,0,-12,192.54328,177.75)" fill="#111111"/>
<use data-text="l" xlink:href="#font_5_79" transform="matrix(12,0,0,-12,199.21527,177.75)" fill="#111111"/>
</g>
<g clip-path="url(#clip_11)">
<use data-text="+" xlink:href="#font_5_14" transform="matrix(12,0,0,-12,21,195.75)" fill="#111111"/>
<use data-text="r" xlink:href="#font_5_85" transform="matrix(12,0,0,-12,28.008,195.75)" fill="#111111"/>
<use data-text="e" xlink:href="#font_5_72" transform="matrix(12,0,0,-12,32.004,195.75)" fill="#111111"/>
<use data-text="s" xlink:href="#font_5_86" transform="matrix(12,0,0,-12,38.676004,195.75)" fill="#111111"/>
<use data-text="u" xlink:href="#font_5_88" transform="matrix(12,0,0,-12,44.676004,195.75)" fill="#111111"/>
<use data-text="m" xlink:href="#font_5_80" transform="matrix(12,0,0,-12,51.348,195.75)" fill="#111111"/>
<use data-text="e" xlink:href="#font_5_72" transform="matrix(12,0,0,-12,61.344,195.75)" fill="#111111"/>
<use data-text="_" xlink:href="#font_5_66" transform="matrix(12,0,0,-12,68.016,195.75)" fill="#111111"/>
<use data-text="t" xlink:href="#font_5_87" transform="matrix(12,0,0,-12,74.688,195.75)" fill="#111111"/>
<use data-text="r" xlink:href="#font_5_85" transform="matrix(12,0,0,-12,78.024,195.75)" fill="#111111"/>
<use data-text="a" xlink:href="#font_5_68" transform="matrix(12,0,0,-12,82.020008,195.75)" fill="#111111"/>
<use data-text="n" xlink:href="#font_5_81" transform="matrix(12,0,0,-12,88.692,195.75)" fill="#111111"/>
<use data-text="s" xlink:href="#font_5_86" transform="matrix(12,0,0,-12,95.364009,195.75)" fill="#111111"/>
<use data-text="a" xlink:href="#font_5_68" transform="matrix(12,0,0,-12,101.364009,195.75)" fill="#111111"/>
<use data-text="c" xlink:href="#font_5_70" transform="matrix(12,0,0,-12,108.03601,195.75)" fill="#111111"/>
<use data-text="t" xlink:href="#font_5_87" transform="matrix(12,0,0,-12,114.03601,195.75)" fill="#111111"/>
<use data-text="i" xlink:href="#font_5_76" transform="matrix(12,0,0,-12,117.37201,195.75)" fill="#111111"/>
<use data-text="o" xlink:href="#font_5_82" transform="matrix(12,0,0,-12,120.03601,195.75)" fill="#111111"/>
<use data-text="n" xlink:href="#font_5_81" transform="matrix(12,0,0,-12,126.70801,195.75)" fill="#111111"/>
<use data-text="(" xlink:href="#font_5_11" transform="matrix(12,0,0,-12,133.38,195.75)" fill="#111111"/>
<use data-text="t" xlink:href="#font_5_87" transform="matrix(12,0,0,-12,137.376,195.75)" fill="#111111"/>
<use data-text="i" xlink:href="#font_5_76" transform="matrix(12,0,0,-12,140.712,195.75)" fill="#111111"/>
<use data-text="d" xlink:href="#font_5_71" transform="matrix(12,0,0,-12,143.376,195.75)" fill="#111111"/>
<use data-text=":" xlink:href="#font_5_29" transform="matrix(12,0,0,-12,150.048,195.75)" fill="#111111"/>
<use data-text=" " xlink:href="#font_5_3" transform="matrix(12,0,0,-12,153.384,195.75)" fill="#111111"/>
<use data-text="T" xlink:href="#font_5_55" transform="matrix(12,0,0,-12,156.51563,195.75)" fill="#111111"/>
<use data-text="I" xlink:href="#font_5_44" transform="matrix(12,0,0,-12,163.84763,195.75)" fill="#111111"/>
<use data-text="D" xlink:href="#font_5_39" transform="matrix(12,0,0,-12,167.18363,195.75)" fill="#111111"/>
<use data-text=")" xlink:href="#font_5_12" transform="matrix(12,0,0,-12,175.84763,195.75)" fill="#111111"/>
<use data-text=" " xlink:href="#font_5_3" transform="matrix(12,0,0,-12,179.84363,195.75)" fill="#111111"/>
<use data-text=":" xlink:href="#font_5_29" transform="matrix(12,0,0,-12,183.17963,195.75)" fill="#111111"/>
<use data-text=" " xlink:href="#font_5_3" transform="matrix(12,0,0,-12,186.51563,195.75)" fill="#111111"/>
<use data-text="b" xlink:href="#font_5_69" transform="matrix(12,0,0,-12,189.85163,195.75)" fill="#111111"/>
<use data-text="o" xlink:href="#font_5_82" transform="matrix(12,0,0,-12,196.52362,195.75)" fill="#111111"/>
<use data-text="o" xlink:href="#font_5_82" transform="matrix(12,0,0,-12,203.19562,195.75)" fill="#111111"/>
<use data-text="l" xlink:href="#font_5_79" transform="matrix(12,0,0,-12,209.86762,195.75)" fill="#111111"/>
</g>
<g clip-path="url(#clip_12)">
<use data-text="+" xlink:href="#font_5_14" transform="matrix(12,0,0,-12,21,213.75)" fill="#111111"/>
<use data-text="c" xlink:href="#font_5_70" transform="matrix(12,0,0,-12,28.008,213.75)" fill="#111111"/>
<use data-text="o" xlink:href="#font_5_82" transform="matrix(12,0,0,-12,34.008005,213.75)" fill="#111111"/>
<use data-text="m" xlink:href="#font_5_80" transform="matrix(12,0,0,-12,40.68,213.75)" fill="#111111"/>
<use data-text="m" xlink:href="#font_5_80" transform="matrix(12,0,0,-12,50.676004,213.75)" fill="#111111"/>
<use data-text="i" xlink:href="#font_5_76" transform="matrix(12,0,0,-12,60.672006,213.75)" fill="#111111"/>
<use data-text="t" xlink:href="#font_5_87" transform="matrix(12,0,0,-12,63.336008,213.75)" fill="#111111"/>
<use data-text="_" xlink:href="#font_5_66" transform="matrix(12,0,0,-12,66.672008,213.75)" fill="#111111"/>
<use data-text="t" xlink:href="#font_5_87" transform="matrix(12,0,0,-12,73.34401,213.75)" fill="#111111"/>
<use data-text="r" xlink:href="#font_5_85" transform="matrix(12,0,0,-12,76.68001,213.75)" fill="#111111"/>
<use data-text="a" xlink:href="#font_5_68" transform="matrix(12,0,0,-12,80.67601,213.75)" fill="#111111"/>
<use data-text="n" xlink:href="#font_5_81" transform="matrix(12,0,0,-12,87.34801,213.75)" fill="#111111"/>
<use data-text="s" xlink:href="#font_5_86" transform="matrix(12,0,0,-12,94.02001,213.75)" fill="#111111"/>
<use data-text="a" xlink:href="#font_5_68" transform="matrix(12,0,0,-12,100.02001,213.75)" fill="#111111"/>
<use data-text="c" xlink:href="#font_5_70" transform="matrix(12,0,0,-12,106.69202,213.75)" fill="#111111"/>
<use data-text="t" xlink:href="#font_5_87" transform="matrix(12,0,0,-12,112.69202,213.75)" fill="#111111"/>
<use data-text="i" xlink:href="#font_5_76" transform="matrix(12,0,0,-12,116.028018,213.75)" fill="#111111"/>
<use data-text="o" xlink:href="#font_5_82" transform="matrix(12,0,0,-12,118.69201,213.75)" fill="#111111"/>
<use data-text="n" xlink:href="#font_5_81" transform="matrix(12,0,0,-12,125.364009,213.75)" fill="#111111"/>
<use data-text="(" xlink:href="#font_5_11" transform="matrix(12,0,0,-12,132.03601,213.75)" fill="#111111"/>
<use data-text="t" xlink:href="#font_5_87" transform="matrix(12,0,0,-12,136.03202,213.75)" fill="#111111"/>
<use data-text="i" xlink:href="#font_5_76" transform="matrix(12,0,0,-12,139.36801,213.75)" fill="#111111"/>
<use data-text="d" xlink:href="#font_5_71" transform="matrix(12,0,0,-12,142.03202,213.75)" fill="#111111"/>
<use data-text=":" xlink:href="#font_5_29" transform="matrix(12,0,0,-12,148.70401,213.75)" fill="#111111"/>
<use data-text=" " xlink:href="#font_5_3" transform="matrix(12,0,0,-12,152.04001,213.75)" fill="#111111"/>
<use data-text="T" xlink:href="#font_5_55" transform="matrix(12,0,0,-12,155.16797,213.75)" fill="#111111"/>
<use data-text="I" xlink:href="#font_5_44" transform="matrix(12,0,0,-12,162.49997,213.75)" fill="#111111"/>
<use data-text="D" xlink:href="#font_5_39" transform="matrix(12,0,0,-12,165.83597,213.75)" fill="#111111"/>
<use data-text=")" xlink:href="#font_5_12" transform="matrix(12,0,0,-12,174.49997,213.75)" fill="#111111"/>
<use data-text=" " xlink:href="#font_5_3" transform="matrix(12,0,0,-12,178.49597,213.75)" fill="#111111"/>
<use data-text=":" xlink:href="#font_5_29" transform="matrix(12,0,0,-12,181.83197,213.75)" fill="#111111"/>
<use data-text=" " xlink:href="#font_5_3" transform="matrix(12,0,0,-12,185.16797,213.75)" fill="#111111"/>
<use data-text="b" xlink:href="#font_5_69" transform="matrix(12,0,0,-12,188.50397,213.75)" fill="#111111"/>
<use data-text="o" xlink:href="#font_5_82" transform="matrix(12,0,0,-12,195.17597,213.75)" fill="#111111"/>
<use data-text="o" xlink:href="#font_5_82" transform="matrix(12,0,0,-12,201.84796,213.75)" fill="#111111"/>
<use data-text="l" xlink:href="#font_5_79" transform="matrix(12,0,0,-12,208.51996,213.75)" fill="#111111"/>
</g>
<g clip-path="url(#clip_13)">
<use data-text="+" xlink:href="#font_5_14" transform="matrix(12,0,0,-12,21,231.75)" fill="#111111"/>
<use data-text="r" xlink:href="#font_5_85" transform="matrix(12,0,0,-12,28.008,231.75)" fill="#111111"/>
<use data-text="o" xlink:href="#font_5_82" transform="matrix(12,0,0,-12,32.004,231.75)" fill="#111111"/>
<use data-text="l" xlink:href="#font_5_79" transform="matrix(12,0,0,-12,38.676004,231.75)" fill="#111111"/>
<use data-text="l" xlink:href="#font_5_79" transform="matrix(12,0,0,-12,41.34,231.75)" fill="#111111"/>
<use data-text="b" xlink:href="#font_5_69" transform="matrix(12,0,0,-12,44.004,231.75)" fill="#111111"/>
<use data-text="a" xlink:href="#font_5_68" transform="matrix(12,0,0,-12,50.676004,231.75)" fill="#111111"/>
<use data-text="c" xlink:href="#font_5_70" transform="matrix(12,0,0,-12,57.348,231.75)" fill="#111111"/>
<use data-text="k" xlink:href="#font_5_78" transform="matrix(12,0,0,-12,63.348,231.75)" fill="#111111"/>
<use data-text="_" xlink:href="#font_5_66" transform="matrix(12,0,0,-12,69.34801,231.75)" fill="#111111"/>
<use data-text="t" xlink:href="#font_5_87" transform="matrix(12,0,0,-12,76.020008,231.75)" fill="#111111"/>
<use data-text="r" xlink:href="#font_5_85" transform="matrix(12,0,0,-12,79.356,231.75)" fill="#111111"/>
<use data-text="a" xlink:href="#font_5_68" transform="matrix(12,0,0,-12,83.352008,231.75)" fill="#111111"/>
<use data-text="n" xlink:href="#font_5_81" transform="matrix(12,0,0,-12,90.02401,231.75)" fill="#111111"/>
<use data-text="s" xlink:href="#font_5_86" transform="matrix(12,0,0,-12,96.696018,231.75)" fill="#111111"/>
<use data-text="a" xlink:href="#font_5_68" transform="matrix(12,0,0,-12,102.696018,231.75)" fill="#111111"/>
<use data-text="c" xlink:href="#font_5_70" transform="matrix(12,0,0,-12,109.36801,231.75)" fill="#111111"/>
<use data-text="t" xlink:href="#font_5_87" transform="matrix(12,0,0,-12,115.36801,231.75)" fill="#111111"/>
<use data-text="i" xlink:href="#font_5_76" transform="matrix(12,0,0,-12,118.70401,231.75)" fill="#111111"/>
<use data-text="o" xlink:href="#font_5_82" transform="matrix(12,0,0,-12,121.36801,231.75)" fill="#111111"/>
<use data-text="n" xlink:href="#font_5_81" transform="matrix(12,0,0,-12,128.04001,231.75)" fill="#111111"/>
<use data-text="(" xlink:href="#font_5_11" transform="matrix(12,0,0,-12,134.712,231.75)" fill="#111111"/>
<use data-text="t" xlink:href="#font_5_87" transform="matrix(12,0,0,-12,138.70801,231.75)" fill="#111111"/>
<use data-text="i" xlink:href="#font_5_76" transform="matrix(12,0,0,-12,142.044,231.75)" fill="#111111"/>
<use data-text="d" xlink:href="#font_5_71" transform="matrix(12,0,0,-12,144.70801,231.75)" fill="#111111"/>
<use data-text=":" xlink:href="#font_5_29" transform="matrix(12,0,0,-12,151.38,231.75)" fill="#111111"/>
<use data-text=" " xlink:href="#font_5_3" transform="matrix(12,0,0,-12,154.716,231.75)" fill="#111111"/>
<use data-text="T" xlink:href="#font_5_55" transform="matrix(12,0,0,-12,157.85157,231.75)" fill="#111111"/>
<use data-text="I" xlink:href="#font_5_44" transform="matrix(12,0,0,-12,165.18357,231.75)" fill="#111111"/>
<use data-text="D" xlink:href="#font_5_39" transform="matrix(12,0,0,-12,168.51956,231.75)" fill="#111111"/>
<use data-text=")" xlink:href="#font_5_12" transform="matrix(12,0,0,-12,177.18357,231.75)" fill="#111111"/>
<use data-text=" " xlink:href="#font_5_3" transform="matrix(12,0,0,-12,181.17957,231.75)" fill="#111111"/>
<use data-text=":" xlink:href="#font_5_29" transform="matrix(12,0,0,-12,184.51557,231.75)" fill="#111111"/>
<use data-text=" " xlink:href="#font_5_3" transform="matrix(12,0,0,-12,187.85157,231.75)" fill="#111111"/>
<use data-text="b" xlink:href="#font_5_69" transform="matrix(12,0,0,-12,191.18756,231.75)" fill="#111111"/>
<use data-text="o" xlink:href="#font_5_82" transform="matrix(12,0,0,-12,197.85956,231.75)" fill="#111111"/>
<use data-text="o" xlink:href="#font_5_82" transform="matrix(12,0,0,-12,204.53156,231.75)" fill="#111111"/>
<use data-text="l" xlink:href="#font_5_79" transform="matrix(12,0,0,-12,211.20355,231.75)" fill="#111111"/>
</g>
<g clip-path="url(#clip_14)">
<use data-text="+" xlink:href="#font_5_14" transform="matrix(12,0,0,-12,21,249.75)" fill="#111111"/>
<use data-text="a" xlink:href="#font_5_68" transform="matrix(12,0,0,-12,28.008,249.75)" fill="#111111"/>
<use data-text="d" xlink:href="#font_5_71" transform="matrix(12,0,0,-12,34.68,249.75)" fill="#111111"/>
<use data-text="d" xlink:href="#font_5_71" transform="matrix(12,0,0,-12,41.352,249.75)" fill="#111111"/>
<use data-text="_" xlink:href="#font_5_66" transform="matrix(12,0,0,-12,48.024003,249.75)" fill="#111111"/>
<use data-text="d" xlink:href="#font_5_71" transform="matrix(12,0,0,-12,54.696,249.75)" fill="#111111"/>
<use data-text="a" xlink:href="#font_5_68" transform="matrix(12,0,0,-12,61.368,249.75)" fill="#111111"/>
<use data-text="t" xlink:href="#font_5_87" transform="matrix(12,0,0,-12,68.04,249.75)" fill="#111111"/>
<use data-text="a" xlink:href="#font_5_68" transform="matrix(12,0,0,-12,71.376,249.75)" fill="#111111"/>
<use data-text="(" xlink:href="#font_5_11" transform="matrix(12,0,0,-12,78.048007,249.75)" fill="#111111"/>
<use data-text="t" xlink:href="#font_5_87" transform="matrix(12,0,0,-12,82.04401,249.75)" fill="#111111"/>
<use data-text="i" xlink:href="#font_5_76" transform="matrix(12,0,0,-12,85.380008,249.75)" fill="#111111"/>
<use data-text="d" xlink:href="#font_5_71" transform="matrix(12,0,0,-12,88.04401,249.75)" fill="#111111"/>
<use data-text=":" xlink:href="#font_5_29" transform="matrix(12,0,0,-12,94.716,249.75)" fill="#111111"/>
<use data-text=" " xlink:href="#font_5_3" transform="matrix(12,0,0,-12,98.052,249.75)" fill="#111111"/>
<use data-text="T" xlink:href="#font_5_55" transform="matrix(12,0,0,-12,101.17969,249.75)" fill="#111111"/>
<use data-text="I" xlink:href="#font_5_44" transform="matrix(12,0,0,-12,108.51169,249.75)" fill="#111111"/>
<use data-text="D" xlink:href="#font_5_39" transform="matrix(12,0,0,-12,111.84769,249.75)" fill="#111111"/>
<use data-text="," xlink:href="#font_5_15" transform="matrix(12,0,0,-12,120.51169,249.75)" fill="#111111"/>
<use data-text=" " xlink:href="#font_5_3" transform="matrix(12,0,0,-12,123.84769,249.75)" fill="#111111"/>
<use data-text="r" xlink:href="#font_5_85" transform="matrix(12,0,0,-12,127.183689,249.75)" fill="#111111"/>
<use data-text="e" xlink:href="#font_5_72" transform="matrix(12,0,0,-12,131.17969,249.75)" fill="#111111"/>
<use data-text="l" xlink:href="#font_5_79" transform="matrix(12,0,0,-12,137.85169,249.75)" fill="#111111"/>
<use data-text="_" xlink:href="#font_5_66" transform="matrix(12,0,0,-12,140.51569,249.75)" fill="#111111"/>
<use data-text="n" xlink:href="#font_5_81" transform="matrix(12,0,0,-12,147.18769,249.75)" fill="#111111"/>
<use data-text="a" xlink:href="#font_5_68" transform="matrix(12,0,0,-12,153.85968,249.75)" fill="#111111"/>
<use data-text="m" xlink:href="#font_5_80" transform="matrix(12,0,0,-12,160.53168,249.75)" fill="#111111"/>
<use data-text="e" xlink:href="#font_5_72" transform="matrix(12,0,0,-12,170.52768,249.75)" fill="#111111"/>
<use data-text=":" xlink:href="#font_5_29" transform="matrix(12,0,0,-12,177.19968,249.75)" fill="#111111"/>
<use data-text=" " xlink:href="#font_5_3" transform="matrix(12,0,0,-12,180.53568,249.75)" fill="#111111"/>
<use data-text="R" xlink:href="#font_5_53" transform="matrix(12,0,0,-12,183.87168,249.75)" fill="#111111"/>
<use data-text="e" xlink:href="#font_5_72" transform="matrix(12,0,0,-12,192.53568,249.75)" fill="#111111"/>
<use data-text="l" xlink:href="#font_5_79" transform="matrix(12,0,0,-12,199.20767,249.75)" fill="#111111"/>
<use data-text="N" xlink:href="#font_5_49" transform="matrix(12,0,0,-12,201.87168,249.75)" fill="#111111"/>
<use data-text="a" xlink:href="#font_5_68" transform="matrix(12,0,0,-12,210.53568,249.75)" fill="#111111"/>
<use data-text="m" xlink:href="#font_5_80" transform="matrix(12,0,0,-12,217.20767,249.75)" fill="#111111"/>
<use data-text="e" xlink:href="#font_5_72" transform="matrix(12,0,0,-12,227.20368,249.75)" fill="#111111"/>
<use data-text="," xlink:href="#font_5_15" transform="matrix(12,0,0,-12,233.87567,249.75)" fill="#111111"/>
<use data-text=" " xlink:href="#font_5_3" transform="matrix(12,0,0,-12,237.21167,249.75)" fill="#111111"/>
<use data-text="c" xlink:href="#font_5_70" transform="matrix(12,0,0,-12,240.54767,249.75)" fill="#111111"/>
<use data-text="s" xlink:href="#font_5_86" transform="matrix(12,0,0,-12,246.54767,249.75)" fill="#111111"/>
<use data-text="v" xlink:href="#font_5_89" transform="matrix(12,0,0,-12,252.54767,249.75)" fill="#111111"/>
<use data-text="_" xlink:href="#font_5_66" transform="matrix(12,0,0,-12,258.54768,249.75)" fill="#111111"/>
<use data-text="f" xlink:href="#font_5_73" transform="matrix(12,0,0,-12,265.21968,249.75)" fill="#111111"/>
<use data-text="i" xlink:href="#font_5_76" transform="matrix(12,0,0,-12,268.55567,249.75)" fill="#111111"/>
<use data-text="l" xlink:href="#font_5_79" transform="matrix(12,0,0,-12,271.21968,249.75)" fill="#111111"/>
<use data-text="e" xlink:href="#font_5_72" transform="matrix(12,0,0,-12,273.88368,249.75)" fill="#111111"/>
<use data-text=":" xlink:href="#font_5_29" transform="matrix(12,0,0,-12,280.55567,249.75)" fill="#111111"/>
<use data-text=" " xlink:href="#font_5_3" transform="matrix(12,0,0,-12,283.89167,249.75)" fill="#111111"/>
<use data-text="s" xlink:href="#font_5_86" transform="matrix(12,0,0,-12,287.22767,249.75)" fill="#111111"/>
<use data-text="t" xlink:href="#font_5_87" transform="matrix(12,0,0,-12,293.22767,249.75)" fill="#111111"/>
<use data-text="r" xlink:href="#font_5_85" transform="matrix(12,0,0,-12,296.56367,249.75)" fill="#111111"/>
<use data-text="i" xlink:href="#font_5_76" transform="matrix(12,0,0,-12,300.55967,249.75)" fill="#111111"/>
<use data-text="n" xlink:href="#font_5_81" transform="matrix(12,0,0,-12,303.22367,249.75)" fill="#111111"/>
<use data-text="g" xlink:href="#font_5_74" transform="matrix(12,0,0,-12,309.89567,249.75)" fill="#111111"/>
<use data-text=")" xlink:href="#font_5_12" transform="matrix(12,0,0,-12,316.56767,249.75)" fill="#111111"/>
<use data-text=" " xlink:href="#font_5_3" transform="matrix(12,0,0,-12,320.56367,249.75)" fill="#111111"/>
<use data-text=":" xlink:href="#font_5_29" transform="matrix(12,0,0,-12,323.89967,249.75)" fill="#111111"/>
<use data-text=" " xlink:href="#font_5_3" transform="matrix(12,0,0,-12,327.23567,249.75)" fill="#111111"/>
<use data-text="b" xlink:href="#font_5_69" transform="matrix(12,0,0,-12,330.57167,249.75)" fill="#111111"/>
<use data-text="o" xlink:href="#font_5_82" transform="matrix(12,0,0,-12,337.24366,249.75)" fill="#111111"/>
<use data-text="o" xlink:href="#font_5_82" transform="matrix(12,0,0,-12,343.91566,249.75)" fill="#111111"/>
<use data-text="l" xlink:href="#font_5_79" transform="matrix(12,0,0,-12,350.58766,249.75)" fill="#111111"/>
</g>
<g clip-path="url(#clip_15)">
<use data-text="+" xlink:href="#font_5_14" transform="matrix(12,0,0,-12,21,267.75)" fill="#111111"/>
<use data-text="d" xlink:href="#font_5_71" transform="matrix(12,0,0,-12,28.008,267.75)" fill="#111111"/>
<use data-text="e" xlink:href="#font_5_72" transform="matrix(12,0,0,-12,34.68,267.75)" fill="#111111"/>
<use data-text="l" xlink:href="#font_5_79" transform="matrix(12,0,0,-12,41.352,267.75)" fill="#111111"/>
<use data-text="e" xlink:href="#font_5_72" transform="matrix(12,0,0,-12,44.016,267.75)" fill="#111111"/>
<use data-text="t" xlink:href="#font_5_87" transform="matrix(12,0,0,-12,50.688005,267.75)" fill="#111111"/>
<use data-text="e" xlink:href="#font_5_72" transform="matrix(12,0,0,-12,54.024003,267.75)" fill="#111111"/>
<use data-text="_" xlink:href="#font_5_66" transform="matrix(12,0,0,-12,60.696004,267.75)" fill="#111111"/>
<use data-text="d" xlink:href="#font_5_71" transform="matrix(12,0,0,-12,67.368007,267.75)" fill="#111111"/>
<use data-text="a" xlink:href="#font_5_68" transform="matrix(12,0,0,-12,74.04001,267.75)" fill="#111111"/>
<use data-text="t" xlink:href="#font_5_87" transform="matrix(12,0,0,-12,80.712009,267.75)" fill="#111111"/>
<use data-text="a" xlink:href="#font_5_68" transform="matrix(12,0,0,-12,84.048007,267.75)" fill="#111111"/>
<use data-text="(" xlink:href="#font_5_11" transform="matrix(12,0,0,-12,90.72001,267.75)" fill="#111111"/>
<use data-text="t" xlink:href="#font_5_87" transform="matrix(12,0,0,-12,94.71601,267.75)" fill="#111111"/>
<use data-text="i" xlink:href="#font_5_76" transform="matrix(12,0,0,-12,98.05201,267.75)" fill="#111111"/>
<use data-text="d" xlink:href="#font_5_71" transform="matrix(12,0,0,-12,100.71601,267.75)" fill="#111111"/>
<use data-text=":" xlink:href="#font_5_29" transform="matrix(12,0,0,-12,107.388019,267.75)" fill="#111111"/>
<use data-text=" " xlink:href="#font_5_3" transform="matrix(12,0,0,-12,110.724018,267.75)" fill="#111111"/>
<use data-text="T" xlink:href="#font_5_55" transform="matrix(12,0,0,-12,113.853519,267.75)" fill="#111111"/>
<use data-text="I" xlink:href="#font_5_44" transform="matrix(12,0,0,-12,121.18552,267.75)" fill="#111111"/>
<use data-text="D" xlink:href="#font_5_39" transform="matrix(12,0,0,-12,124.521518,267.75)" fill="#111111"/>
<use data-text="," xlink:href="#font_5_15" transform="matrix(12,0,0,-12,133.18552,267.75)" fill="#111111"/>
<use data-text=" " xlink:href="#font_5_3" transform="matrix(12,0,0,-12,136.52152,267.75)" fill="#111111"/>
<use data-text="r" xlink:href="#font_5_85" transform="matrix(12,0,0,-12,139.85752,267.75)" fill="#111111"/>
<use data-text="e" xlink:href="#font_5_72" transform="matrix(12,0,0,-12,143.85352,267.75)" fill="#111111"/>
<use data-text="l" xlink:href="#font_5_79" transform="matrix(12,0,0,-12,150.52552,267.75)" fill="#111111"/>
<use data-text="_" xlink:href="#font_5_66" transform="matrix(12,0,0,-12,153.18952,267.75)" fill="#111111"/>
<use data-text="n" xlink:href="#font_5_81" transform="matrix(12,0,0,-12,159.86151,267.75)" fill="#111111"/>
<use data-text="a" xlink:href="#font_5_68" transform="matrix(12,0,0,-12,166.53351,267.75)" fill="#111111"/>
<use data-text="m" xlink:href="#font_5_80" transform="matrix(12,0,0,-12,173.2055,267.75)" fill="#111111"/>
<use data-text="e" xlink:href="#font_5_72" transform="matrix(12,0,0,-12,183.2015,267.75)" fill="#111111"/>
<use data-text=":" xlink:href="#font_5_29" transform="matrix(12,0,0,-12,189.8735,267.75)" fill="#111111"/>
<use data-text=" " xlink:href="#font_5_3" transform="matrix(12,0,0,-12,193.2095,267.75)" fill="#111111"/>
<use data-text="R" xlink:href="#font_5_53" transform="matrix(12,0,0,-12,196.5455,267.75)" fill="#111111"/>
<use data-text="e" xlink:href="#font_5_72" transform="matrix(12,0,0,-12,205.2095,267.75)" fill="#111111"/>
<use data-text="l" xlink:href="#font_5_79" transform="matrix(12,0,0,-12,211.8815,267.75)" fill="#111111"/>
<use data-text="N" xlink:href="#font_5_49" transform="matrix(12,0,0,-12,214.5455,267.75)" fill="#111111"/>
<use data-text="a" xlink:href="#font_5_68" transform="matrix(12,0,0,-12,223.2095,267.75)" fill="#111111"/>
<use data-text="m" xlink:href="#font_5_80" transform="matrix(12,0,0,-12,229.8815,267.75)" fill="#111111"/>
<use data-text="e" xlink:href="#font_5_72" transform="matrix(12,0,0,-12,239.8775,267.75)" fill="#111111"/>
<use data-text="," xlink:href="#font_5_15" transform="matrix(12,0,0,-12,246.5495,267.75)" fill="#111111"/>
<use data-text=" " xlink:href="#font_5_3" transform="matrix(12,0,0,-12,249.8855,267.75)" fill="#111111"/>
<use data-text="c" xlink:href="#font_5_70" transform="matrix(12,0,0,-12,253.2215,267.75)" fill="#111111"/>
<use data-text="s" xlink:href="#font_5_86" transform="matrix(12,0,0,-12,259.2215,267.75)" fill="#111111"/>
<use data-text="v" xlink:href="#font_5_89" transform="matrix(12,0,0,-12,265.2215,267.75)" fill="#111111"/>
<use data-text="_" xlink:href="#font_5_66" transform="matrix(12,0,0,-12,271.2215,267.75)" fill="#111111"/>
<use data-text="f" xlink:href="#font_5_73" transform="matrix(12,0,0,-12,277.8935,267.75)" fill="#111111"/>
<use data-text="i" xlink:href="#font_5_76" transform="matrix(12,0,0,-12,281.2295,267.75)" fill="#111111"/>
<use data-text="l" xlink:href="#font_5_79" transform="matrix(12,0,0,-12,283.8935,267.75)" fill="#111111"/>
<use data-text="e" xlink:href="#font_5_72" transform="matrix(12,0,0,-12,286.5575,267.75)" fill="#111111"/>
<use data-text=":" xlink:href="#font_5_29" transform="matrix(12,0,0,-12,293.2295,267.75)" fill="#111111"/>
<use data-text=" " xlink:href="#font_5_3" transform="matrix(12,0,0,-12,296.5655,267.75)" fill="#111111"/>
<use data-text="s" xlink:href="#font_5_86" transform="matrix(12,0,0,-12,299.9015,267.75)" fill="#111111"/>
<use data-text="t" xlink:href="#font_5_87" transform="matrix(12,0,0,-12,305.9015,267.75)" fill="#111111"/>
<use data-text="r" xlink:href="#font_5_85" transform="matrix(12,0,0,-12,309.2375,267.75)" fill="#111111"/>
<use data-text="i" xlink:href="#font_5_76" transform="matrix(12,0,0,-12,313.2335,267.75)" fill="#111111"/>
<use data-text="n" xlink:href="#font_5_81" transform="matrix(12,0,0,-12,315.8975,267.75)" fill="#111111"/>
<use data-text="g" xlink:href="#font_5_74" transform="matrix(12,0,0,-12,322.5695,267.75)" fill="#111111"/>
<use data-text=")" xlink:href="#font_5_12" transform="matrix(12,0,0,-12,329.2415,267.75)" fill="#111111"/>
<use data-text=" " xlink:href="#font_5_3" transform="matrix(12,0,0,-12,333.2375,267.75)" fill="#111111"/>
<use data-text=":" xlink:href="#font_5_29" transform="matrix(12,0,0,-12,336.5735,267.75)" fill="#111111"/>
<use data-text=" " xlink:href="#font_5_3" transform="matrix(12,0,0,-12,339.9095,267.75)" fill="#111111"/>
<use data-text="b" xlink:href="#font_5_69" transform="matrix(12,0,0,-12,343.24549,267.75)" fill="#111111"/>
<use data-text="o" xlink:href="#font_5_82" transform="matrix(12,0,0,-12,349.91749,267.75)" fill="#111111"/>
<use data-text="o" xlink:href="#font_5_82" transform="matrix(12,0,0,-12,356.58949,267.75)" fill="#111111"/>
<use data-text="l" xlink:href="#font_5_79" transform="matrix(12,0,0,-12,363.26148,267.75)" fill="#111111"/>
</g>
<g clip-path="url(#clip_16)">
<use data-text="+" xlink:href="#font_5_14" transform="matrix(12,0,0,-12,21,285.75)" fill="#111111"/>
<use data-text="q" xlink:href="#font_5_84" transform="matrix(12,0,0,-12,28.008,285.75)" fill="#111111"/>
<use data-text="u" xlink:href="#font_5_88" transform="matrix(12,0,0,-12,34.68,285.75)" fill="#111111"/>
<use data-text="e" xlink:href="#font_5_72" transform="matrix(12,0,0,-12,41.352,285.75)" fill="#111111"/>
<use data-text="r" xlink:href="#font_5_85" transform="matrix(12,0,0,-12,48.024003,285.75)" fill="#111111"/>
<use data-text="y" xlink:href="#font_5_92" transform="matrix(12,0,0,-12,52.02,285.75)" fill="#111111"/>
<use data-text="(" xlink:href="#font_5_11" transform="matrix(12,0,0,-12,58.02,285.75)" fill="#111111"/>
<use data-text="t" xlink:href="#font_5_87" transform="matrix(12,0,0,-12,62.016,285.75)" fill="#111111"/>
<use data-text="i" xlink:href="#font_5_76" transform="matrix(12,0,0,-12,65.352008,285.75)" fill="#111111"/>
<use data-text="d" xlink:href="#font_5_71" transform="matrix(12,0,0,-12,68.01601,285.75)" fill="#111111"/>
<use data-text=":" xlink:href="#font_5_29" transform="matrix(12,0,0,-12,74.688,285.75)" fill="#111111"/>
<use data-text=" " xlink:href="#font_5_3" transform="matrix(12,0,0,-12,78.024,285.75)" fill="#111111"/>
<use data-text="T" xlink:href="#font_5_55" transform="matrix(12,0,0,-12,81.146488,285.75)" fill="#111111"/>
<use data-text="I" xlink:href="#font_5_44" transform="matrix(12,0,0,-12,88.478488,285.75)" fill="#111111"/>
<use data-text="D" xlink:href="#font_5_39" transform="matrix(12,0,0,-12,91.81448,285.75)" fill="#111111"/>
<use data-text="," xlink:href="#font_5_15" transform="matrix(12,0,0,-12,100.478488,285.75)" fill="#111111"/>
<use data-text=" " xlink:href="#font_5_3" transform="matrix(12,0,0,-12,103.81448,285.75)" fill="#111111"/>
<use data-text="b" xlink:href="#font_5_69" transform="matrix(12,0,0,-12,107.15048,285.75)" fill="#111111"/>
<use data-text="o" xlink:href="#font_5_82" transform="matrix(12,0,0,-12,113.82249,285.75)" fill="#111111"/>
<use data-text="d" xlink:href="#font_5_71" transform="matrix(12,0,0,-12,120.49449,285.75)" fill="#111111"/>
<use data-text="y" xlink:href="#font_5_92" transform="matrix(12,0,0,-12,127.16649,285.75)" fill="#111111"/>
<use data-text=":" xlink:href="#font_5_29" transform="matrix(12,0,0,-12,133.16649,285.75)" fill="#111111"/>
<use data-text=" " xlink:href="#font_5_3" transform="matrix(12,0,0,-12,136.50249,285.75)" fill="#111111"/>
<use data-text="V" xlink:href="#font_5_57" transform="matrix(12,0,0,-12,139.83849,285.75)" fill="#111111"/>
<use data-text="e" xlink:href="#font_5_72" transform="matrix(12,0,0,-12,147.17578,285.75)" fill="#111111"/>
<use data-text="c" xlink:href="#font_5_70" transform="matrix(12,0,0,-12,153.84778,285.75)" fill="#111111"/>
<use data-text="&#x003c;" xlink:href="#font_5_31" transform="matrix(12,0,0,-12,159.84778,285.75)" fill="#111111"/>
<use data-text="Q" xlink:href="#font_5_52" transform="matrix(12,0,0,-12,166.85578,285.75)" fill="#111111"/>
<use data-text="u" xlink:href="#font_5_88" transform="matrix(12,0,0,-12,176.19178,285.75)" fill="#111111"/>
<use data-text="e" xlink:href="#font_5_72" transform="matrix(12,0,0,-12,182.86377,285.75)" fill="#111111"/>
<use data-text="r" xlink:href="#font_5_85" transform="matrix(12,0,0,-12,189.53577,285.75)" fill="#111111"/>
<use data-text="y" xlink:href="#font_5_92" transform="matrix(12,0,0,-12,193.53177,285.75)" fill="#111111"/>
<use data-text="A" xlink:href="#font_5_36" transform="matrix(12,0,0,-12,199.53177,285.75)" fill="#111111"/>
<use data-text="t" xlink:href="#font_5_87" transform="matrix(12,0,0,-12,207.53577,285.75)" fill="#111111"/>
<use data-text="o" xlink:href="#font_5_82" transform="matrix(12,0,0,-12,210.87177,285.75)" fill="#111111"/>
<use data-text="m" xlink:href="#font_5_80" transform="matrix(12,0,0,-12,217.54376,285.75)" fill="#111111"/>
<use data-text="&#x003e;" xlink:href="#font_5_33" transform="matrix(12,0,0,-12,227.53977,285.75)" fill="#111111"/>
<use data-text=")" xlink:href="#font_5_12" transform="matrix(12,0,0,-12,234.54776,285.75)" fill="#111111"/>
<use data-text=" " xlink:href="#font_5_3" transform="matrix(12,0,0,-12,238.54376,285.75)" fill="#111111"/>
<use data-text=":" xlink:href="#font_5_29" transform="matrix(12,0,0,-12,241.87976,285.75)" fill="#111111"/>
<use data-text=" " xlink:href="#font_5_3" transform="matrix(12,0,0,-12,245.21576,285.75)" fill="#111111"/>
<use data-text="b" xlink:href="#font_5_69" transform="matrix(12,0,0,-12,248.55176,285.75)" fill="#111111"/>
<use data-text="o" xlink:href="#font_5_82" transform="matrix(12,0,0,-12,255.22376,285.75)" fill="#111111"/>
<use data-text="o" xlink:href="#font_5_82" transform="matrix(12,0,0,-12,261.89576,285.75)" fill="#111111"/>
<use data-text="l" xlink:href="#font_5_79" transform="matrix(12,0,0,-12,268.56776,285.75)" fill="#111111"/>
</g>
<g clip-path="url(#clip_17)">
<path transform="matrix(.75,0,0,.75,206.8125,156)" stroke-width="1" stroke-linecap="butt" stroke-miterlimit="4" stroke-linejoin="miter" fill="none" stroke="#999999" d="M-259.75-144C-116.136898-144 27.47621-144 259.75-144M-259.75-144C-62.805704-144 134.1386-144 259.75-144"/>
<path transform="matrix(.75,0,0,.75,206.8125,156)" stroke-width="1" stroke-linecap="butt" stroke-miterlimit="4" stroke-linejoin="miter" fill="none" stroke="#999999" d="M-259.75-48C-115.68128-48 28.387444-48 259.75-48M-259.75-48C-93.56484-48 72.620319-48 259.75-48"/>
</g>
</svg>
