<svg xmlns="http://www.w3.org/2000/svg" xmlns:xlink="http://www.w3.org/1999/xlink" xmlns:inkscape="http://www.inkscape.org/namespaces/inkscape" version="1.1" width="464.87998" height="204" viewBox="0 0 464.87998 204">
<defs>
<clipPath id="clip_1">
<path transform="matrix(.24,0,0,.24,0,0)" d="M25 25H1909.375V825H25Z" clip-rule="evenodd"/>
</clipPath>
<clipPath id="clip_2">
<path transform="matrix(.24,0,0,.24,0,0)" d="M754.4563 87.496189H1179.4304V162.49161H754.4563Z" clip-rule="evenodd"/>
</clipPath>
<path id="font_3_39" d="M.6801758 .34936524C.6801758 .27835084 .66625979 .21637471 .63842776 .16343689 .6105957 .11050924 .5712077 .07003784 .5202637 .042022706 .46931968 .014007568 .41097007 0 .34521485 0H.06689453V.68847659H.31591798C.43180339 .68847659 .5214844 .6592407 .58496096 .60076907 .6484375 .54229739 .6801758 .4584961 .6801758 .34936524M.53515627 .34936524C.53515627 .42333985 .5159505 .47979737 .47753907 .5187378 .4391276 .5576782 .38427735 .57714846 .31298829 .57714846H.2109375V.111328128H.3330078C.39485679 .111328128 .4440104 .13267009 .48046876 .175354 .51692709 .2180481 .53515627 .27605186 .53515627 .34936524Z"/>
<path id="font_3_72" d="M.2861328-.009765625C.20670574-.009765625 .14567058 .013753255 .103027347 .060791017 .060384115 .10782877 .0390625 .1764323 .0390625 .26660157 .0390625 .35384117 .060709638 .42089845 .104003909 .46777345 .14729817 .51464846 .20865886 .53808596 .28808595 .53808596 .36393229 .53808596 .421875 .51298019 .46191407 .46276856 .5019531 .41255699 .52197268 .33902995 .52197268 .2421875V.23828125H.18310547C.18310547 .1866862 .19262696 .14774578 .21166992 .12145996 .23071289 .095174159 .2578125 .08203125 .29296876 .08203125 .34147135 .08203125 .3720703 .1031901 .38476563 .14550781L.51416018 .13424683C.47672526 .038238527 .40071617-.009765625 .2861328-.009765625M.2861328 .45166017C.25390626 .45166017 .22908528 .44047038 .21166992 .41809083 .19425456 .39572145 .1850586 .36443077 .18408203 .32421876H.38916017C.386556 .36669923 .3763021 .39855958 .35839845 .4197998 .34049479 .44104005 .31640626 .45166017 .2861328 .45166017Z"/>
<path id="font_3_68" d="M.19189453-.009765625C.14078777-.009765625 .10091146 .0041503908 .072265628 .031982423 .043619794 .059814454 .029296875 .098958339 .029296875 .14941406 .029296875 .20410156 .04711914 .24576824 .08276367 .27441407 .1184082 .3030599 .17008464 .31770835 .23779297 .31835938L.3515625 .3203125V.34716798C.3515625 .3816732 .34554038 .40730796 .3334961 .42407228 .3214518 .44083659 .3017578 .44921876 .27441407 .44921876 .24902344 .44921876 .23038738 .44344078 .21850586 .43188478 .20662435 .42032878 .19921875 .40120445 .19628906 .37451173L.053222658 .38134767C.06201172 .43277995 .0855306 .47176109 .1237793 .49829103 .162028 .524821 .2141927 .53808596 .28027345 .53808596 .34700523 .53808596 .3984375 .52164718 .4345703 .48876954 .47070313 .45589195 .48876954 .4091797 .48876954 .3486328V.15625C.48876954 .12662761 .4921061 .10620117 .4987793 .0949707 .50545248 .083740238 .51660159 .078125 .53222659 .078125 .54264327 .078125 .5527344 .07910156 .5625 .08105469V.0068359377C.554362 .0048828127 .5470378 .003092448 .54052737 .0014648438 .5340169-.00016276042 .52750656-.0014648438 .5209961-.0024414063 .51448568-.0034179688 .50756838-.004231771 .50024417-.0048828127 .49291993-.005533854 .484375-.005859375 .47460938-.005859375 .44010417-.005859375 .41463218 .0026041668 .39819337 .01953125 .38175456 .036458333 .37190757 .061360677 .36865235 .09423828H.36572267C.3273112 .024902344 .2693685-.009765625 .19189453-.009765625M.3515625 .2446289 .28125 .24365235C.24934896 .24235027 .22672527 .2388509 .2133789 .2331543 .20003255 .22745769 .18986003 .21875 .18286133 .20703125 .17586263 .1953125 .17236328 .1796875 .17236328 .16015625 .17236328 .13509114 .17814128 .11645508 .18969727 .10424805 .20125325 .092041019 .21663411 .0859375 .23583985 .0859375 .25732423 .0859375 .27693687 .091796878 .29467774 .103515628 .3124186 .115234378 .32633464 .13142903 .33642579 .15209961 .34651695 .17277019 .3515625 .19466146 .3515625 .21777344V.2446289Z"/>
<path id="font_3_71" d="M.41210938 0C.41080729 .0048828127 .40926109 .017171225 .4074707 .036865236 .40568034 .056559247 .40478517 .072916667 .40478517 .0859375H.40283204C.37320964 .022135416 .31689454-.009765625 .23388672-.009765625 .17236328-.009765625 .12483724 .014241536 .091308597 .06225586 .05777995 .11027018 .041015626 .17740886 .041015626 .26367188 .041015626 .35123698 .05867513 .41886393 .09399414 .46655274 .12931316 .5142415 .17936199 .53808596 .24414063 .53808596 .28157554 .53808596 .31388346 .53027346 .34106446 .51464846 .36824546 .49902345 .38916017 .4757487 .4038086 .44482423H.40478517L.4038086 .5317383V.7246094H.5410156V.115234378C.5410156 .08268229 .5423177 .044270833 .5449219 0H.41210938M.40576173 .26708985C.40576173 .324056 .39624024 .36791993 .37719728 .39868165 .3581543 .42944337 .33007813 .44482423 .29296876 .44482423 .2561849 .44482423 .22884114 .42993165 .2109375 .40014649 .19303386 .37036134 .18408203 .32486979 .18408203 .26367188 .18408203 .1438802 .22005208 .083984378 .2919922 .083984378 .328125 .083984378 .35611979 .099853519 .37597657 .1315918 .39583335 .16333008 .40576173 .2084961 .40576173 .26708985Z"/>
<path id="font_3_79" d="M.06982422 0V.7246094H.20703125V0H.06982422Z"/>
<path id="font_3_82" d="M.57177737 .26464845C.57177737 .17903646 .54801437 .11189779 .5004883 .06323242 .45296226 .014567058 .38720704-.009765625 .30322267-.009765625 .22086589-.009765625 .15625 .0146484379 .109375 .06347656 .0625 .11230469 .0390625 .17936199 .0390625 .26464845 .0390625 .34960938 .0625 .41642253 .109375 .4650879 .15625 .51375326 .22184246 .53808596 .30615235 .53808596 .39241538 .53808596 .45825196 .5145671 .5036621 .4675293 .54907229 .42049156 .57177737 .3528646 .57177737 .26464845M.42822267 .26464845C.42822267 .32747398 .41796876 .37304688 .39746095 .4013672 .37695313 .4296875 .34716798 .44384767 .30810548 .44384767 .22477214 .44384767 .18310547 .3841146 .18310547 .26464845 .18310547 .20572917 .193278 .16088867 .21362305 .13012696 .2339681 .099365238 .26334635 .083984378 .3017578 .083984378 .38606773 .083984378 .42822267 .14420574 .42822267 .26464845Z"/>
<path id="font_3_70" d="M.29003907-.009765625C.20996094-.009765625 .14811199 .014078776 .10449219 .061767579 .060872396 .10945638 .0390625 .17594402 .0390625 .26123048 .0390625 .34847007 .061035158 .41642253 .10498047 .4650879 .14892578 .51375326 .21126302 .53808596 .2919922 .53808596 .35416667 .53808596 .40559898 .52250167 .44628907 .491333 .48697917 .4601644 .51253256 .41714988 .5229492 .36228944L.38476563 .35546876C.38085938 .38233439 .37109376 .40377809 .35546876 .4197998 .33984376 .4358317 .31770835 .44384767 .2890625 .44384767 .21842449 .44384767 .18310547 .38476563 .18310547 .26660157 .18310547 .14485677 .21907552 .083984378 .29101563 .083984378 .31705729 .083984378 .3388672 .09224447 .3564453 .10876465 .37402345 .12528484 .38492839 .14990235 .38916017 .18261719L.52685549 .17625427C.52197268 .1400299 .5090332 .10772196 .4880371 .079330448 .46704103 .050938924 .43945313 .0289917 .40527345 .0134887699 .37109376-.0020141602 .33268229-.009765625 .29003907-.009765625Z"/>
<path id="font_3_78" d="M.40722657 0 .26611329 .23925781 .20703125 .19824219V0H.06982422V.7246094H.20703125V.3095703L.3955078 .5283203H.54296877L.35742188 .32226563 .5571289 0H.40722657Z"/>
<path id="font_3_87" d="M.20507813-.0087890629C.16471355-.0087890629 .1336263 .0021972657 .111816409 .024169922 .09000651 .046142579 .07910156 .079427089 .07910156 .12402344V.43554688H.012207031V.5283203H.0859375L.12890625 .65234377H.21484375V.5283203H.3149414V.43554688H.21484375V.16113281C.21484375 .13541667 .21972656 .11645508 .22949219 .10424805 .23925781 .092041019 .25439454 .0859375 .27490235 .0859375 .28564454 .0859375 .300944 .08821615 .32080079 .09277344V.0078125C.28694663-.0032552083 .24837239-.0087890629 .20507813-.0087890629Z"/>
<path id="font_3_85" d="M.06982422 0V.40429688C.06982422 .43326823 .06941732 .45743815 .068603519 .47680665 .06778971 .49617515 .06689453 .5133464 .06591797 .5283203H.19677735C.1977539 .52248129 .19905599 .5047353 .2006836 .4750824 .2023112 .44542948 .203125 .42574058 .203125 .41601563H.20507813C.21842449 .453125 .23030599 .47924806 .24072266 .49438478 .2511393 .5095215 .26350913 .52075198 .27783204 .5280762 .29215495 .5354004 .3100586 .5390625 .33154298 .5390625 .3491211 .5390625 .36328126 .5366211 .37402345 .5317383V.4169922C.35188804 .421875 .33235679 .4243164 .3154297 .4243164 .28125 .4243164 .25463868 .41046653 .2355957 .38276673 .21655274 .35506694 .20703125 .31400553 .20703125 .25958253V0H.06982422Z"/>
<clipPath id="clip_4">
<path transform="matrix(.24,0,0,.24,0,0)" d="M87.54147 237.48703H553.13809V312.48246H87.54147Z" clip-rule="evenodd"/>
</clipPath>
<path id="font_5_16" d="M.044433595 .2265625V.3046875H.28857423V.2265625H.044433595Z"/>
<path id="font_5_89" d="M.2993164 0H.1953125L.0034179688 .5283203H.09716797L.2133789 .18457031C.21761067 .17154949 .22884114 .13297527 .24707031 .068847659L.26416017 .12597656 .28320313 .18359375 .4033203 .5283203H.49658204L.2993164 0Z"/>
<path id="font_5_76" d="M.06689453 .640625V.7246094H.15478516V.640625H.06689453M.06689453 0V.5283203H.15478516V0H.06689453Z"/>
<path id="font_5_86" d="M.4638672 .14613343C.4638672 .09628805 .44506837 .057840986 .4074707 .030792237 .36987306 .003753662 .31722007-.009765625 .24951172-.009765625 .18375652-.009765625 .13305664 .0010579428 .09741211 .022705079 .061767579 .044352216 .03857422 .078125 .027832032 .12402344L.10546875 .13916016C.11295573 .110839847 .12841797 .09008789 .15185547 .0769043 .17529297 .0637207 .20784505 .057128908 .24951172 .057128908 .29410807 .057128908 .32674156 .063975017 .3474121 .07766724 .36808268 .09136963 .37841798 .11191305 .37841798 .13929749 .37841798 .16015117 .3712565 .1770935 .3569336 .19012451 .3426107 .20315552 .3194987 .21390789 .28759767 .22238159L.22460938 .23899842C.17415364 .25202943 .13826497 .26481629 .11694336 .277359 .09562174 .28990174 .078938808 .30513 .06689453 .32304383 .05485026 .3409678 .048828126 .36296083 .048828126 .38902284 .048828126 .43725077 .06599935 .47398887 .1003418 .49923707 .13468425 .5244853 .18473308 .5371094 .25048829 .5371094 .3087565 .5371094 .35506187 .52685549 .3894043 .50634768 .42374674 .48583985 .44547526 .45296226 .45458985 .40771485L.37548829 .39794923C.37060548 .42138673 .35750328 .43937174 .33618165 .4519043 .31486003 .46443687 .28629557 .47070313 .25048829 .47070313 .21077474 .47070313 .18147786 .4646708 .16259766 .4526062 .14371746 .4405416 .13427735 .4222819 .13427735 .39782716 .13427735 .38284303 .1381836 .37046305 .1459961 .36068727 .1538086 .35091148 .16536458 .3426005 .18066406 .3357544 .19596355 .32891847 .22819011 .31947328 .27734376 .30741883 .32389323 .2956899 .35742188 .28485618 .3779297 .2749176 .3984375 .26497904 .41463218 .25398255 .42651368 .2419281 .43839518 .22987366 .44759117 .21594239 .45410157 .20013428 .46061198 .18433635 .4638672 .16633606 .4638672 .14613343Z"/>
<path id="font_5_87" d="M.2705078 .00390625C.24153646-.00390625 .21191406-.0078125 .18164063-.0078125 .111328128-.0078125 .076171878 .0320638 .076171878 .111816409V.46435548H.015136719V.5283203H.079589847L.10546875 .6464844H.1640625V.5283203H.26171876V.46435548H.1640625V.13085938C.1640625 .10546875 .16821289 .087646488 .17651367 .07739258 .18481446 .06713867 .19921875 .06201172 .21972656 .06201172 .23144531 .06201172 .24837239 .06429037 .2705078 .068847659V.00390625Z"/>
<path id="font_5_72" d="M.13476563 .24609375C.13476563 .18539429 .14729817 .13855998 .17236328 .10559082 .19742839 .072631839 .23404949 .056152345 .28222657 .056152345 .3203125 .056152345 .35083009 .06384786 .3737793 .07923889 .39672853 .09462992 .41227214 .114115398 .42041017 .13769531L.4975586 .11564636C.46598307 .032038373 .39420573-.009765625 .28222657-.009765625 .20410156-.009765625 .14461263 .013509114 .103759769 .060058595 .0629069 .10660807 .04248047 .17578125 .04248047 .26757813 .04248047 .35481773 .0629069 .42171226 .103759769 .46826173 .14461263 .5148112 .20296224 .53808596 .2788086 .53808596 .43408204 .53808596 .51171877 .44465638 .51171877 .25779725V.24609375H.13476563M.42089845 .31347657C.41601563 .36896769 .40185548 .40944926 .37841798 .43492127 .35498048 .46040345 .32128907 .47314454 .27734376 .47314454 .23470052 .47314454 .20092774 .4589437 .17602539 .430542 .15112305 .40215049 .13769531 .36312867 .13574219 .31347657H.42089845Z"/>
<path id="font_5_71" d="M.4008789 .08496094C.38460288 .05110677 .3630371 .026855469 .33618165 .012207031 .30932618-.0024414063 .27604167-.009765625 .23632813-.009765625 .16959636-.009765625 .120524089 .0126953129 .08911133 .057617189 .057698568 .10253906 .041992189 .17057292 .041992189 .26171876 .041992189 .44596354 .106770839 .53808596 .23632813 .53808596 .2763672 .53808596 .30973307 .5307617 .33642579 .5161133 .3631185 .50146487 .38460288 .4781901 .4008789 .44628907H.40185548L.4008789 .5053711V.7246094H.48876954V.10888672C.48876954 .0538737 .4897461 .017578125 .49169923 0H.40771485C.40673829 .0052083337 .40568034 .017252604 .40454103 .036132814 .4034017 .05501302 .40283204 .07128906 .40283204 .08496094H.4008789M.13427735 .26464845C.13427735 .1907552 .14404297 .13785808 .16357422 .10595703 .18310547 .07405599 .21484375 .05810547 .25878907 .05810547 .30859376 .05810547 .34472657 .07535807 .3671875 .10986328 .38964845 .14436849 .4008789 .19791667 .4008789 .2705078 .4008789 .34049479 .38964845 .3917643 .3671875 .4243164 .34472657 .4568685 .30891929 .47314454 .25976563 .47314454 .2154948 .47314454 .18351238 .4567871 .16381836 .42407228 .14412435 .39135743 .13427735 .33821617 .13427735 .26464845Z"/>
<path id="font_5_66" d="M-.015136719-.19921875V-.13574219H.5673828V-.19921875H-.015136719Z"/>
<path id="font_5_91" d="M.39111329 0 .24902344 .21679688 .10595703 0H.011230469L.19921875 .27148438 .020019532 .5283203H.1171875L.24902344 .3227539 .3798828 .5283203H.47802735L.29882813 .27246095 .4892578 0H.39111329Z"/>
<path id="font_5_29" d="M.091308597 .4267578V.5283203H.18652344V.4267578H.091308597M.091308597 0V.1015625H.18652344V0H.091308597Z"/>
<path id="font_5_3" d=""/>
<path id="font_5_54" d="M.62109377 .1899414C.62109377 .12646485 .59627279 .077311199 .54663088 .04248047 .49698893 .0076497399 .42708335-.009765625 .33691407-.009765625 .16927083-.009765625 .07210287 .048502607 .045410158 .16503906L.13574219 .18310547C.14615886 .14176433 .16829427 .11140951 .20214844 .092041019 .23600261 .07267252 .2820638 .06298828 .34033204 .06298828 .40055339 .06298828 .44702149 .07332357 .47973634 .09399414 .5124512 .11466471 .5288086 .14501953 .5288086 .1850586 .5288086 .20751953 .52368167 .2257487 .51342776 .2397461 .5031738 .2537435 .48876954 .26529948 .47021485 .27441407 .45166017 .28352867 .42952476 .29117839 .4038086 .29736329 .37809245 .3035482 .34960938 .31022135 .31835938 .3173828 .2639974 .3294271 .22273763 .34147135 .19458008 .35351563 .16642253 .3655599 .14420574 .37898765 .12792969 .39379884 .11165365 .40861003 .09920248 .425944 .09057617 .44580079 .08194987 .46565757 .07763672 .488444 .07763672 .51416018 .07763672 .5730794 .10017904 .61848959 .14526367 .6503906 .19034831 .6822917 .2548828 .6982422 .3388672 .6982422 .4169922 .6982422 .47672526 .6862793 .5180664 .6623535 .55940756 .63842776 .5883789 .59765627 .60498049 .54003909L.5131836 .5239258C.50309249 .5603841 .48388673 .5868327 .4555664 .6032715 .4272461 .61971029 .38802085 .6279297 .33789063 .6279297 .2828776 .6279297 .24088542 .6188151 .21191406 .60058596 .1829427 .58235678 .16845703 .5551758 .16845703 .51904299 .16845703 .49788413 .17407227 .48038737 .18530274 .46655274 .1965332 .4527181 .21272786 .44099937 .23388672 .43139649 .25504557 .4217936 .29720054 .4099935 .36035157 .3959961 .3815104 .39111329 .4025879 .38614909 .42358399 .38110353 .44458009 .37605796 .464681 .3700358 .48388673 .3630371 .50309249 .35603843 .52107748 .347819 .5378418 .3383789 .55460616 .3289388 .56917318 .3173828 .58154299 .30371095 .5939128 .29003907 .603597 .27392579 .6105957 .2553711 .6175944 .2368164 .62109377 .21500652 .62109377 .1899414Z"/>
<path id="font_5_31" d="M.049316408 .27929688V.37939454L.53515627 .5839844V.50878909L.11621094 .32958985 .53515627 .14990235V.07519531L.049316408 .27929688Z"/>
<path id="font_5_55" d="M.3515625 .6123047V0H.25878907V.6123047H.022460938V.68847659H.5878906V.6123047H.3515625Z"/>
<path id="font_5_44" d="M.092285159 0V.68847659H.18554688V0H.092285159Z"/>
<path id="font_5_39" d="M.6743164 .35131837C.6743164 .28030396 .66048178 .21816509 .6328125 .16490174 .60514327 .11164856 .56591799 .07085165 .5151367 .042510988 .46435548 .014170329 .40576173 0 .33935548 0H.08203125V.68847659H.3095703C.42610679 .68847659 .5160319 .6592407 .5793457 .60076907 .6426595 .54229739 .6743164 .45914714 .6743164 .35131837M.5805664 .35131837C.5805664 .4366862 .55721029 .50177 .51049807 .5465698 .4637858 .5913696 .39615885 .61376956 .3076172 .61376956H.17529297V.07470703H.32861329C.379069 .07470703 .42342124 .08578491 .46166993 .107940677 .4999186 .13009644 .5292969 .1620229 .5498047 .2037201 .5703125 .24542745 .5805664 .29462687 .5805664 .35131837Z"/>
<path id="font_5_33" d="M.049316408 .07519531V.14990235L.46826173 .32958985 .049316408 .50878909V.5839844L.53515627 .37939454V.27929688L.049316408 .07519531Z"/>
<clipPath id="clip_6">
<path transform="matrix(.24,0,0,.24,0,0)" d="M87.54147 312.48246H956.2384V387.47789H87.54147Z" clip-rule="evenodd"/>
</clipPath>
<path id="font_5_85" d="M.06933594 0V.40527345C.06933594 .4423828 .068359378 .48339845 .06640625 .5283203H.14941406C.15201824 .46842448 .15332031 .43245445 .15332031 .42041017H.15527344C.16927083 .46565757 .18538411 .49658204 .20361328 .5131836 .22184246 .52978518 .2475586 .53808596 .28076173 .53808596 .29248048 .53808596 .30436198 .5364583 .31640626 .5332031V.45263673C.3046875 .45589195 .2890625 .45751954 .26953126 .45751954 .23307292 .45751954 .20524089 .44181315 .18603516 .4104004 .16682942 .37898765 .15722656 .33398438 .15722656 .27539063V0H.06933594Z"/>
<path id="font_5_68" d="M.20214844-.009765625C.14908855-.009765625 .10921224 .004231771 .08251953 .032226564 .055826826 .060221357 .04248047 .09863281 .04248047 .14746094 .04248047 .20214844 .060465497 .24414063 .09643555 .2734375 .1324056 .30273438 .19042969 .31835938 .2705078 .3203125L.38916017 .32226563V.35107423C.38916017 .39404298 .38004557 .4248047 .3618164 .44335938 .34358726 .46191407 .3149414 .4711914 .2758789 .4711914 .23649089 .4711914 .20784505 .46455384 .1899414 .4512787 .17203777 .4380137 .16129558 .41681925 .15771485 .3876953L.06591797 .39596559C.08089193 .4907125 .15152996 .53808596 .27783204 .53808596 .34423829 .53808596 .39420573 .52286788 .42773438 .49243165 .46126304 .46199546 .47802735 .41796876 .47802735 .36035157V.1328125C.47802735 .106770839 .4814453 .0871582 .48828126 .07397461 .4951172 .060791017 .508138 .05419922 .52734377 .05419922 .5358073 .05419922 .54541018 .055338544 .55615237 .057617189V.0029296876C.5340169-.0022786458 .51139327-.0048828127 .48828126-.0048828127 .45572917-.0048828127 .43204753 .0036621094 .41723634 .020751954 .40242515 .037841798 .39404298 .06461588 .39208985 .10107422H.38916017C.36669923 .060709638 .34057618 .032145185 .31079103 .015380859 .28100587-.0013834635 .24479167-.009765625 .20214844-.009765625M.22216797 .056152345C.25439454 .056152345 .28304038 .06347656 .30810548 .078125 .33317057 .09277344 .35294596 .11287435 .36743165 .13842774 .38191734 .16398113 .38916017 .19026692 .38916017 .21728516V.2607422L.29296876 .25878907C.2516276 .25813804 .22029622 .25390626 .19897461 .24609375 .177653 .23828125 .16129558 .22623699 .14990235 .20996094 .13850911 .19368489 .1328125 .17236328 .1328125 .1459961 .1328125 .11735026 .14054363 .095214847 .15600586 .079589847 .1714681 .063964847 .19352214 .056152345 .22216797 .056152345Z"/>
<path id="font_5_81" d="M.40283204 0V.33496095C.40283204 .36979167 .39941407 .3968099 .39257813 .41601563 .3857422 .43522135 .37483726 .449056 .35986329 .45751954 .3448893 .46598307 .32291667 .47021485 .2939453 .47021485 .2516276 .47021485 .21826172 .45572917 .19384766 .4267578 .1694336 .39778648 .15722656 .35758464 .15722656 .30615235V0H.06933594V.41552735C.06933594 .47705079 .068359378 .51464846 .06640625 .5283203H.14941406C.14973958 .5266927 .15006511 .52229818 .15039063 .5151367 .15071614 .5079753 .15112305 .49975587 .15161133 .49047853 .15209961 .48120118 .15266927 .46370445 .15332031 .43798829H.15478516C.17496746 .47444663 .19832357 .50024417 .22485352 .51538088 .25138346 .5305176 .28434245 .53808596 .32373048 .53808596 .3816732 .53808596 .42407228 .52368167 .45092774 .49487306 .4777832 .46606446 .49121095 .41845704 .49121095 .35205079V0H.40283204Z"/>
<path id="font_5_70" d="M.13427735 .26660157C.13427735 .19628906 .14534505 .14420574 .16748047 .11035156 .18961589 .0764974 .22298177 .059570314 .26757813 .059570314 .29882813 .059570314 .32495118 .06803385 .34594728 .08496094 .36694337 .10188802 .3798828 .12792969 .38476563 .16308594L.4736328 .15722656C.46679688 .10644531 .44514976 .06591797 .4086914 .03564453 .37223307 .0053710939 .32600913-.009765625 .27001954-.009765625 .1961263-.009765625 .13972982 .013590495 .10083008 .060302736 .06193034 .10701498 .04248047 .1751302 .04248047 .26464845 .04248047 .35351563 .06201172 .42130534 .10107422 .46801759 .14013672 .5147298 .1961263 .53808596 .26904298 .53808596 .32307945 .53808596 .36791993 .5241292 .40356446 .49621583 .43920899 .4683024 .46158854 .42984519 .47070313 .38084413L.3803711 .37402345C.3758138 .40316773 .3642578 .4263204 .34570313 .44348146 .32714845 .46065269 .30078126 .46923829 .26660157 .46923829 .22005208 .46923829 .18636067 .45377604 .16552735 .42285157 .14469402 .3919271 .13427735 .33984376 .13427735 .26660157Z"/>
<path id="font_5_82" d="M.51416018 .26464845C.51416018 .17220052 .4938151 .10335287 .453125 .05810547 .4124349 .012858073 .35335288-.009765625 .2758789-.009765625 .19873047-.009765625 .14046224 .013753255 .10107422 .060791017 .0616862 .10782877 .041992189 .17578125 .041992189 .26464845 .041992189 .4469401 .12093099 .53808596 .2788086 .53808596 .35953776 .53808596 .4189453 .51586917 .45703126 .47143556 .4951172 .42700196 .51416018 .3580729 .51416018 .26464845M.421875 .26464845C.421875 .3375651 .41105143 .3905436 .3894043 .42358399 .36775718 .45662437 .33138023 .47314454 .28027345 .47314454 .22884114 .47314454 .19165039 .45629884 .16870117 .42260743 .14575196 .38891603 .13427735 .33626304 .13427735 .26464845 .13427735 .19498699 .14558919 .1426595 .16821289 .107666019 .1908366 .07267252 .22639974 .05517578 .27490235 .05517578 .32763673 .05517578 .36531578 .07210287 .38793946 .10595703 .41056315 .1398112 .421875 .19270833 .421875 .26464845Z"/>
<path id="font_5_9" d="M.58251956-.005859375C.52490237-.005859375 .47639976 .014841716 .43701173 .056243898 .41259767 .035054525 .38476563 .018753052 .35351563 .0073394777 .32226563-.0040639245 .28955079-.009765625 .2553711-.009765625 .18538411-.009765625 .13118489 .0070902507 .09277344 .040802003 .05436198 .074513759 .03515625 .12133789 .03515625 .18127442 .03515625 .27183024 .09098307 .34170024 .20263672 .3908844 .19189453 .41108705 .18261719 .43503318 .17480469 .46272279 .16699219 .49041239 .16308594 .5156555 .16308594 .53845217 .16308594 .587321 .17797852 .6251933 .20776367 .6520691 .23754883 .6789449 .27978517 .6923828 .33447267 .6923828 .3836263 .6923828 .42325846 .68000289 .45336915 .6552429 .48347984 .63049319 .49853517 .5966237 .49853517 .55363467 .49853517 .5151927 .48364259 .48098756 .45385743 .4510193 .42407228 .4210612 .37239585 .39142356 .29882813 .36210633 .33496095 .29535423 .38264976 .22827657 .44189454 .16087342 .47867839 .21498108 .50651046 .28179933 .5253906 .36132813L.5961914 .3403015C.5756836 .25913493 .5411784 .18269857 .49267579 .11099243 .5239258 .07898966 .55777999 .06298828 .5942383 .06298828 .6173503 .06298828 .63639327 .065592449 .6513672 .07080078V.0048828127C.633138-.0022786458 .6101888-.005859375 .58251956-.005859375M.4243164 .55363467C.4243164 .57709249 .41617839 .5962321 .39990235 .61105349 .3836263 .625885 .36149089 .6333008 .3334961 .6333008 .3022461 .6333008 .27848307 .62490847 .26220704 .6081238 .24593099 .5913493 .23779297 .56813558 .23779297 .53848269 .23779297 .5013326 .24837239 .46157838 .26953126 .41921998 .31217448 .43649293 .34350587 .45148216 .3635254 .46418763 .38354493 .4768931 .39868165 .49057517 .40893556 .50523379 .41918946 .5199025 .4243164 .5360362 .4243164 .55363467M.3881836 .10610962C.32373048 .18232219 .2718099 .2567393 .23242188 .32936097 .15559896 .29677836 .1171875 .2477417 .1171875 .18225098 .1171875 .14282227 .12980144 .11162313 .1550293 .088653568 .18025716 .065684 .21468099 .05419922 .25830079 .05419922 .28141276 .05419922 .30452476 .058685304 .32763673 .06765747 .3507487 .07663981 .370931 .08945719 .3881836 .10610962Z"/>
<path id="font_5_48" d="M.6669922 0V.4593506C.6669922 .51017257 .66845706 .5590413 .6713867 .60595706 .6554362 .54763796 .6411133 .5020294 .62841799 .46913148L.4506836 0H.3852539L.20507813 .46913148 .17773438 .5522003 .1616211 .60595706 .16308594 .55171206 .16503906 .4593506V0H.08203125V.68847659H.20458985L.3876953 .21102906C.39420573 .19180298 .40047203 .17119344 .40649415 .14920044 .41251628 .1272176 .4165039 .111338298 .41845704 .1015625 .4210612 .114593509 .42651368 .13438416 .43481446 .16093445 .44311524 .18748474 .44873048 .20418294 .45166017 .21102906L.63134768 .68847659H.75097659V0H.6669922Z"/>
<path id="font_5_83" d="M.51416018 .2668457C.51416018 .08243815 .4493815-.009765625 .31982423-.009765625 .23844402-.009765625 .18375652 .020858765 .15576172 .082107547H.15332031C.15462239 .07950338 .15527344 .051778158 .15527344-.0010681152V-.20800781H.06738281V.42033387C.06738281 .47473655 .06640625 .510732 .064453128 .5283203H.14941406C.14973958 .5270284 .15022786 .5224101 .1508789 .51446536 .15152996 .50653079 .15226238 .4942983 .15307617 .47776795 .15388997 .46124778 .15429688 .4499105 .15429688 .4437561H.15625C.171875 .4763387 .19254558 .50020346 .21826172 .51535037 .24397786 .5305074 .27783204 .53808596 .31982423 .53808596 .38492839 .53808596 .43359376 .5162557 .4658203 .4725952 .49804688 .42893473 .51416018 .36035157 .51416018 .2668457M.421875 .26489259C.421875 .33855186 .41194663 .39118449 .39208985 .42279054 .37223307 .45440675 .34065757 .47021485 .29736329 .47021485 .26253257 .47021485 .23527019 .46288047 .21557617 .44821168 .19588216 .43355308 .1809082 .4106598 .1706543 .37953187 .16040039 .34840394 .15527344 .3079122 .15527344 .25805665 .15527344 .18863933 .16634114 .13747151 .18847656 .10455322 .21061199 .071634929 .24658203 .05517578 .29638673 .05517578 .3400065 .05517578 .37182618 .07122294 .3918457 .10331726 .41186524 .13542176 .421875 .1892802 .421875 .26489259Z"/>
<path id="font_5_15" d="M.18798828 .107421878V.025222779C.18798828-.009353638 .18489583-.038223268 .17871094-.06138611 .17252605-.08454895 .16292317-.10673014 .14990235-.12792969H.08984375C.12044271-.08365885 .13574219-.041015626 .13574219 0H.09277344V.107421878H.18798828Z"/>
<clipPath id="clip_7">
<path transform="matrix(.24,0,0,.24,0,0)" d="M87.54147 387.47789H468.76823V462.4733H87.54147Z" clip-rule="evenodd"/>
</clipPath>
<path id="font_5_92" d="M.09326172-.20800781C.06917318-.20800781 .048990888-.20621746 .032714845-.20263672V-.13671875C.045084638-.13867188 .05875651-.13964844 .07373047-.13964844 .12841797-.13964844 .17171224-.09930929 .20361328-.018630982L.21191406 .0024414063 .0024414063 .5283203H.096191409L.20751953 .23632813C.20914714 .23177083 .21110027 .22631836 .2133789 .2199707 .21565755 .21362305 .22298177 .19238281 .23535156 .15625 .24772136 .12011719 .25439454 .0999349 .2553711 .095703128L.28955079 .19189453 .40527345 .5283203H.49804688L.29492188 0C.27311198-.056447347 .25276695-.098454799 .23388672-.12602234 .21500652-.15360005 .1940918-.17415874 .17114258-.18769837 .14819336-.20123799 .12223307-.20800781 .09326172-.20800781Z"/>
<path id="font_5_79" d="M.06738281 0V.7246094H.15527344V0H.06738281Z"/>
<path id="font_5_57" d="M.38183595 0H.28515626L.0043945314 .68847659H.10253906L.29296876 .20370484 .33398438 .08203125 .375 .20370484 .5644531 .68847659H.66259768L.38183595 0Z"/>
<clipPath id="clip_8">
<path transform="matrix(.24,0,0,.24,0,0)" d="M87.54147 537.46878H1634.3222V612.4642H87.54147Z" clip-rule="evenodd"/>
</clipPath>
<path id="font_5_14" d="M.32763673 .296875V.087890628H.25585938V.296875H.048828126V.36816407H.25585938V.57714846H.32763673V.36816407H.53466799V.296875H.32763673Z"/>
<path id="font_5_78" d="M.3984375 0 .21972656 .24121094 .15527344 .18798828V0H.06738281V.7246094H.15527344V.27197267L.38720704 .5283203H.49023438L.2758789 .30126954 .50146487 0H.3984375Z"/>
<path id="font_5_11" d="M.06201172 .25976563C.06201172 .35384117 .07674154 .4383138 .10620117 .5131836 .13566081 .5880534 .18098958 .6585286 .2421875 .7246094H.32714845C.26627604 .65690109 .22159831 .58496096 .19311524 .50878909 .16463216 .4326172 .15039063 .34928385 .15039063 .25878907 .15039063 .1686198 .1644694 .08561198 .19262696 .009765625 .2207845-.06608073 .265625-.13834636 .32714845-.20703125H.2421875C.18066406-.140625 .1352539-.0699056 .10595703 .005126953 .076660159 .08015951 .06201172 .16438802 .06201172 .2578125V.25976563Z"/>
<path id="font_5_12" d="M.2709961 .2578125C.2709961 .16373699 .25626628 .07926432 .22680664 .0043945314 .197347-.07047526 .15201824-.14095052 .09082031-.20703125H.005859375C.06705729-.13867188 .111816409-.06665039 .14013672 .009033203 .16845703 .0847168 .18261719 .16796875 .18261719 .25878907 .18261719 .34960938 .16837566 .43294273 .13989258 .50878909 .11140951 .58463546 .06673177 .6565755 .005859375 .7246094H.09082031C.15234375 .6582031 .1977539 .5874837 .22705078 .5124512 .25634767 .4374186 .2709961 .3531901 .2709961 .25976563V.2578125Z"/>
<clipPath id="clip_9">
<path transform="matrix(.24,0,0,.24,0,0)" d="M87.54147 612.4641H1028.109V687.45956H87.54147Z" clip-rule="evenodd"/>
</clipPath>
<path id="font_5_50" d="M.72998049 .34716798C.72998049 .27522788 .71622726 .21223958 .6887207 .15820313 .6612142 .104166667 .6217448 .06266276 .5703125 .033691408 .5188802 .0047200524 .45817057-.009765625 .3881836-.009765625 .31754557-.009765625 .2565918 .0045572917 .20532227 .033203126 .15405274 .061848958 .11490885 .103271488 .087890628 .1574707 .060872396 .21166992 .04736328 .27490235 .04736328 .34716798 .04736328 .457194 .07747396 .5432129 .13769531 .6052246 .19791667 .6672363 .28173829 .6982422 .38916017 .6982422 .45914714 .6982422 .51985678 .6843262 .57128909 .65649417 .6227214 .6286621 .662028 .5882161 .689209 .53515627 .71638998 .48209635 .72998049 .4194336 .72998049 .34716798M.6347656 .34716798C.6347656 .43277995 .6133626 .5 .57055667 .5488281 .5277507 .59765627 .46728517 .6220703 .38916017 .6220703 .31038413 .6220703 .24951172 .59798178 .20654297 .5498047 .16357422 .5016276 .14208985 .43408204 .14208985 .34716798 .14208985 .26090495 .16381836 .19246419 .20727539 .1418457 .25073243 .09122721 .31103517 .06591797 .3881836 .06591797 .4676107 .06591797 .52856448 .090413417 .5710449 .1394043 .6135254 .18839519 .6347656 .25764976 .6347656 .34716798Z"/>
<clipPath id="clip_10">
<path transform="matrix(.24,0,0,.24,0,0)" d="M87.54147 687.4596H584.3861V762.455H87.54147Z" clip-rule="evenodd"/>
</clipPath>
<path id="font_5_73" d="M.17626953 .46435548V0H.088378909V.46435548H.014160156V.5283203H.088378909V.5878906C.088378909 .6360677 .098958339 .67073568 .12011719 .69189456 .14127605 .7130534 .17366536 .7236328 .21728516 .7236328 .24169922 .7236328 .26236979 .7216797 .27929688 .71777346V.6508789C.26464845 .6534831 .2516276 .65478518 .24023438 .65478518 .21777344 .65478518 .20149739 .64908859 .19140625 .6376953 .18131511 .62630209 .17626953 .60563156 .17626953 .5756836V.5283203H.27929688V.46435548H.17626953Z"/>
<path id="font_5_69" d="M.51416018 .26660157C.51416018 .08235677 .4493815-.009765625 .31982423-.009765625 .27978517-.009765625 .24650066-.0025227864 .2199707 .011962891 .19344075 .026448569 .171875 .049804689 .15527344 .08203125H.15429688C.15429688 .0719401 .15364583 .056559247 .15234375 .035888673 .15104167 .015218099 .15006511 .0032552083 .14941406 0H.064453128C.06640625 .017578125 .06738281 .0538737 .06738281 .10888672V.7246094H.15527344V.5180664C.15527344 .49690757 .15462239 .47200523 .15332031 .44335938H.15527344C.17154949 .47721354 .19311524 .50146487 .2199707 .5161133 .24682617 .5307617 .2801107 .53808596 .31982423 .53808596 .386556 .53808596 .43562828 .515625 .46704103 .47070313 .49845378 .42578126 .51416018 .3577474 .51416018 .26660157M.421875 .26367188C.421875 .3375651 .41210938 .39046226 .39257813 .42236329 .37304688 .4542643 .3413086 .47021485 .29736329 .47021485 .24788411 .47021485 .21183269 .45328776 .18920899 .4194336 .16658528 .38557945 .15527344 .3318685 .15527344 .25830079 .15527344 .18896485 .16634114 .13777669 .18847656 .10473633 .21061199 .07169596 .24658203 .05517578 .29638673 .05517578 .34065757 .05517578 .37263999 .0715332 .39233399 .10424805 .41202799 .13696289 .421875 .19010417 .421875 .26367188Z"/>
<clipPath id="clip_11">
<path transform="matrix(.24,0,0,.24,0,0)" d="M25 25H1909.375V825H25Z" clip-rule="evenodd"/>
</clipPath>
</defs>
<g clip-path="url(#clip_1)">
<path transform="matrix(.7499542,0,0,.7499542,232.08399,101.99414)" d="M-293.44923-120H293.44923V120H-293.44923" fill="#eeeeee"/>
<path transform="matrix(.7499542,0,0,.7499542,232.08399,101.99414)" stroke-width="1" stroke-linecap="butt" stroke-miterlimit="4" stroke-linejoin="miter" fill="none" stroke="#999999" d="M-293.44923-120H293.44923V120H-293.44923"/>
<path transform="matrix(.7499542,0,0,.7499542,232.08399,101.99414)" d="M-293.44923-120C-161.3678-120-29.286377-120 293.44923-120M-293.44923-120C-126.25123-120 40.946767-120 293.44923-120M293.44923-120C293.44923-48.059347 293.44923 23.881308 293.44923 120M293.44923-120C293.44923-35.33411 293.44923 49.33178 293.44923 120M293.44923 120C163.19429 120 32.93937 120-293.44923 120M293.44923 120C121.05376 120-51.34171 120-293.44923 120M-293.44923 120C-293.44923 57.539396-293.44923-4.921212-293.44923-120M-293.44923 120C-293.44923 53.161725-293.44923-13.676555-293.44923-120" fill="#eeeeee"/>
<path transform="matrix(.7499542,0,0,.7499542,232.08399,101.99414)" stroke-width="1" stroke-linecap="butt" stroke-miterlimit="4" stroke-linejoin="miter" fill="none" stroke="#999999" d="M-293.44923-120C-161.3678-120-29.286377-120 293.44923-120M-293.44923-120C-126.25123-120 40.946767-120 293.44923-120M293.44923-120C293.44923-48.059347 293.44923 23.881308 293.44923 120M293.44923-120C293.44923-35.33411 293.44923 49.33178 293.44923 120M293.44923 120C163.19429 120 32.93937 120-293.44923 120M293.44923 120C121.05376 120-51.34171 120-293.44923 120M-293.44923 120C-293.44923 57.539396-293.44923-4.921212-293.44923-120M-293.44923 120C-293.44923 53.161725-293.44923-13.676555-293.44923-120"/>
</g>
<g clip-path="url(#clip_2)">
<use data-text="D" xlink:href="#font_3_39" transform="matrix(11.999268,0,0,-11.999268,181.0695,33.748308)" fill="#111111"/>
<use data-text="e" xlink:href="#font_3_72" transform="matrix(11.999268,0,0,-11.999268,189.73297,33.748308)" fill="#111111"/>
<use data-text="a" xlink:href="#font_3_68" transform="matrix(11.999268,0,0,-11.999268,196.40457,33.748308)" fill="#111111"/>
<use data-text="d" xlink:href="#font_3_71" transform="matrix(11.999268,0,0,-11.999268,203.07616,33.748308)" fill="#111111"/>
<use data-text="l" xlink:href="#font_3_79" transform="matrix(11.999268,0,0,-11.999268,210.40772,33.748308)" fill="#111111"/>
<use data-text="o" xlink:href="#font_3_82" transform="matrix(11.999268,0,0,-11.999268,213.74352,33.748308)" fill="#111111"/>
<use data-text="c" xlink:href="#font_3_70" transform="matrix(11.999268,0,0,-11.999268,221.07508,33.748308)" fill="#111111"/>
<use data-text="k" xlink:href="#font_3_78" transform="matrix(11.999268,0,0,-11.999268,227.74666,33.748308)" fill="#111111"/>
<use data-text="D" xlink:href="#font_3_39" transform="matrix(11.999268,0,0,-11.999268,234.41826,33.748308)" fill="#111111"/>
<use data-text="e" xlink:href="#font_3_72" transform="matrix(11.999268,0,0,-11.999268,243.08173,33.748308)" fill="#111111"/>
<use data-text="t" xlink:href="#font_3_87" transform="matrix(11.999268,0,0,-11.999268,249.75333,33.748308)" fill="#111111"/>
<use data-text="e" xlink:href="#font_3_72" transform="matrix(11.999268,0,0,-11.999268,253.74909,33.748308)" fill="#111111"/>
<use data-text="c" xlink:href="#font_3_70" transform="matrix(11.999268,0,0,-11.999268,260.4207,33.748308)" fill="#111111"/>
<use data-text="t" xlink:href="#font_3_87" transform="matrix(11.999268,0,0,-11.999268,267.0923,33.748308)" fill="#111111"/>
<use data-text="o" xlink:href="#font_3_82" transform="matrix(11.999268,0,0,-11.999268,271.088,33.748308)" fill="#111111"/>
<use data-text="r" xlink:href="#font_3_85" transform="matrix(11.999268,0,0,-11.999268,278.4196,33.748308)" fill="#111111"/>
</g>
<g clip-path="url(#clip_4)">
<use data-text="-" xlink:href="#font_5_16" transform="matrix(11.999268,0,0,-11.999268,21.009953,69.74611)" fill="#111111"/>
<use data-text="v" xlink:href="#font_5_89" transform="matrix(11.999268,0,0,-11.999268,25.005709,69.74611)" fill="#111111"/>
<use data-text="i" xlink:href="#font_5_76" transform="matrix(11.999268,0,0,-11.999268,31.005343,69.74611)" fill="#111111"/>
<use data-text="s" xlink:href="#font_5_86" transform="matrix(11.999268,0,0,-11.999268,33.66918,69.74611)" fill="#111111"/>
<use data-text="i" xlink:href="#font_5_76" transform="matrix(11.999268,0,0,-11.999268,39.668817,69.74611)" fill="#111111"/>
<use data-text="t" xlink:href="#font_5_87" transform="matrix(11.999268,0,0,-11.999268,42.33265,69.74611)" fill="#111111"/>
<use data-text="e" xlink:href="#font_5_72" transform="matrix(11.999268,0,0,-11.999268,45.66845,69.74611)" fill="#111111"/>
<use data-text="d" xlink:href="#font_5_71" transform="matrix(11.999268,0,0,-11.999268,52.340044,69.74611)" fill="#111111"/>
<use data-text="_" xlink:href="#font_5_66" transform="matrix(11.999268,0,0,-11.999268,59.011636,69.74611)" fill="#111111"/>
<use data-text="t" xlink:href="#font_5_87" transform="matrix(11.999268,0,0,-11.999268,65.68323,69.74611)" fill="#111111"/>
<use data-text="x" xlink:href="#font_5_91" transform="matrix(11.999268,0,0,-11.999268,69.01902,69.74611)" fill="#111111"/>
<use data-text=":" xlink:href="#font_5_29" transform="matrix(11.999268,0,0,-11.999268,75.018657,69.74611)" fill="#111111"/>
<use data-text=" " xlink:href="#font_5_3" transform="matrix(11.999268,0,0,-11.999268,78.35445,69.74611)" fill="#111111"/>
<use data-text="S" xlink:href="#font_5_54" transform="matrix(11.999268,0,0,-11.999268,81.69025,69.74611)" fill="#111111"/>
<use data-text="e" xlink:href="#font_5_72" transform="matrix(11.999268,0,0,-11.999268,89.693759,69.74611)" fill="#111111"/>
<use data-text="t" xlink:href="#font_5_87" transform="matrix(11.999268,0,0,-11.999268,96.36536,69.74611)" fill="#111111"/>
<use data-text="&#x003c;" xlink:href="#font_5_31" transform="matrix(11.999268,0,0,-11.999268,99.70116,69.74611)" fill="#111111"/>
<use data-text="T" xlink:href="#font_5_55" transform="matrix(11.999268,0,0,-11.999268,106.708728,69.74611)" fill="#111111"/>
<use data-text="I" xlink:href="#font_5_44" transform="matrix(11.999268,0,0,-11.999268,114.04028,69.74611)" fill="#111111"/>
<use data-text="D" xlink:href="#font_5_39" transform="matrix(11.999268,0,0,-11.999268,117.37607,69.74611)" fill="#111111"/>
<use data-text="&#x003e;" xlink:href="#font_5_33" transform="matrix(11.999268,0,0,-11.999268,126.03955,69.74611)" fill="#111111"/>
</g>
<g clip-path="url(#clip_6)">
<use data-text="-" xlink:href="#font_5_16" transform="matrix(11.999268,0,0,-11.999268,21.009953,87.74501)" fill="#111111"/>
<use data-text="t" xlink:href="#font_5_87" transform="matrix(11.999268,0,0,-11.999268,25.005709,87.74501)" fill="#111111"/>
<use data-text="r" xlink:href="#font_5_85" transform="matrix(11.999268,0,0,-11.999268,28.341507,87.74501)" fill="#111111"/>
<use data-text="a" xlink:href="#font_5_68" transform="matrix(11.999268,0,0,-11.999268,32.33726,87.74501)" fill="#111111"/>
<use data-text="n" xlink:href="#font_5_81" transform="matrix(11.999268,0,0,-11.999268,39.008859,87.74501)" fill="#111111"/>
<use data-text="s" xlink:href="#font_5_86" transform="matrix(11.999268,0,0,-11.999268,45.68045,87.74501)" fill="#111111"/>
<use data-text="a" xlink:href="#font_5_68" transform="matrix(11.999268,0,0,-11.999268,51.680086,87.74501)" fill="#111111"/>
<use data-text="c" xlink:href="#font_5_70" transform="matrix(11.999268,0,0,-11.999268,58.351678,87.74501)" fill="#111111"/>
<use data-text="t" xlink:href="#font_5_87" transform="matrix(11.999268,0,0,-11.999268,64.35131,87.74501)" fill="#111111"/>
<use data-text="i" xlink:href="#font_5_76" transform="matrix(11.999268,0,0,-11.999268,67.6871,87.74501)" fill="#111111"/>
<use data-text="o" xlink:href="#font_5_82" transform="matrix(11.999268,0,0,-11.999268,70.350948,87.74501)" fill="#111111"/>
<use data-text="n" xlink:href="#font_5_81" transform="matrix(11.999268,0,0,-11.999268,77.02254,87.74501)" fill="#111111"/>
<use data-text="s" xlink:href="#font_5_86" transform="matrix(11.999268,0,0,-11.999268,83.69414,87.74501)" fill="#111111"/>
<use data-text=":" xlink:href="#font_5_29" transform="matrix(11.999268,0,0,-11.999268,89.69377,87.74501)" fill="#111111"/>
<use data-text=" " xlink:href="#font_5_3" transform="matrix(11.999268,0,0,-11.999268,93.02957,87.74501)" fill="#111111"/>
<use data-text="&amp;" xlink:href="#font_5_9" transform="matrix(11.999268,0,0,-11.999268,96.36536,87.74501)" fill="#111111"/>
<use data-text="M" xlink:href="#font_5_48" transform="matrix(11.999268,0,0,-11.999268,104.368869,87.74501)" fill="#111111"/>
<use data-text="a" xlink:href="#font_5_68" transform="matrix(11.999268,0,0,-11.999268,114.36426,87.74501)" fill="#111111"/>
<use data-text="p" xlink:href="#font_5_83" transform="matrix(11.999268,0,0,-11.999268,121.03586,87.74501)" fill="#111111"/>
<use data-text="&#x003c;" xlink:href="#font_5_31" transform="matrix(11.999268,0,0,-11.999268,127.70744,87.74501)" fill="#111111"/>
<use data-text="T" xlink:href="#font_5_55" transform="matrix(11.999268,0,0,-11.999268,134.71501,87.74501)" fill="#111111"/>
<use data-text="I" xlink:href="#font_5_44" transform="matrix(11.999268,0,0,-11.999268,142.04657,87.74501)" fill="#111111"/>
<use data-text="D" xlink:href="#font_5_39" transform="matrix(11.999268,0,0,-11.999268,145.38236,87.74501)" fill="#111111"/>
<use data-text="," xlink:href="#font_5_15" transform="matrix(11.999268,0,0,-11.999268,154.04582,87.74501)" fill="#111111"/>
<use data-text=" " xlink:href="#font_5_3" transform="matrix(11.999268,0,0,-11.999268,157.38162,87.74501)" fill="#111111"/>
<use data-text="T" xlink:href="#font_5_55" transform="matrix(11.999268,0,0,-11.999268,160.50144,87.74501)" fill="#111111"/>
<use data-text="r" xlink:href="#font_5_85" transform="matrix(11.999268,0,0,-11.999268,167.38578,87.74501)" fill="#111111"/>
<use data-text="a" xlink:href="#font_5_68" transform="matrix(11.999268,0,0,-11.999268,171.38153,87.74501)" fill="#111111"/>
<use data-text="n" xlink:href="#font_5_81" transform="matrix(11.999268,0,0,-11.999268,178.05313,87.74501)" fill="#111111"/>
<use data-text="s" xlink:href="#font_5_86" transform="matrix(11.999268,0,0,-11.999268,184.72472,87.74501)" fill="#111111"/>
<use data-text="a" xlink:href="#font_5_68" transform="matrix(11.999268,0,0,-11.999268,190.72435,87.74501)" fill="#111111"/>
<use data-text="c" xlink:href="#font_5_70" transform="matrix(11.999268,0,0,-11.999268,197.39594,87.74501)" fill="#111111"/>
<use data-text="t" xlink:href="#font_5_87" transform="matrix(11.999268,0,0,-11.999268,203.39557,87.74501)" fill="#111111"/>
<use data-text="i" xlink:href="#font_5_76" transform="matrix(11.999268,0,0,-11.999268,206.73137,87.74501)" fill="#111111"/>
<use data-text="o" xlink:href="#font_5_82" transform="matrix(11.999268,0,0,-11.999268,209.3952,87.74501)" fill="#111111"/>
<use data-text="n" xlink:href="#font_5_81" transform="matrix(11.999268,0,0,-11.999268,216.0668,87.74501)" fill="#111111"/>
<use data-text="&#x003e;" xlink:href="#font_5_33" transform="matrix(11.999268,0,0,-11.999268,222.73839,87.74501)" fill="#111111"/>
</g>
<g clip-path="url(#clip_7)">
<use data-text="-" xlink:href="#font_5_16" transform="matrix(11.999268,0,0,-11.999268,21.009953,105.74391)" fill="#111111"/>
<use data-text="c" xlink:href="#font_5_70" transform="matrix(11.999268,0,0,-11.999268,25.005709,105.74391)" fill="#111111"/>
<use data-text="y" xlink:href="#font_5_92" transform="matrix(11.999268,0,0,-11.999268,31.005343,105.74391)" fill="#111111"/>
<use data-text="c" xlink:href="#font_5_70" transform="matrix(11.999268,0,0,-11.999268,37.004976,105.74391)" fill="#111111"/>
<use data-text="l" xlink:href="#font_5_79" transform="matrix(11.999268,0,0,-11.999268,43.00461,105.74391)" fill="#111111"/>
<use data-text="e" xlink:href="#font_5_72" transform="matrix(11.999268,0,0,-11.999268,45.66845,105.74391)" fill="#111111"/>
<use data-text=":" xlink:href="#font_5_29" transform="matrix(11.999268,0,0,-11.999268,52.340044,105.74391)" fill="#111111"/>
<use data-text=" " xlink:href="#font_5_3" transform="matrix(11.999268,0,0,-11.999268,55.67584,105.74391)" fill="#111111"/>
<use data-text="V" xlink:href="#font_5_57" transform="matrix(11.999268,0,0,-11.999268,59.011636,105.74391)" fill="#111111"/>
<use data-text="e" xlink:href="#font_5_72" transform="matrix(11.999268,0,0,-11.999268,66.35289,105.74391)" fill="#111111"/>
<use data-text="c" xlink:href="#font_5_70" transform="matrix(11.999268,0,0,-11.999268,73.02448,105.74391)" fill="#111111"/>
<use data-text="&#x003c;" xlink:href="#font_5_31" transform="matrix(11.999268,0,0,-11.999268,79.02412,105.74391)" fill="#111111"/>
<use data-text="T" xlink:href="#font_5_55" transform="matrix(11.999268,0,0,-11.999268,86.03169,105.74391)" fill="#111111"/>
<use data-text="I" xlink:href="#font_5_44" transform="matrix(11.999268,0,0,-11.999268,93.36325,105.74391)" fill="#111111"/>
<use data-text="D" xlink:href="#font_5_39" transform="matrix(11.999268,0,0,-11.999268,96.699039,105.74391)" fill="#111111"/>
<use data-text="&#x003e;" xlink:href="#font_5_33" transform="matrix(11.999268,0,0,-11.999268,105.36252,105.74391)" fill="#111111"/>
</g>
<g clip-path="url(#clip_8)">
<use data-text="+" xlink:href="#font_5_14" transform="matrix(11.999268,0,0,-11.999268,21.009953,141.74172)" fill="#111111"/>
<use data-text="D" xlink:href="#font_5_39" transform="matrix(11.999268,0,0,-11.999268,28.017525,141.74172)" fill="#111111"/>
<use data-text="e" xlink:href="#font_5_72" transform="matrix(11.999268,0,0,-11.999268,36.680997,141.74172)" fill="#111111"/>
<use data-text="a" xlink:href="#font_5_68" transform="matrix(11.999268,0,0,-11.999268,43.352594,141.74172)" fill="#111111"/>
<use data-text="d" xlink:href="#font_5_71" transform="matrix(11.999268,0,0,-11.999268,50.024187,141.74172)" fill="#111111"/>
<use data-text="l" xlink:href="#font_5_79" transform="matrix(11.999268,0,0,-11.999268,56.695779,141.74172)" fill="#111111"/>
<use data-text="o" xlink:href="#font_5_82" transform="matrix(11.999268,0,0,-11.999268,59.359617,141.74172)" fill="#111111"/>
<use data-text="c" xlink:href="#font_5_70" transform="matrix(11.999268,0,0,-11.999268,66.031208,141.74172)" fill="#111111"/>
<use data-text="k" xlink:href="#font_5_78" transform="matrix(11.999268,0,0,-11.999268,72.03084,141.74172)" fill="#111111"/>
<use data-text="D" xlink:href="#font_5_39" transform="matrix(11.999268,0,0,-11.999268,78.03047,141.74172)" fill="#111111"/>
<use data-text="e" xlink:href="#font_5_72" transform="matrix(11.999268,0,0,-11.999268,86.693958,141.74172)" fill="#111111"/>
<use data-text="t" xlink:href="#font_5_87" transform="matrix(11.999268,0,0,-11.999268,93.36554,141.74172)" fill="#111111"/>
<use data-text="e" xlink:href="#font_5_72" transform="matrix(11.999268,0,0,-11.999268,96.70134,141.74172)" fill="#111111"/>
<use data-text="c" xlink:href="#font_5_70" transform="matrix(11.999268,0,0,-11.999268,103.37294,141.74172)" fill="#111111"/>
<use data-text="t" xlink:href="#font_5_87" transform="matrix(11.999268,0,0,-11.999268,109.372577,141.74172)" fill="#111111"/>
<use data-text="o" xlink:href="#font_5_82" transform="matrix(11.999268,0,0,-11.999268,112.70836,141.74172)" fill="#111111"/>
<use data-text="r" xlink:href="#font_5_85" transform="matrix(11.999268,0,0,-11.999268,119.37996,141.74172)" fill="#111111"/>
<use data-text="(" xlink:href="#font_5_11" transform="matrix(11.999268,0,0,-11.999268,123.37572,141.74172)" fill="#111111"/>
<use data-text="t" xlink:href="#font_5_87" transform="matrix(11.999268,0,0,-11.999268,127.371479,141.74172)" fill="#111111"/>
<use data-text="x" xlink:href="#font_5_91" transform="matrix(11.999268,0,0,-11.999268,130.70728,141.74172)" fill="#111111"/>
<use data-text="s" xlink:href="#font_5_86" transform="matrix(11.999268,0,0,-11.999268,136.70691,141.74172)" fill="#111111"/>
<use data-text=":" xlink:href="#font_5_29" transform="matrix(11.999268,0,0,-11.999268,142.70655,141.74172)" fill="#111111"/>
<use data-text=" " xlink:href="#font_5_3" transform="matrix(11.999268,0,0,-11.999268,146.04233,141.74172)" fill="#111111"/>
<use data-text="&amp;" xlink:href="#font_5_9" transform="matrix(11.999268,0,0,-11.999268,149.37813,141.74172)" fill="#111111"/>
<use data-text="M" xlink:href="#font_5_48" transform="matrix(11.999268,0,0,-11.999268,157.38164,141.74172)" fill="#111111"/>
<use data-text="a" xlink:href="#font_5_68" transform="matrix(11.999268,0,0,-11.999268,167.37703,141.74172)" fill="#111111"/>
<use data-text="p" xlink:href="#font_5_83" transform="matrix(11.999268,0,0,-11.999268,174.04862,141.74172)" fill="#111111"/>
<use data-text="&#x003c;" xlink:href="#font_5_31" transform="matrix(11.999268,0,0,-11.999268,180.7202,141.74172)" fill="#111111"/>
<use data-text="T" xlink:href="#font_5_55" transform="matrix(11.999268,0,0,-11.999268,187.72777,141.74172)" fill="#111111"/>
<use data-text="I" xlink:href="#font_5_44" transform="matrix(11.999268,0,0,-11.999268,195.05933,141.74172)" fill="#111111"/>
<use data-text="D" xlink:href="#font_5_39" transform="matrix(11.999268,0,0,-11.999268,198.39513,141.74172)" fill="#111111"/>
<use data-text="," xlink:href="#font_5_15" transform="matrix(11.999268,0,0,-11.999268,207.0586,141.74172)" fill="#111111"/>
<use data-text=" " xlink:href="#font_5_3" transform="matrix(11.999268,0,0,-11.999268,210.3944,141.74172)" fill="#111111"/>
<use data-text="T" xlink:href="#font_5_55" transform="matrix(11.999268,0,0,-11.999268,213.51969,141.74172)" fill="#111111"/>
<use data-text="r" xlink:href="#font_5_85" transform="matrix(11.999268,0,0,-11.999268,220.40402,141.74172)" fill="#111111"/>
<use data-text="a" xlink:href="#font_5_68" transform="matrix(11.999268,0,0,-11.999268,224.39978,141.74172)" fill="#111111"/>
<use data-text="n" xlink:href="#font_5_81" transform="matrix(11.999268,0,0,-11.999268,231.07138,141.74172)" fill="#111111"/>
<use data-text="s" xlink:href="#font_5_86" transform="matrix(11.999268,0,0,-11.999268,237.74297,141.74172)" fill="#111111"/>
<use data-text="a" xlink:href="#font_5_68" transform="matrix(11.999268,0,0,-11.999268,243.7426,141.74172)" fill="#111111"/>
<use data-text="c" xlink:href="#font_5_70" transform="matrix(11.999268,0,0,-11.999268,250.41419,141.74172)" fill="#111111"/>
<use data-text="t" xlink:href="#font_5_87" transform="matrix(11.999268,0,0,-11.999268,256.41383,141.74172)" fill="#111111"/>
<use data-text="i" xlink:href="#font_5_76" transform="matrix(11.999268,0,0,-11.999268,259.74964,141.74172)" fill="#111111"/>
<use data-text="o" xlink:href="#font_5_82" transform="matrix(11.999268,0,0,-11.999268,262.41346,141.74172)" fill="#111111"/>
<use data-text="n" xlink:href="#font_5_81" transform="matrix(11.999268,0,0,-11.999268,269.08506,141.74172)" fill="#111111"/>
<use data-text="&#x003e;" xlink:href="#font_5_33" transform="matrix(11.999268,0,0,-11.999268,275.75666,141.74172)" fill="#111111"/>
<use data-text=")" xlink:href="#font_5_12" transform="matrix(11.999268,0,0,-11.999268,282.7642,141.74172)" fill="#111111"/>
<use data-text=" " xlink:href="#font_5_3" transform="matrix(11.999268,0,0,-11.999268,286.75996,141.74172)" fill="#111111"/>
<use data-text=":" xlink:href="#font_5_29" transform="matrix(11.999268,0,0,-11.999268,290.09577,141.74172)" fill="#111111"/>
<use data-text=" " xlink:href="#font_5_3" transform="matrix(11.999268,0,0,-11.999268,293.43156,141.74172)" fill="#111111"/>
<use data-text="D" xlink:href="#font_5_39" transform="matrix(11.999268,0,0,-11.999268,296.76734,141.74172)" fill="#111111"/>
<use data-text="e" xlink:href="#font_5_72" transform="matrix(11.999268,0,0,-11.999268,305.43083,141.74172)" fill="#111111"/>
<use data-text="a" xlink:href="#font_5_68" transform="matrix(11.999268,0,0,-11.999268,312.10243,141.74172)" fill="#111111"/>
<use data-text="d" xlink:href="#font_5_71" transform="matrix(11.999268,0,0,-11.999268,318.774,141.74172)" fill="#111111"/>
<use data-text="l" xlink:href="#font_5_79" transform="matrix(11.999268,0,0,-11.999268,325.4456,141.74172)" fill="#111111"/>
<use data-text="o" xlink:href="#font_5_82" transform="matrix(11.999268,0,0,-11.999268,328.10945,141.74172)" fill="#111111"/>
<use data-text="c" xlink:href="#font_5_70" transform="matrix(11.999268,0,0,-11.999268,334.781,141.74172)" fill="#111111"/>
<use data-text="k" xlink:href="#font_5_78" transform="matrix(11.999268,0,0,-11.999268,340.78065,141.74172)" fill="#111111"/>
<use data-text="D" xlink:href="#font_5_39" transform="matrix(11.999268,0,0,-11.999268,346.78028,141.74172)" fill="#111111"/>
<use data-text="e" xlink:href="#font_5_72" transform="matrix(11.999268,0,0,-11.999268,355.44377,141.74172)" fill="#111111"/>
<use data-text="t" xlink:href="#font_5_87" transform="matrix(11.999268,0,0,-11.999268,362.11537,141.74172)" fill="#111111"/>
<use data-text="e" xlink:href="#font_5_72" transform="matrix(11.999268,0,0,-11.999268,365.45115,141.74172)" fill="#111111"/>
<use data-text="c" xlink:href="#font_5_70" transform="matrix(11.999268,0,0,-11.999268,372.12275,141.74172)" fill="#111111"/>
<use data-text="t" xlink:href="#font_5_87" transform="matrix(11.999268,0,0,-11.999268,378.12239,141.74172)" fill="#111111"/>
<use data-text="o" xlink:href="#font_5_82" transform="matrix(11.999268,0,0,-11.999268,381.45817,141.74172)" fill="#111111"/>
<use data-text="r" xlink:href="#font_5_85" transform="matrix(11.999268,0,0,-11.999268,388.12977,141.74172)" fill="#111111"/>
</g>
<g clip-path="url(#clip_9)">
<use data-text="+" xlink:href="#font_5_14" transform="matrix(11.999268,0,0,-11.999268,21.009953,159.7406)" fill="#111111"/>
<use data-text="d" xlink:href="#font_5_71" transform="matrix(11.999268,0,0,-11.999268,28.017525,159.7406)" fill="#111111"/>
<use data-text="e" xlink:href="#font_5_72" transform="matrix(11.999268,0,0,-11.999268,34.689119,159.7406)" fill="#111111"/>
<use data-text="t" xlink:href="#font_5_87" transform="matrix(11.999268,0,0,-11.999268,41.36071,159.7406)" fill="#111111"/>
<use data-text="e" xlink:href="#font_5_72" transform="matrix(11.999268,0,0,-11.999268,44.69651,159.7406)" fill="#111111"/>
<use data-text="c" xlink:href="#font_5_70" transform="matrix(11.999268,0,0,-11.999268,51.368104,159.7406)" fill="#111111"/>
<use data-text="t" xlink:href="#font_5_87" transform="matrix(11.999268,0,0,-11.999268,57.367738,159.7406)" fill="#111111"/>
<use data-text="_" xlink:href="#font_5_66" transform="matrix(11.999268,0,0,-11.999268,60.703535,159.7406)" fill="#111111"/>
<use data-text="c" xlink:href="#font_5_70" transform="matrix(11.999268,0,0,-11.999268,67.37512,159.7406)" fill="#111111"/>
<use data-text="y" xlink:href="#font_5_92" transform="matrix(11.999268,0,0,-11.999268,73.374759,159.7406)" fill="#111111"/>
<use data-text="c" xlink:href="#font_5_70" transform="matrix(11.999268,0,0,-11.999268,79.37439,159.7406)" fill="#111111"/>
<use data-text="l" xlink:href="#font_5_79" transform="matrix(11.999268,0,0,-11.999268,85.37402,159.7406)" fill="#111111"/>
<use data-text="e" xlink:href="#font_5_72" transform="matrix(11.999268,0,0,-11.999268,88.03787,159.7406)" fill="#111111"/>
<use data-text="(" xlink:href="#font_5_11" transform="matrix(11.999268,0,0,-11.999268,94.70946,159.7406)" fill="#111111"/>
<use data-text="s" xlink:href="#font_5_86" transform="matrix(11.999268,0,0,-11.999268,98.705219,159.7406)" fill="#111111"/>
<use data-text="t" xlink:href="#font_5_87" transform="matrix(11.999268,0,0,-11.999268,104.70485,159.7406)" fill="#111111"/>
<use data-text="a" xlink:href="#font_5_68" transform="matrix(11.999268,0,0,-11.999268,108.04065,159.7406)" fill="#111111"/>
<use data-text="r" xlink:href="#font_5_85" transform="matrix(11.999268,0,0,-11.999268,114.71225,159.7406)" fill="#111111"/>
<use data-text="t" xlink:href="#font_5_87" transform="matrix(11.999268,0,0,-11.999268,118.70801,159.7406)" fill="#111111"/>
<use data-text="_" xlink:href="#font_5_66" transform="matrix(11.999268,0,0,-11.999268,122.04379,159.7406)" fill="#111111"/>
<use data-text="t" xlink:href="#font_5_87" transform="matrix(11.999268,0,0,-11.999268,128.7154,159.7406)" fill="#111111"/>
<use data-text="x" xlink:href="#font_5_91" transform="matrix(11.999268,0,0,-11.999268,132.05118,159.7406)" fill="#111111"/>
<use data-text=":" xlink:href="#font_5_29" transform="matrix(11.999268,0,0,-11.999268,138.05081,159.7406)" fill="#111111"/>
<use data-text=" " xlink:href="#font_5_3" transform="matrix(11.999268,0,0,-11.999268,141.38661,159.7406)" fill="#111111"/>
<use data-text="T" xlink:href="#font_5_55" transform="matrix(11.999268,0,0,-11.999268,144.50632,159.7406)" fill="#111111"/>
<use data-text="I" xlink:href="#font_5_44" transform="matrix(11.999268,0,0,-11.999268,151.83788,159.7406)" fill="#111111"/>
<use data-text="D" xlink:href="#font_5_39" transform="matrix(11.999268,0,0,-11.999268,155.17366,159.7406)" fill="#111111"/>
<use data-text=")" xlink:href="#font_5_12" transform="matrix(11.999268,0,0,-11.999268,163.83715,159.7406)" fill="#111111"/>
<use data-text=" " xlink:href="#font_5_3" transform="matrix(11.999268,0,0,-11.999268,167.8329,159.7406)" fill="#111111"/>
<use data-text=":" xlink:href="#font_5_29" transform="matrix(11.999268,0,0,-11.999268,171.16869,159.7406)" fill="#111111"/>
<use data-text=" " xlink:href="#font_5_3" transform="matrix(11.999268,0,0,-11.999268,174.50449,159.7406)" fill="#111111"/>
<use data-text="O" xlink:href="#font_5_50" transform="matrix(11.999268,0,0,-11.999268,177.84029,159.7406)" fill="#111111"/>
<use data-text="p" xlink:href="#font_5_83" transform="matrix(11.999268,0,0,-11.999268,187.1757,159.7406)" fill="#111111"/>
<use data-text="t" xlink:href="#font_5_87" transform="matrix(11.999268,0,0,-11.999268,193.8473,159.7406)" fill="#111111"/>
<use data-text="i" xlink:href="#font_5_76" transform="matrix(11.999268,0,0,-11.999268,197.18309,159.7406)" fill="#111111"/>
<use data-text="o" xlink:href="#font_5_82" transform="matrix(11.999268,0,0,-11.999268,199.84694,159.7406)" fill="#111111"/>
<use data-text="n" xlink:href="#font_5_81" transform="matrix(11.999268,0,0,-11.999268,206.51853,159.7406)" fill="#111111"/>
<use data-text="&#x003c;" xlink:href="#font_5_31" transform="matrix(11.999268,0,0,-11.999268,213.19011,159.7406)" fill="#111111"/>
<use data-text="T" xlink:href="#font_5_55" transform="matrix(11.999268,0,0,-11.999268,220.19768,159.7406)" fill="#111111"/>
<use data-text="I" xlink:href="#font_5_44" transform="matrix(11.999268,0,0,-11.999268,227.52924,159.7406)" fill="#111111"/>
<use data-text="D" xlink:href="#font_5_39" transform="matrix(11.999268,0,0,-11.999268,230.86504,159.7406)" fill="#111111"/>
<use data-text="&#x003e;" xlink:href="#font_5_33" transform="matrix(11.999268,0,0,-11.999268,239.5285,159.7406)" fill="#111111"/>
</g>
<g clip-path="url(#clip_10)">
<use data-text="-" xlink:href="#font_5_16" transform="matrix(11.999268,0,0,-11.999268,21.009953,177.73952)" fill="#111111"/>
<use data-text="d" xlink:href="#font_5_71" transform="matrix(11.999268,0,0,-11.999268,25.005709,177.73952)" fill="#111111"/>
<use data-text="f" xlink:href="#font_5_73" transform="matrix(11.999268,0,0,-11.999268,31.677304,177.73952)" fill="#111111"/>
<use data-text="s" xlink:href="#font_5_86" transform="matrix(11.999268,0,0,-11.999268,35.0131,177.73952)" fill="#111111"/>
<use data-text="(" xlink:href="#font_5_11" transform="matrix(11.999268,0,0,-11.999268,41.012735,177.73952)" fill="#111111"/>
<use data-text="t" xlink:href="#font_5_87" transform="matrix(11.999268,0,0,-11.999268,45.008489,177.73952)" fill="#111111"/>
<use data-text="i" xlink:href="#font_5_76" transform="matrix(11.999268,0,0,-11.999268,48.344285,177.73952)" fill="#111111"/>
<use data-text="d" xlink:href="#font_5_71" transform="matrix(11.999268,0,0,-11.999268,51.008127,177.73952)" fill="#111111"/>
<use data-text=":" xlink:href="#font_5_29" transform="matrix(11.999268,0,0,-11.999268,57.679719,177.73952)" fill="#111111"/>
<use data-text=" " xlink:href="#font_5_3" transform="matrix(11.999268,0,0,-11.999268,61.015516,177.73952)" fill="#111111"/>
<use data-text="T" xlink:href="#font_5_55" transform="matrix(11.999268,0,0,-11.999268,64.132328,177.73952)" fill="#111111"/>
<use data-text="I" xlink:href="#font_5_44" transform="matrix(11.999268,0,0,-11.999268,71.463878,177.73952)" fill="#111111"/>
<use data-text="D" xlink:href="#font_5_39" transform="matrix(11.999268,0,0,-11.999268,74.79967,177.73952)" fill="#111111"/>
<use data-text=")" xlink:href="#font_5_12" transform="matrix(11.999268,0,0,-11.999268,83.46314,177.73952)" fill="#111111"/>
<use data-text=" " xlink:href="#font_5_3" transform="matrix(11.999268,0,0,-11.999268,87.45889,177.73952)" fill="#111111"/>
<use data-text=":" xlink:href="#font_5_29" transform="matrix(11.999268,0,0,-11.999268,90.79469,177.73952)" fill="#111111"/>
<use data-text=" " xlink:href="#font_5_3" transform="matrix(11.999268,0,0,-11.999268,94.13049,177.73952)" fill="#111111"/>
<use data-text="b" xlink:href="#font_5_69" transform="matrix(11.999268,0,0,-11.999268,97.46628,177.73952)" fill="#111111"/>
<use data-text="o" xlink:href="#font_5_82" transform="matrix(11.999268,0,0,-11.999268,104.13788,177.73952)" fill="#111111"/>
<use data-text="o" xlink:href="#font_5_82" transform="matrix(11.999268,0,0,-11.999268,110.80948,177.73952)" fill="#111111"/>
<use data-text="l" xlink:href="#font_5_79" transform="matrix(11.999268,0,0,-11.999268,117.481067,177.73952)" fill="#111111"/>
<use data-text="e" xlink:href="#font_5_72" transform="matrix(11.999268,0,0,-11.999268,120.1449,177.73952)" fill="#111111"/>
<use data-text="a" xlink:href="#font_5_68" transform="matrix(11.999268,0,0,-11.999268,126.8165,177.73952)" fill="#111111"/>
<use data-text="n" xlink:href="#font_5_81" transform="matrix(11.999268,0,0,-11.999268,133.48809,177.73952)" fill="#111111"/>
</g>
<g clip-path="url(#clip_11)">
<path transform="matrix(.7499542,0,0,.7499542,232.08399,101.99414)" stroke-width="1" stroke-linecap="butt" stroke-miterlimit="4" stroke-linejoin="miter" fill="none" stroke="#999999" d="M-293.44923-72C-108.353839-72 76.74155-72 293.44923-72M-293.44923-72C-116.77658-72 59.89606-72 293.44923-72"/>
<path transform="matrix(.7499542,0,0,.7499542,232.08399,101.99414)" stroke-width="1" stroke-linecap="butt" stroke-miterlimit="4" stroke-linejoin="miter" fill="none" stroke="#999999" d="M-293.44923 24C-164.61119 24-35.773168 24 293.44923 24M-293.44923 24C-81.76822 24 129.91278 24 293.44923 24"/>
</g>
</svg>
